<svg xmlns="http://www.w3.org/2000/svg" width="151" height="34" viewBox="0 0 151 34" fill="none"><path d="M130.829 6.48145C129.547 6.48145 128.503 7.52515 128.503 8.80689C128.503 10.0886 129.547 11.1323 130.829 11.1323C132.111 11.1323 133.154 10.0886 133.154 8.80689C133.154 7.50684 132.111 6.48145 130.829 6.48145ZM65.863 15.5452C67.7673 15.5452 68.7744 16.6987 68.9392 17.1565V22.8877C68.5913 23.4553 67.6392 24.7554 66.0095 24.7554C64.1235 24.7554 63.1531 23.6384 62.915 23.1257C62.5671 22.3933 62.4939 21.1848 62.4939 20.1777C62.4939 19.0974 62.6221 17.9988 63.0615 17.2664C63.6841 16.2227 64.6728 15.5452 65.863 15.5452ZM74.176 25.4512C73.9563 25.4512 73.7732 25.4512 73.645 25.4329C73.5168 25.4329 73.4253 25.3962 73.3704 25.3596C73.3154 25.3047 73.2788 25.2314 73.2605 25.1216C73.2422 25.0117 73.2422 24.8469 73.2422 24.6455V6.59131H67.5293V8.05615H68.0054C68.2434 8.05615 68.4082 8.05615 68.5364 8.07446C68.6645 8.09278 68.7561 8.11109 68.811 8.16602C68.8843 8.22095 68.9026 8.29419 68.9209 8.40405C68.9392 8.51392 68.9392 8.67871 68.9392 8.88013V14.3733C68.6279 14.0437 68.1519 13.7507 67.511 13.4944C66.8701 13.238 66.0461 13.1282 65.0391 13.1282C64.1418 13.1282 63.2629 13.2747 62.4206 13.5493C61.5784 13.824 60.8276 14.2634 60.1685 14.8494C59.5093 15.4353 58.9783 16.186 58.5937 17.0832C58.2092 17.9805 58.0078 19.0791 58.0078 20.3608C58.0078 21.7341 58.2275 22.8511 58.6487 23.7483C59.0881 24.6455 59.6374 25.3413 60.2966 25.8723C60.9558 26.4033 61.7065 26.7695 62.5305 26.9709C63.3545 27.1907 64.1418 27.3005 64.9292 27.3005C65.6799 27.3005 66.3208 27.209 66.8518 27.0442C67.4011 26.8794 67.8589 26.6963 68.2251 26.4766C68.5364 26.2935 68.811 26.1103 69.0124 25.9272V26.9526H69.5251H74.6521V25.4878H74.176V25.4512ZM144.69 24.5906C144.525 24.7187 144.342 24.8469 144.141 24.9751C143.921 25.1033 143.683 25.2131 143.39 25.2864C143.097 25.3779 142.786 25.4145 142.438 25.4145C141.852 25.4145 141.339 25.2498 140.9 24.9202C140.479 24.6089 140.259 24.0229 140.259 23.2173C140.259 22.613 140.387 22.137 140.643 21.7707C140.9 21.4228 141.248 21.1482 141.687 20.9651C142.035 20.8186 142.401 20.8003 142.822 20.782H145.056V24.2244C144.965 24.3525 144.836 24.4624 144.69 24.5906ZM150.128 25.4512C149.908 25.4512 149.725 25.4512 149.615 25.4329C149.487 25.4329 149.396 25.3962 149.341 25.3596C149.286 25.3047 149.249 25.2314 149.231 25.1216C149.213 25.0117 149.213 24.8469 149.213 24.6455V17.303C149.213 16.4607 149.066 15.7832 148.755 15.2522C148.462 14.7212 148.059 14.2817 147.528 13.9705C147.015 13.6592 146.374 13.4395 145.642 13.3113C144.91 13.1831 144.104 13.1099 143.243 13.1099C142.511 13.1099 141.779 13.1648 141.064 13.293C140.35 13.4211 139.691 13.5493 139.124 13.6958C138.556 13.8423 138.062 13.9888 137.677 14.1353C137.292 14.2817 137.054 14.3916 136.981 14.4465V17.7974H139.636V16.6621C139.636 16.4607 139.655 16.2776 139.691 16.0762C139.728 15.8931 139.838 15.7283 140.002 15.5818C140.314 15.3071 140.717 15.1057 141.229 14.9958C141.742 14.886 142.2 14.8311 142.621 14.8311C143.555 14.8311 144.177 14.9958 144.525 15.3254C144.873 15.655 145.056 16.3142 145.056 17.3213V18.9326H142.932C142.035 18.9326 141.174 18.9875 140.332 19.1157C139.508 19.2439 138.757 19.4636 138.116 19.7932C137.476 20.1228 136.963 20.5806 136.578 21.1482C136.194 21.7158 136.011 22.4482 136.011 23.3455C136.011 24.0779 136.157 24.7004 136.45 25.1948C136.743 25.6892 137.146 26.092 137.64 26.4033C138.135 26.7146 138.721 26.9343 139.362 27.0625C140.002 27.1907 140.662 27.2639 141.339 27.2639C141.998 27.2639 142.566 27.1907 143.079 27.0625C143.573 26.9343 144.012 26.7878 144.36 26.623C144.635 26.4949 144.855 26.3484 145.038 26.2202V26.916H145.496H150.604V25.4512H150.128ZM100.818 24.5906C100.653 24.7187 100.47 24.8469 100.269 24.9751C100.049 25.1033 99.8108 25.2131 99.5178 25.2864C99.2248 25.3779 98.9136 25.4145 98.5657 25.4145C97.9797 25.4145 97.467 25.2498 97.0276 24.9202C96.6064 24.6089 96.3867 24.0229 96.3867 23.2173C96.3867 22.613 96.5149 22.137 96.7712 21.7707C97.0276 21.4228 97.3755 21.1482 97.8149 20.9651C98.1628 20.8186 98.529 20.8003 98.9502 20.782H101.184V24.2244C101.074 24.3525 100.964 24.4624 100.818 24.5906ZM106.238 25.4512C106.018 25.4512 105.835 25.4512 105.725 25.4329C105.597 25.4329 105.505 25.3962 105.45 25.3596C105.395 25.3047 105.359 25.2314 105.341 25.1216C105.322 25.0117 105.322 24.8469 105.322 24.6455V17.303C105.322 16.4607 105.176 15.7832 104.864 15.2522C104.572 14.7212 104.169 14.2817 103.638 13.9705C103.125 13.6592 102.484 13.4395 101.752 13.3113C101.019 13.1831 100.214 13.1099 99.353 13.1099C98.6206 13.1099 97.8882 13.1648 97.1741 13.293C96.4599 13.4211 95.8008 13.5493 95.2331 13.6958C94.6655 13.8423 94.1711 13.9888 93.7866 14.1353C93.4021 14.2817 93.1641 14.3916 93.0908 14.4465V17.7974H95.7642V16.6621C95.7642 16.4607 95.7825 16.2776 95.8191 16.0762C95.8557 15.8931 95.9656 15.7283 96.1304 15.5818C96.4416 15.3071 96.8445 15.1057 97.3572 14.9958C97.8699 14.886 98.3276 14.8311 98.7305 14.8311C99.6643 14.8311 100.287 14.9958 100.635 15.3254C100.983 15.655 101.166 16.3142 101.166 17.3213V18.9326H99.0417C98.1445 18.9326 97.2656 18.9875 96.4416 19.1157C95.6177 19.2439 94.8669 19.4636 94.2261 19.7932C93.5852 20.1228 93.0725 20.5806 92.688 21.1482C92.3035 21.7158 92.1204 22.4482 92.1204 23.3455C92.1204 24.0779 92.2668 24.7004 92.5781 25.1948C92.8711 25.6892 93.2739 26.092 93.7683 26.4033C94.281 26.7146 94.8486 26.9343 95.4895 27.0625C96.1304 27.1907 96.7895 27.2639 97.467 27.2639C98.1262 27.2639 98.6938 27.1907 99.2065 27.0625C99.7009 26.9343 100.14 26.7878 100.488 26.623C100.763 26.4949 100.983 26.3484 101.166 26.2202V26.916H101.624H106.732V25.4512H106.238ZM51.2329 24.5906C51.0681 24.7187 50.885 24.8469 50.6836 24.9751C50.4639 25.1033 50.2258 25.2131 49.9329 25.2864C49.6399 25.3779 49.3286 25.4145 48.9807 25.4145C48.3948 25.4145 47.8821 25.2498 47.4426 24.9202C47.0032 24.6089 46.8018 24.0229 46.8018 23.2173C46.8018 22.613 46.9299 22.137 47.1863 21.7707C47.4426 21.4228 47.7905 21.1482 48.23 20.9651C48.5779 20.8186 48.9441 20.8003 49.3652 20.782H51.5991V24.2244C51.5076 24.3525 51.3794 24.4624 51.2329 24.5906ZM56.6711 25.4512C56.4514 25.4512 56.2683 25.4512 56.1584 25.4329C56.0303 25.4329 55.9387 25.3962 55.8838 25.3596C55.8289 25.3047 55.7922 25.2314 55.7739 25.1216C55.7556 25.0117 55.7556 24.8469 55.7556 24.6455V17.303C55.7556 16.4607 55.6091 15.7832 55.2978 15.2522C55.0049 14.7212 54.6021 14.2817 54.071 13.9705C53.5583 13.6592 52.9175 13.4395 52.1851 13.3113C51.4526 13.1831 50.647 13.1099 49.7864 13.1099C49.054 13.1099 48.3215 13.1648 47.6074 13.293C46.8933 13.4211 46.2341 13.5493 45.6665 13.6958C45.0989 13.8423 44.6045 13.9888 44.22 14.1353C43.8354 14.2817 43.5974 14.3916 43.5242 14.4465V17.7974H46.1975V16.6621C46.1975 16.4607 46.2158 16.2776 46.2524 16.0762C46.2891 15.8931 46.3989 15.7283 46.5637 15.5818C46.875 15.3071 47.2778 15.1057 47.7905 14.9958C48.3032 14.886 48.761 14.8311 49.1638 14.8311C50.0977 14.8311 50.7202 14.9958 51.0681 15.3254C51.416 15.655 51.5991 16.3142 51.5991 17.3213V18.9326H49.4751C48.5779 18.9326 47.699 18.9875 46.875 19.1157C46.051 19.2439 45.3003 19.4636 44.6594 19.7932C44.0186 20.1228 43.5059 20.5806 43.1213 21.1482C42.7368 21.7158 42.5537 22.4482 42.5537 23.3455C42.5537 24.0779 42.7002 24.7004 42.9932 25.1948C43.2861 25.6892 43.689 26.092 44.1834 26.4033C44.696 26.7146 45.2637 26.9343 45.9045 27.0625C46.5454 27.1907 47.2046 27.2639 47.8821 27.2639C48.5413 27.2639 49.1089 27.1907 49.6216 27.0625C50.116 26.9343 50.5554 26.7878 50.9033 26.623C51.178 26.4949 51.3977 26.3484 51.5808 26.2202V26.916H52.0386H57.1472V25.4512H56.6711ZM132.971 24.6455C132.971 24.8469 132.971 25.0117 132.989 25.1216C133.008 25.2314 133.026 25.3047 133.099 25.3596C133.154 25.3962 133.246 25.4329 133.374 25.4329C133.502 25.4512 133.667 25.4512 133.887 25.4512H134.363V26.916H127.258V25.4512H127.734C127.954 25.4512 128.137 25.4512 128.265 25.4329C128.394 25.4329 128.467 25.3962 128.54 25.3596C128.595 25.3047 128.632 25.2314 128.65 25.1216C128.668 25.0117 128.668 24.8469 128.668 24.6455V15.655C128.668 15.4536 128.668 15.2888 128.65 15.179C128.65 15.0691 128.613 14.9959 128.54 14.9409C128.467 14.9043 128.375 14.8677 128.265 14.8677C128.137 14.8494 127.972 14.8494 127.734 14.8494H127.258V13.3845H132.971V24.6455ZM108.765 13.3845H114.111V14.6846C114.239 14.5747 114.423 14.4282 114.697 14.2634C114.972 14.0803 115.301 13.9155 115.704 13.7324C116.107 13.5493 116.583 13.4028 117.114 13.293C117.664 13.1648 118.268 13.1099 118.945 13.1099C120.593 13.1099 121.802 13.4944 122.607 14.2634C123.413 15.0325 123.816 16.1311 123.816 17.5776V24.6455C123.816 24.8469 123.816 25.0117 123.834 25.1216C123.853 25.2314 123.871 25.3047 123.944 25.3596C123.999 25.3962 124.091 25.4329 124.219 25.4329C124.329 25.4512 124.512 25.4512 124.731 25.4512H125.208V26.916H118.414V25.4512H118.579C118.799 25.4512 118.982 25.4512 119.11 25.4329C119.238 25.4329 119.33 25.3962 119.385 25.3596C119.44 25.3047 119.476 25.2314 119.495 25.1216C119.513 25.0117 119.513 24.8469 119.513 24.6455V18.603C119.513 18.0537 119.495 17.5593 119.476 17.1382C119.458 16.717 119.385 16.3508 119.257 16.0762C119.128 15.7832 118.945 15.5635 118.707 15.4353C118.469 15.2888 118.121 15.2156 117.664 15.2156C117.297 15.2156 116.931 15.2705 116.602 15.3621C116.272 15.4536 115.961 15.5635 115.686 15.71C115.43 15.8564 115.192 16.0029 114.99 16.1677C114.789 16.3142 114.624 16.4607 114.496 16.5706V24.7004C114.496 24.9019 114.496 25.0666 114.514 25.1765C114.532 25.2864 114.551 25.3596 114.624 25.4145C114.679 25.4512 114.771 25.4878 114.899 25.4878C115.009 25.5061 115.192 25.5061 115.411 25.5061H115.576V26.9709H108.783V25.5061H109.259C109.479 25.5061 109.662 25.5061 109.772 25.4878C109.9 25.4878 109.991 25.4512 110.046 25.4145C110.101 25.3596 110.138 25.2864 110.156 25.1765C110.175 25.0666 110.175 24.9019 110.175 24.7004V15.71C110.175 15.5085 110.175 15.3437 110.156 15.2339C110.156 15.124 110.12 15.0508 110.046 14.9958C109.991 14.9592 109.9 14.9226 109.772 14.9226C109.644 14.9043 109.479 14.9043 109.259 14.9043H108.783V13.3845H108.765ZM85.4736 26.916H81.4087L76.2451 15.655C76.1352 15.4536 76.062 15.2888 75.9888 15.179C75.9155 15.0691 75.8423 14.9959 75.7507 14.9409C75.6592 14.9043 75.5493 14.8677 75.4028 14.8677C75.2747 14.8494 75.0915 14.8494 74.8901 14.8494H74.8718V13.3845H81.7932V14.8494H81.4636C81.189 14.8494 80.9875 14.8494 80.8411 14.8677C80.6946 14.886 80.5847 14.9409 80.5664 15.0508C80.5481 15.1606 80.5481 15.3071 80.6213 15.5269C80.6946 15.7466 80.8227 16.0579 81.0059 16.479L84.3017 24.1328L87.4145 16.5889C87.5976 16.1494 87.7258 15.8015 87.8174 15.5818C87.8906 15.3438 87.9272 15.179 87.8906 15.0691C87.854 14.9592 87.7624 14.886 87.6343 14.8677C87.4878 14.8494 87.2681 14.8494 86.9934 14.8494H86.8286V13.3845H91.6992V14.8494H91.2231C91.0583 14.8494 90.9302 14.8494 90.8203 14.8677C90.7104 14.8677 90.6372 14.9043 90.5823 14.9592C90.5273 15.0142 90.4541 15.1057 90.3992 15.2156C90.3442 15.3254 90.271 15.4719 90.1794 15.655L85.4736 26.916Z" fill="white"></path><mask id="mask0_2511_953" style="mask-type:luminance" maskUnits="userSpaceOnUse" x="11" y="6" width="25" height="8"><path d="M11.8838 6.70117L23.6208 13.5127L35.4861 6.70117H11.8838Z" fill="white"></path></mask><g mask="url(#mask0_2511_953)"><path d="M0.348145 9.375L21.1306 16.8457L47.0034 10.8398L26.2393 3.36914L0.348145 9.375Z" fill="url(#paint0_linear_2511_953)"></path></g><mask id="mask1_2511_953" style="mask-type:luminance" maskUnits="userSpaceOnUse" x="23" y="6" width="13" height="22"><path d="M23.6206 27.0259L35.4858 20.2144V6.70117L23.6206 27.0259Z" fill="white"></path></mask><g mask="url(#mask1_2511_953)"><path d="M40.6309 11.8103L26.605 -2.12402L18.4751 21.9177L32.501 35.852L40.6309 11.8103Z" fill="url(#paint1_linear_2511_953)"></path></g><mask id="mask2_2511_953" style="mask-type:luminance" maskUnits="userSpaceOnUse" x="23" y="6" width="13" height="22"><path d="M23.6206 13.5127V27.0259L35.4858 6.70117L23.6206 13.5127Z" fill="white"></path></mask><g mask="url(#mask2_2511_953)"><path d="M35.4858 6.70117H23.6206V27.0442H35.4858V6.70117Z" fill="url(#paint2_linear_2511_953)"></path></g><mask id="mask3_2511_953" style="mask-type:luminance" maskUnits="userSpaceOnUse" x="11" y="6" width="13" height="22"><path d="M11.8838 20.2144L23.6208 27.0259L11.8838 6.70117V20.2144Z" fill="white"></path></mask><g mask="url(#mask3_2511_953)"><path d="M6.18896 19.3906L19.2078 36.8772L29.2969 14.3369L16.2964 -3.14966L6.18896 19.3906Z" fill="url(#paint3_linear_2511_953)"></path></g><mask id="mask4_2511_953" style="mask-type:luminance" maskUnits="userSpaceOnUse" x="11" y="6" width="13" height="22"><path d="M23.6208 27.0259V13.5127L11.8838 6.70117L23.6208 27.0259Z" fill="white"></path></mask><g mask="url(#mask4_2511_953)"><path d="M8.05664 24.5913L22.2107 33.6367L27.4292 9.1372L13.2751 0.0917969L8.05664 24.5913Z" fill="url(#paint4_linear_2511_953)"></path></g><mask id="mask5_2511_953" style="mask-type:luminance" maskUnits="userSpaceOnUse" x="11" y="0" width="25" height="7"><path d="M11.8838 6.70166H35.4861L23.6208 0L11.8838 6.70166Z" fill="white"></path></mask><g mask="url(#mask5_2511_953)"><path d="M9.10059 6.61035L35.1565 7.48926L38.2693 0.0917973L12.2134 -0.787109L9.10059 6.61035Z" fill="url(#paint5_linear_2511_953)"></path></g><mask id="mask6_2511_953" style="mask-type:luminance" maskUnits="userSpaceOnUse" x="0" y="6" width="12" height="22"><path d="M0 27.0259L11.8835 20.2144V6.70117L0 27.0259Z" fill="white"></path></mask><g mask="url(#mask6_2511_953)"><path d="M11.8652 6.70117H0V27.0442H11.8652V6.70117Z" fill="url(#paint6_linear_2511_953)"></path></g><mask id="mask7_2511_953" style="mask-type:luminance" maskUnits="userSpaceOnUse" x="0" y="27" width="24" height="7"><path d="M0.0183106 27.0266H0L11.8835 33.7283L23.6206 27.0266H0.0183106Z" fill="white"></path></mask><g mask="url(#mask7_2511_953)"><path d="M-9.43018 28.3628L4.72388 36.4011L33.0503 32.3911L18.8962 24.3528L-9.43018 28.3628Z" fill="url(#paint7_linear_2511_953)"></path></g><mask id="mask8_2511_953" style="mask-type:luminance" maskUnits="userSpaceOnUse" x="0" y="20" width="24" height="8"><path d="M0 27.0264H23.6206L11.8835 20.2148L0 27.0264Z" fill="white"></path></mask><g mask="url(#mask8_2511_953)"><path d="M4.74243 17.4863L-9.44824 25.6711L18.8782 29.7727L33.0688 21.5879L4.74243 17.4863Z" fill="url(#paint8_linear_2511_953)"></path></g><mask id="mask9_2511_953" style="mask-type:luminance" maskUnits="userSpaceOnUse" x="0" y="6" width="12" height="22"><path d="M0 13.5127V27.0259L11.8835 6.70117L0 13.5127Z" fill="white"></path></mask><g mask="url(#mask9_2511_953)"><path d="M17.029 11.8103L2.98486 -2.12402L-5.14502 21.9177L8.89917 35.852L17.029 11.8103Z" fill="url(#paint9_linear_2511_953)"></path></g><defs><linearGradient id="paint0_linear_2511_953" x1="9.02028" y1="4.83778" x2="12.1813" y2="18.4664" gradientUnits="userSpaceOnUse"><stop stop-color="#5F8F3D"></stop><stop offset="0.453" stop-color="#5F8F3D"></stop><stop offset="1" stop-color="#AACF75"></stop></linearGradient><linearGradient id="paint1_linear_2511_953" x1="38.9173" y1="26.1688" x2="24.7499" y2="21.3801" gradientUnits="userSpaceOnUse"><stop stop-color="#BF007E"></stop><stop offset="1" stop-color="#471267"></stop></linearGradient><linearGradient id="paint2_linear_2511_953" x1="29.5486" y1="33.5174" x2="29.5486" y2="10.378" gradientUnits="userSpaceOnUse"><stop stop-color="#BF007E"></stop><stop offset="1" stop-color="#471267"></stop></linearGradient><linearGradient id="paint3_linear_2511_953" x1="7.78442" y1="3.46419" x2="36.4548" y2="16.3176" gradientUnits="userSpaceOnUse"><stop stop-color="#FFE200"></stop><stop offset="0.017729" stop-color="#FFDF01"></stop><stop offset="0.3445" stop-color="#F3A412"></stop><stop offset="0.6233" stop-color="#EF7E1E"></stop><stop offset="0.8405" stop-color="#EC6425"></stop><stop offset="0.9693" stop-color="#EB5A28"></stop><stop offset="1" stop-color="#EB5A28"></stop></linearGradient><linearGradient id="paint4_linear_2511_953" x1="1.71407" y1="6.61545" x2="34.9619" y2="13.6969" gradientUnits="userSpaceOnUse"><stop stop-color="#FFE200"></stop><stop offset="0.017729" stop-color="#FFDF01"></stop><stop offset="0.3445" stop-color="#F3A412"></stop><stop offset="0.6233" stop-color="#EF7E1E"></stop><stop offset="0.8405" stop-color="#EC6425"></stop><stop offset="0.9693" stop-color="#EB5A28"></stop><stop offset="1" stop-color="#EB5A28"></stop></linearGradient><linearGradient id="paint5_linear_2511_953" x1="5.91435" y1="2.7436" x2="32.2449" y2="13.8364" gradientUnits="userSpaceOnUse"><stop stop-color="#5F8F3D"></stop><stop offset="0.453" stop-color="#5F8F3D"></stop><stop offset="1" stop-color="#AACF75"></stop></linearGradient><linearGradient id="paint6_linear_2511_953" x1="5.93835" y1="26.0127" x2="5.93835" y2="4.35088" gradientUnits="userSpaceOnUse"><stop stop-color="#BF007E"></stop><stop offset="1" stop-color="#471267"></stop></linearGradient><linearGradient id="paint7_linear_2511_953" x1="-8.45724" y1="18.8719" x2="-5.86905" y2="37.1387" gradientUnits="userSpaceOnUse"><stop stop-color="#0088A7"></stop><stop offset="1" stop-color="#3ABEDA"></stop></linearGradient><linearGradient id="paint8_linear_2511_953" x1="19.2969" y1="19.3096" x2="16.6011" y2="37.9288" gradientUnits="userSpaceOnUse"><stop stop-color="#0088A7"></stop><stop offset="1" stop-color="#3ABEDA"></stop></linearGradient><linearGradient id="paint9_linear_2511_953" x1="11.0912" y1="21.981" x2="-5.50715" y2="16.3705" gradientUnits="userSpaceOnUse"><stop stop-color="#BF007E"></stop><stop offset="1" stop-color="#471267"></stop></linearGradient></defs></svg>