<svg xmlns="http://www.w3.org/2000/svg" width="192" height="43" viewBox="0 0 192 43" fill="none"><path d="M166.127 8.20557C164.501 8.20557 163.176 9.5269 163.176 11.1496C163.176 12.7723 164.501 14.0936 166.127 14.0936C167.754 14.0936 169.078 12.7723 169.078 11.1496C169.078 9.50372 167.754 8.20557 166.127 8.20557ZM83.6844 19.6803C86.101 19.6803 87.379 21.1407 87.5881 21.7202V28.976C87.1466 29.6946 85.9383 31.3404 83.8703 31.3404C81.477 31.3404 80.2454 29.9264 79.9434 29.2773C79.5019 28.3501 79.4089 26.8201 79.4089 25.5451C79.4089 24.1774 79.5716 22.7866 80.1292 21.8593C80.9193 20.538 82.1741 19.6803 83.6844 19.6803ZM94.2337 32.2213C93.9549 32.2213 93.7225 32.2213 93.5599 32.1982C93.3972 32.1982 93.281 32.1518 93.2113 32.1054C93.1416 32.0359 93.0952 31.9432 93.0719 31.8041C93.0487 31.665 93.0487 31.4564 93.0487 31.2014V8.34466H85.7989V10.1992H86.4031C86.7051 10.1992 86.9143 10.1992 87.0769 10.2223C87.2396 10.2455 87.3558 10.2687 87.4255 10.3382C87.5184 10.4078 87.5417 10.5005 87.5649 10.6396C87.5881 10.7787 87.5881 10.9873 87.5881 11.2423V18.1967C87.1931 17.7794 86.589 17.4085 85.7757 17.084C84.9624 16.7594 83.9168 16.6204 82.6388 16.6204C81.5002 16.6204 80.3848 16.8058 79.316 17.1535C78.2471 17.5012 77.2944 18.0576 76.4579 18.7994C75.6214 19.5412 74.9475 20.4916 74.4596 21.6275C73.9716 22.7634 73.716 24.1543 73.716 25.777C73.716 27.5155 73.9948 28.9296 74.5293 30.0655C75.087 31.2014 75.784 32.0822 76.6206 32.7545C77.4571 33.4268 78.4098 33.8904 79.4554 34.1454C80.501 34.4235 81.5002 34.5626 82.4994 34.5626C83.4521 34.5626 84.2653 34.4467 84.9392 34.2381C85.6363 34.0295 86.2172 33.7977 86.6819 33.5195C87.0769 33.2877 87.4255 33.0559 87.6811 32.824V34.1222H88.3317H94.8379V32.2677H94.2337V32.2213ZM183.717 31.1318C183.508 31.2941 183.276 31.4564 183.02 31.6186C182.741 31.7809 182.439 31.92 182.067 32.0127C181.696 32.1286 181.3 32.175 180.859 32.175C180.115 32.175 179.465 31.9663 178.907 31.5491C178.373 31.155 178.094 30.4132 178.094 29.3932C178.094 28.6282 178.257 28.0255 178.582 27.5619C178.907 27.1215 179.349 26.7737 179.906 26.5419C180.348 26.3565 180.813 26.3333 181.347 26.3101H184.182V30.6682C184.066 30.8305 183.903 30.9695 183.717 31.1318ZM190.618 32.2213C190.339 32.2213 190.107 32.2213 189.968 32.1982C189.805 32.1982 189.689 32.1518 189.619 32.1054C189.549 32.0359 189.503 31.9432 189.48 31.8041C189.456 31.665 189.456 31.4564 189.456 31.2014V21.9057C189.456 20.8393 189.271 19.9816 188.876 19.3094C188.504 18.6371 187.993 18.0808 187.319 17.6867C186.668 17.2926 185.855 17.0144 184.925 16.8522C183.996 16.6899 182.974 16.5972 181.881 16.5972C180.952 16.5972 180.022 16.6667 179.116 16.829C178.21 16.9913 177.374 17.1535 176.653 17.339C175.933 17.5244 175.306 17.7099 174.818 17.8953C174.33 18.0808 174.028 18.2199 173.935 18.2894V22.5316H177.304V21.0943C177.304 20.8393 177.327 20.6075 177.374 20.3525C177.42 20.1207 177.559 19.9121 177.769 19.7266C178.164 19.3789 178.675 19.1239 179.325 18.9848C179.976 18.8458 180.557 18.7762 181.091 18.7762C182.276 18.7762 183.066 18.9848 183.508 19.4021C183.949 19.8194 184.182 20.6539 184.182 21.9289V23.9688H181.486C180.348 23.9688 179.256 24.0384 178.187 24.2006C177.141 24.3629 176.188 24.6411 175.375 25.0583C174.562 25.4756 173.911 26.0551 173.423 26.7737C172.935 27.4924 172.703 28.4196 172.703 29.5555C172.703 30.4827 172.889 31.2709 173.261 31.8968C173.632 32.5227 174.144 33.0327 174.771 33.4268C175.398 33.8208 176.142 34.099 176.955 34.2613C177.769 34.4235 178.605 34.5163 179.465 34.5163C180.301 34.5163 181.022 34.4235 181.672 34.2613C182.3 34.099 182.857 33.9136 183.299 33.7049C183.647 33.5427 183.926 33.3572 184.159 33.1949V34.0758H184.739H191.222V32.2213H190.618ZM128.043 31.1318C127.834 31.2941 127.601 31.4564 127.346 31.6186C127.067 31.7809 126.765 31.92 126.393 32.0127C126.021 32.1286 125.626 32.175 125.185 32.175C124.441 32.175 123.79 31.9663 123.233 31.5491C122.698 31.155 122.419 30.4132 122.419 29.3932C122.419 28.6282 122.582 28.0255 122.907 27.5619C123.233 27.1215 123.674 26.7737 124.232 26.5419C124.673 26.3565 125.138 26.3333 125.673 26.3101H128.507V30.6682C128.368 30.8305 128.229 30.9695 128.043 31.1318ZM134.921 32.2213C134.642 32.2213 134.409 32.2213 134.27 32.1982C134.107 32.1982 133.991 32.1518 133.921 32.1054C133.852 32.0359 133.805 31.9432 133.782 31.8041C133.759 31.665 133.759 31.4564 133.759 31.2014V21.9057C133.759 20.8393 133.573 19.9816 133.178 19.3094C132.806 18.6371 132.295 18.0808 131.621 17.6867C130.97 17.2926 130.157 17.0144 129.228 16.8522C128.298 16.6899 127.276 16.5972 126.184 16.5972C125.254 16.5972 124.325 16.6667 123.419 16.829C122.512 16.9913 121.676 17.1535 120.956 17.339C120.235 17.5244 119.608 17.7099 119.12 17.8953C118.632 18.0808 118.33 18.2199 118.237 18.2894V22.5316H121.629V21.0943C121.629 20.8393 121.653 20.6075 121.699 20.3525C121.746 20.1207 121.885 19.9121 122.094 19.7266C122.489 19.3789 123 19.1239 123.651 18.9848C124.302 18.8458 124.883 18.7762 125.394 18.7762C126.579 18.7762 127.369 18.9848 127.81 19.4021C128.252 19.8194 128.484 20.6539 128.484 21.9289V23.9688H125.789C124.65 23.9688 123.535 24.0384 122.489 24.2006C121.444 24.3629 120.491 24.6411 119.678 25.0583C118.864 25.4756 118.214 26.0551 117.726 26.7737C117.238 27.4924 117.005 28.4196 117.005 29.5555C117.005 30.4827 117.191 31.2709 117.586 31.8968C117.958 32.5227 118.469 33.0327 119.097 33.4268C119.747 33.8208 120.468 34.099 121.281 34.2613C122.094 34.4235 122.931 34.5163 123.79 34.5163C124.627 34.5163 125.347 34.4235 125.998 34.2613C126.625 34.099 127.183 33.9136 127.624 33.7049C127.973 33.5427 128.252 33.3572 128.484 33.1949V34.0758H129.065H135.548V32.2213H134.921ZM65.1185 31.1318C64.9094 31.2941 64.6771 31.4564 64.4215 31.6186C64.1426 31.7809 63.8405 31.92 63.4688 32.0127C63.097 32.1286 62.702 32.175 62.2605 32.175C61.5169 32.175 60.8663 31.9663 60.3086 31.5491C59.7509 31.155 59.4953 30.4132 59.4953 29.3932C59.4953 28.6282 59.658 28.0255 59.9833 27.5619C60.3086 27.1215 60.7501 26.7737 61.3078 26.5419C61.7493 26.3565 62.214 26.3333 62.7484 26.3101H65.5833V30.6682C65.4671 30.8305 65.3044 30.9695 65.1185 31.1318ZM72.0197 32.2213C71.7409 32.2213 71.5086 32.2213 71.3691 32.1982C71.2065 32.1982 71.0903 32.1518 71.0206 32.1054C70.9509 32.0359 70.9044 31.9432 70.8812 31.8041C70.8579 31.665 70.8579 31.4564 70.8579 31.2014V21.9057C70.8579 20.8393 70.672 19.9816 70.277 19.3094C69.9052 18.6371 69.394 18.0808 68.7202 17.6867C68.0696 17.2926 67.2563 17.0144 66.3268 16.8522C65.3974 16.6899 64.375 16.5972 63.2829 16.5972C62.3534 16.5972 61.424 16.6667 60.5177 16.829C59.6115 16.9913 58.775 17.1535 58.0547 17.339C57.3343 17.5244 56.707 17.7099 56.219 17.8953C55.731 18.0808 55.429 18.2199 55.336 18.2894V22.5316H58.7285V21.0943C58.7285 20.8393 58.7518 20.6075 58.7982 20.3525C58.8447 20.1207 58.9841 19.9121 59.1933 19.7266C59.5883 19.3789 60.0995 19.1239 60.7501 18.9848C61.4007 18.8458 61.9816 18.7762 62.4928 18.7762C63.6779 18.7762 64.4679 18.9848 64.9094 19.4021C65.3509 19.8194 65.5833 20.6539 65.5833 21.9289V23.9688H62.8878C61.7493 23.9688 60.6339 24.0384 59.5883 24.2006C58.5426 24.3629 57.5899 24.6411 56.7767 25.0583C55.9634 25.4756 55.3128 26.0551 54.8248 26.7737C54.3369 27.4924 54.1045 28.4196 54.1045 29.5555C54.1045 30.4827 54.2904 31.2709 54.6622 31.8968C55.0339 32.5227 55.5452 33.0327 56.1725 33.4268C56.8232 33.8208 57.5435 34.099 58.3568 34.2613C59.17 34.4235 60.0065 34.5163 60.8663 34.5163C61.7028 34.5163 62.4231 34.4235 63.0737 34.2613C63.7011 34.099 64.2588 33.9136 64.7003 33.7049C65.0488 33.5427 65.3277 33.3572 65.56 33.1949V34.0758H66.1409H72.6239V32.2213H72.0197ZM168.846 31.2014C168.846 31.4564 168.846 31.665 168.869 31.8041C168.892 31.9432 168.915 32.0359 169.008 32.1054C169.078 32.1518 169.194 32.1982 169.357 32.1982C169.52 32.2213 169.729 32.2213 170.008 32.2213H170.612V34.0758H161.596V32.2213H162.2C162.479 32.2213 162.711 32.2213 162.874 32.1982C163.037 32.1982 163.13 32.1518 163.223 32.1054C163.292 32.0359 163.339 31.9432 163.362 31.8041C163.385 31.665 163.385 31.4564 163.385 31.2014V19.8194C163.385 19.5644 163.385 19.3557 163.362 19.2167C163.362 19.0776 163.316 18.9848 163.223 18.9153C163.13 18.8689 163.013 18.8226 162.874 18.8226C162.711 18.7994 162.502 18.7994 162.2 18.7994H161.596V16.9449H168.846V31.2014ZM138.127 16.9449H144.912V18.5908C145.075 18.4517 145.307 18.2662 145.656 18.0576C146.004 17.8258 146.423 17.6172 146.934 17.3853C147.445 17.1535 148.049 16.9681 148.723 16.829C149.42 16.6667 150.187 16.5972 151.047 16.5972C153.138 16.5972 154.672 17.084 155.694 18.0576C156.716 19.0312 157.228 20.4221 157.228 22.2534V31.2014C157.228 31.4564 157.228 31.665 157.251 31.8041C157.274 31.9432 157.297 32.0359 157.39 32.1054C157.46 32.1518 157.576 32.1982 157.739 32.1982C157.878 32.2213 158.111 32.2213 158.389 32.2213H158.994V34.0758H150.373V32.2213H150.582C150.861 32.2213 151.093 32.2213 151.256 32.1982C151.419 32.1982 151.535 32.1518 151.604 32.1054C151.674 32.0359 151.721 31.9432 151.744 31.8041C151.767 31.665 151.767 31.4564 151.767 31.2014V23.5515C151.767 22.8561 151.744 22.2302 151.721 21.6971C151.697 21.1639 151.604 20.7003 151.442 20.3525C151.279 19.9816 151.047 19.7035 150.745 19.5412C150.443 19.3557 150.001 19.263 149.42 19.263C148.955 19.263 148.491 19.3326 148.072 19.4485C147.654 19.5644 147.259 19.7035 146.911 19.8889C146.585 20.0744 146.283 20.2598 146.028 20.4684C145.772 20.6539 145.563 20.8393 145.4 20.9784V31.2709C145.4 31.5259 145.4 31.7345 145.424 31.8736C145.447 32.0127 145.47 32.1054 145.563 32.175C145.633 32.2213 145.749 32.2677 145.911 32.2677C146.051 32.2909 146.283 32.2909 146.562 32.2909H146.771V34.1454H138.151V32.2909H138.755C139.034 32.2909 139.266 32.2909 139.405 32.2677C139.568 32.2677 139.684 32.2213 139.754 32.175C139.824 32.1054 139.87 32.0127 139.893 31.8736C139.916 31.7345 139.916 31.5259 139.916 31.2709V19.8889C139.916 19.6339 139.916 19.4253 139.893 19.2862C139.893 19.1471 139.847 19.0544 139.754 18.9848C139.684 18.9385 139.568 18.8921 139.405 18.8921C139.243 18.8689 139.034 18.8689 138.755 18.8689H138.151V16.9449H138.127ZM108.571 34.0758H103.412L96.8594 19.8194C96.72 19.5644 96.6271 19.3557 96.5341 19.2167C96.4412 19.0776 96.3483 18.9848 96.2321 18.9153C96.1159 18.8689 95.9765 18.8226 95.7906 18.8226C95.6279 18.7994 95.3956 18.7994 95.14 18.7994H95.1167V16.9449H103.9V18.7994H103.482C103.133 18.7994 102.878 18.7994 102.692 18.8226C102.506 18.8458 102.366 18.9153 102.343 19.0544C102.32 19.1935 102.32 19.3789 102.413 19.6571C102.506 19.9353 102.669 20.3294 102.901 20.8625L107.083 30.5523L111.034 21.0016C111.266 20.4453 111.429 20.0048 111.545 19.7266C111.638 19.4253 111.684 19.2167 111.638 19.0776C111.591 18.9385 111.475 18.8458 111.312 18.8226C111.127 18.7994 110.848 18.7994 110.499 18.7994H110.29V16.9449H116.471V18.7994H115.867C115.658 18.7994 115.495 18.7994 115.356 18.8226C115.216 18.8226 115.123 18.8689 115.054 18.9385C114.984 19.008 114.891 19.1239 114.821 19.263C114.751 19.4021 114.659 19.5876 114.542 19.8194L108.571 34.0758Z" fill="#30302F"></path><mask id="mask0_7691_10455" style="mask-type:luminance" maskUnits="userSpaceOnUse" x="15" y="8" width="31" height="10"><path d="M15.1826 8.48376L30.0771 17.1072L45.1343 8.48376H15.1826Z" fill="white"></path></mask><g mask="url(#mask0_7691_10455)"><path d="M0.542969 11.8688L26.9163 21.3267L59.7493 13.7233L33.3992 4.26532L0.542969 11.8688Z" fill="url(#paint0_linear_7691_10455)"></path></g><mask id="mask1_7691_10455" style="mask-type:luminance" maskUnits="userSpaceOnUse" x="30" y="8" width="16" height="27"><path d="M30.0781 34.2149L45.1353 25.5915V8.48376L30.0781 34.2149Z" fill="white"></path></mask><g mask="url(#mask1_7691_10455)"><path d="M51.6629 14.952L33.8638 -2.68896L23.5469 27.748L41.3459 45.3889L51.6629 14.952Z" fill="url(#paint1_linear_7691_10455)"></path></g><mask id="mask2_7691_10455" style="mask-type:luminance" maskUnits="userSpaceOnUse" x="30" y="8" width="16" height="27"><path d="M30.0781 17.1072V34.2149L45.1353 8.48376L30.0781 17.1072Z" fill="white"></path></mask><g mask="url(#mask2_7691_10455)"><path d="M45.1353 8.48376H30.0781V34.2381H45.1353V8.48376Z" fill="url(#paint2_linear_7691_10455)"></path></g><mask id="mask3_7691_10455" style="mask-type:luminance" maskUnits="userSpaceOnUse" x="15" y="8" width="16" height="27"><path d="M15.1826 25.5915L30.0771 34.2149L15.1826 8.48376V25.5915Z" fill="white"></path></mask><g mask="url(#mask3_7691_10455)"><path d="M7.95801 24.5488L24.4791 46.6869L37.2823 18.1508L20.7845 -3.9873L7.95801 24.5488Z" fill="url(#paint3_linear_7691_10455)"></path></g><mask id="mask4_7691_10455" style="mask-type:luminance" maskUnits="userSpaceOnUse" x="15" y="8" width="16" height="27"><path d="M30.0771 34.2149V17.1072L15.1826 8.48376L30.0771 34.2149Z" fill="white"></path></mask><g mask="url(#mask4_7691_10455)"><path d="M10.3262 31.1327L28.2879 42.5842L34.9103 11.5677L16.9485 0.116211L10.3262 31.1327Z" fill="url(#paint4_linear_7691_10455)"></path></g><mask id="mask5_7691_10455" style="mask-type:luminance" maskUnits="userSpaceOnUse" x="15" y="0" width="31" height="9"><path d="M15.1826 8.48433H45.1343L30.0771 0L15.1826 8.48433Z" fill="white"></path></mask><g mask="url(#mask5_7691_10455)"><path d="M11.6533 8.36876L44.7187 9.48146L48.6689 0.11624L15.6035 -0.99646L11.6533 8.36876Z" fill="url(#paint5_linear_7691_10455)"></path></g><mask id="mask6_7691_10455" style="mask-type:luminance" maskUnits="userSpaceOnUse" x="0" y="8" width="16" height="27"><path d="M0.102539 34.2149L15.183 25.5915V8.48376L0.102539 34.2149Z" fill="white"></path></mask><g mask="url(#mask6_7691_10455)"><path d="M15.1597 8.48376H0.102539V34.2381H15.1597V8.48376Z" fill="url(#paint6_linear_7691_10455)"></path></g><mask id="mask7_7691_10455" style="mask-type:luminance" maskUnits="userSpaceOnUse" x="0" y="34" width="31" height="9"><path d="M0.125776 34.2157H0.102539L15.183 42.7L30.0775 34.2157H0.125776Z" fill="white"></path></mask><g mask="url(#mask7_7691_10455)"><path d="M-11.8652 35.9073L6.0965 46.0838L42.0432 41.0071L24.0815 30.8306L-11.8652 35.9073Z" fill="url(#paint7_linear_7691_10455)"></path></g><mask id="mask8_7691_10455" style="mask-type:luminance" maskUnits="userSpaceOnUse" x="0" y="25" width="31" height="10"><path d="M0.102539 34.2155H30.0775L15.183 25.5921L0.102539 34.2155Z" fill="white"></path></mask><g mask="url(#mask8_7691_10455)"><path d="M6.12051 22.1378L-11.8877 32.4998L24.059 37.6924L42.0672 27.3304L6.12051 22.1378Z" fill="url(#paint8_linear_7691_10455)"></path></g><mask id="mask9_7691_10455" style="mask-type:luminance" maskUnits="userSpaceOnUse" x="0" y="8" width="16" height="27"><path d="M0.102539 17.1072V34.2149L15.183 8.48376L0.102539 17.1072Z" fill="white"></path></mask><g mask="url(#mask9_7691_10455)"><path d="M21.7125 14.952L3.8902 -2.68896L-6.42676 27.748L11.3956 45.3889L21.7125 14.952Z" fill="url(#paint9_linear_7691_10455)"></path></g><defs><linearGradient id="paint0_linear_7691_10455" x1="11.5481" y1="6.12462" x2="15.5415" y2="23.3827" gradientUnits="userSpaceOnUse"><stop stop-color="#5F8F3D"></stop><stop offset="0.453" stop-color="#5F8F3D"></stop><stop offset="1" stop-color="#AACF75"></stop></linearGradient><linearGradient id="paint1_linear_7691_10455" x1="49.4883" y1="33.1299" x2="31.5184" y2="27.0415" gradientUnits="userSpaceOnUse"><stop stop-color="#BF007E"></stop><stop offset="1" stop-color="#471267"></stop></linearGradient><linearGradient id="paint2_linear_7691_10455" x1="37.6008" y1="42.4332" x2="37.6008" y2="13.1386" gradientUnits="userSpaceOnUse"><stop stop-color="#BF007E"></stop><stop offset="1" stop-color="#471267"></stop></linearGradient><linearGradient id="paint3_linear_7691_10455" x1="9.98267" y1="4.38586" x2="46.3369" y2="20.7229" gradientUnits="userSpaceOnUse"><stop stop-color="#FFE200"></stop><stop offset="0.017729" stop-color="#FFDF01"></stop><stop offset="0.3445" stop-color="#F3A412"></stop><stop offset="0.6233" stop-color="#EF7E1E"></stop><stop offset="0.8405" stop-color="#EC6425"></stop><stop offset="0.9693" stop-color="#EB5A28"></stop><stop offset="1" stop-color="#EB5A28"></stop></linearGradient><linearGradient id="paint4_linear_7691_10455" x1="2.27735" y1="8.37518" x2="44.4606" y2="17.3812" gradientUnits="userSpaceOnUse"><stop stop-color="#FFE200"></stop><stop offset="0.017729" stop-color="#FFDF01"></stop><stop offset="0.3445" stop-color="#F3A412"></stop><stop offset="0.6233" stop-color="#EF7E1E"></stop><stop offset="0.8405" stop-color="#EC6425"></stop><stop offset="0.9693" stop-color="#EB5A28"></stop><stop offset="1" stop-color="#EB5A28"></stop></linearGradient><linearGradient id="paint5_linear_7691_10455" x1="7.60993" y1="3.47344" x2="40.9998" y2="17.5738" gradientUnits="userSpaceOnUse"><stop stop-color="#5F8F3D"></stop><stop offset="0.453" stop-color="#5F8F3D"></stop><stop offset="1" stop-color="#AACF75"></stop></linearGradient><linearGradient id="paint6_linear_7691_10455" x1="7.63841" y1="32.9322" x2="7.63841" y2="5.50828" gradientUnits="userSpaceOnUse"><stop stop-color="#BF007E"></stop><stop offset="1" stop-color="#471267"></stop></linearGradient><linearGradient id="paint7_linear_7691_10455" x1="-10.6306" y1="23.8918" x2="-7.36137" y2="47.0198" gradientUnits="userSpaceOnUse"><stop stop-color="#0088A7"></stop><stop offset="1" stop-color="#3ABEDA"></stop></linearGradient><linearGradient id="paint8_linear_7691_10455" x1="24.5904" y1="24.4461" x2="21.1853" y2="48.0204" gradientUnits="userSpaceOnUse"><stop stop-color="#0088A7"></stop><stop offset="1" stop-color="#3ABEDA"></stop></linearGradient><linearGradient id="paint9_linear_7691_10455" x1="14.1773" y1="27.8281" x2="-6.87602" y2="20.6949" gradientUnits="userSpaceOnUse"><stop stop-color="#BF007E"></stop><stop offset="1" stop-color="#471267"></stop></linearGradient></defs></svg>