<svg xmlns="http://www.w3.org/2000/svg" width="83" height="49" viewBox="0 0 83 49" fill="none"><g id="Group 5" opacity="0.79"><path id="Vector" d="M65.5539 13.6681C63.8838 6.96515 57.8218 2 50.6043 2C42.8497 2 36.4401 7.72797 35.3613 15.1802" stroke="#2ABAD9" stroke-width="3" stroke-linecap="round" stroke-linejoin="round"></path><path id="Vector_2" d="M37.2977 21.1835C37.2977 15.5052 32.6936 10.9011 27.0153 10.9011C21.337 10.9011 16.733 15.5052 16.733 21.1835C16.733 21.5581 16.751 21.9283 16.7916 22.2939H16.8097C16.0514 22.1494 15.275 22.0682 14.4761 22.0682C7.58805 22.0682 2 27.6517 2 34.5442C2 41.4368 7.58354 47.0203 14.4761 47.0203H68.5239C75.4119 47.0203 81 41.4368 81 34.5442C81 27.6517 75.4165 22.0682 68.5239 22.0682C63.9379 22.0682 59.9297 24.5417 57.7631 28.225" stroke="#2ABAD9" stroke-width="3" stroke-linecap="round" stroke-linejoin="round"></path></g></svg>