<svg xmlns="http://www.w3.org/2000/svg" width="83" height="64" viewBox="0 0 83 64" fill="none"><g id="Group" opacity="0.79"><path id="Vector" d="M55.1144 2H27.8911C24.9824 2 22.6244 4.35797 22.6244 7.26667V11.7697C22.6244 14.6784 24.9824 17.0363 27.8911 17.0363H55.1144C58.0231 17.0363 60.3811 14.6784 60.3811 11.7697V7.26667C60.3811 4.35797 58.0231 2 55.1144 2Z" stroke="#2ABAD9" stroke-width="3" stroke-linecap="round" stroke-linejoin="round"></path><path id="Vector_2" d="M55.1144 17.0364H27.8911C24.9824 17.0364 22.6244 19.3943 22.6244 22.303V26.806C22.6244 29.7147 24.9824 32.0727 27.8911 32.0727H55.1144C58.0231 32.0727 60.3811 29.7147 60.3811 26.806V22.303C60.3811 19.3943 58.0231 17.0364 55.1144 17.0364Z" stroke="#2ABAD9" stroke-width="3" stroke-linecap="round" stroke-linejoin="round"></path><path id="Vector_3" d="M55.1144 32.078H27.8911C24.9824 32.078 22.6244 34.436 22.6244 37.3447V41.8477C22.6244 44.7564 24.9824 47.1143 27.8911 47.1143H55.1144C58.0231 47.1143 60.3811 44.7564 60.3811 41.8477V37.3447C60.3811 34.436 58.0231 32.078 55.1144 32.078Z" stroke="#2ABAD9" stroke-width="3" stroke-linecap="round" stroke-linejoin="round"></path><path id="Vector_4" d="M33.6001 62.1506H27.8911C24.9944 62.1506 22.6244 59.7806 22.6244 56.8839V52.3809C22.6244 49.4843 24.9944 47.1143 27.8911 47.1143H55.1144C58.0111 47.1143 60.3811 49.4843 60.3811 52.3809V56.8839C60.3811 59.7806 58.0111 62.1506 55.1144 62.1506H49.4054" stroke="#2ABAD9" stroke-width="3" stroke-linecap="round" stroke-linejoin="round"></path><g id="Group_2"><path id="Vector_5" d="M67.8966 9.52087H81.0001V54.6351H67.8966" stroke="#2ABAD9" stroke-width="3" stroke-linecap="round" stroke-linejoin="round"></path><path id="Vector_6" d="M67.8967 20.7969H81.0002" stroke="#2ABAD9" stroke-width="3" stroke-linecap="round" stroke-linejoin="round"></path><path id="Vector_7" d="M67.8967 32.0781H81.0002" stroke="#2ABAD9" stroke-width="3" stroke-linecap="round" stroke-linejoin="round"></path><path id="Vector_8" d="M67.8967 43.354H81.0002" stroke="#2ABAD9" stroke-width="3" stroke-linecap="round" stroke-linejoin="round"></path></g><path id="Vector_9" d="M15.1035 9.52087H2V54.6351H15.1035" stroke="#2ABAD9" stroke-width="3" stroke-linecap="round" stroke-linejoin="round"></path><path id="Vector_10" d="M15.1035 20.7968H2" stroke="#2ABAD9" stroke-width="3" stroke-linecap="round" stroke-linejoin="round"></path><path id="Vector_11" d="M15.1035 32.078H2" stroke="#2ABAD9" stroke-width="3" stroke-linecap="round" stroke-linejoin="round"></path><path id="Vector_12" d="M15.1035 43.3539H2" stroke="#2ABAD9" stroke-width="3" stroke-linecap="round" stroke-linejoin="round"></path><path id="Vector_13" d="M30.1399 9.52087H34.5165" stroke="#2ABAD9" stroke-width="3" stroke-linecap="round" stroke-linejoin="round"></path><path id="Vector_14" d="M41.5 9.52087H45.8766" stroke="#2ABAD9" stroke-width="3" stroke-linecap="round" stroke-linejoin="round"></path><path id="Vector_15" d="M30.1399 24.5571H34.5165" stroke="#2ABAD9" stroke-width="3" stroke-linecap="round" stroke-linejoin="round"></path><path id="Vector_16" d="M41.5 24.5571H45.8766" stroke="#2ABAD9" stroke-width="3" stroke-linecap="round" stroke-linejoin="round"></path><path id="Vector_17" d="M30.1399 39.5934H34.5165" stroke="#2ABAD9" stroke-width="3" stroke-linecap="round" stroke-linejoin="round"></path><path id="Vector_18" d="M41.5 39.5934H45.8766" stroke="#2ABAD9" stroke-width="3" stroke-linecap="round" stroke-linejoin="round"></path><path id="Vector_19" d="M30.1399 54.635H34.5165" stroke="#2ABAD9" stroke-width="3" stroke-linecap="round" stroke-linejoin="round"></path><path id="Vector_20" d="M41.5 54.635H45.8766" stroke="#2ABAD9" stroke-width="3" stroke-linecap="round" stroke-linejoin="round"></path></g></svg>