<svg xmlns="http://www.w3.org/2000/svg" width="47" height="64" viewBox="0 0 47 64" fill="none"><g opacity="0.79"><path d="M26.2445 27.9923H41.2676C43.469 27.9923 45.267 29.7904 45.267 31.9918V58.0007C45.267 60.2021 43.469 62.0002 41.2676 62.0002H5.99945C3.79808 62.0002 2 60.2021 2 58.0007V31.9918C2 29.7904 3.79808 27.9923 5.99945 27.9923H13.6412" stroke="#2ABAD9" stroke-width="3" stroke-linecap="round" stroke-linejoin="round"></path><path d="M23.6357 48.9346V43.9899" stroke="#2ABAD9" stroke-width="3" stroke-linecap="round" stroke-linejoin="round"></path><path d="M27.9251 39.6921C27.9251 42.0657 26.0052 43.9898 23.6358 43.9898C21.2664 43.9898 19.3423 42.0657 19.3423 39.6921C19.3423 37.3185 21.2622 35.3944 23.6358 35.3944C26.0094 35.3944 27.9251 37.3185 27.9251 39.6921Z" stroke="#2ABAD9" stroke-width="3" stroke-linecap="round" stroke-linejoin="round"></path><path d="M8.27649 27.9922V17.3718C8.27649 8.88139 15.1537 2 23.6315 2C32.1093 2 38.9823 8.88139 38.9823 17.3718V27.9922" stroke="#2ABAD9" stroke-width="3" stroke-linecap="round" stroke-linejoin="round"></path><path d="M8.27649 55.8789H38.9865" stroke="#2ABAD9" stroke-width="3" stroke-linecap="round" stroke-linejoin="round"></path></g></svg>