<svg xmlns="http://www.w3.org/2000/svg" xmlns:xlink="http://www.w3.org/1999/xlink" id="Layer_1" data-name="Layer 1" viewBox="0 0 1200 640"><defs><style> .cls-1 { fill: none; } .cls-2 { fill: #231f20; } .cls-3 { clip-path: url(#clippath); } </style><clipPath id="clippath"><rect class="cls-1" x="147.1" y="149.31" width="905.79" height="341.38"></rect></clipPath></defs><g class="cls-3"><path class="cls-2" d="M335.68,203.64c11.91-14.41,19.9-34.41,17.71-54.33-17.12.63-37.86,11.4-50.12,25.78-11.02,12.73-20.68,33.11-18.06,52.62,19.08,1.48,38.61-9.7,50.47-24.07h0ZM424.21,398.93c-.42,1.2-7.16,24.41-23.57,48.4-14.17,20.74-28.9,41.41-52.1,41.83-22.78.43-30.12-13.52-56.15-13.52s-34.21,13.1-55.75,13.95c-22.38.84-39.45-22.43-53.73-43.08-29.24-42.26-51.55-119.41-21.55-171.44,14.86-25.88,41.49-42.25,70.39-42.67,22-.41,42.72,14.77,56.17,14.77s38.63-18.28,65.13-15.6c11.09.47,42.24,4.46,62.24,33.75-1.59,1.01-37.17,21.71-36.78,64.75.46,51.52,45.18,68.65,45.7,68.86h0Z"></path></g><path class="cls-2" d="M537.99,283.71v31.66h20.73c13.48,0,20.72-5.44,20.72-15.77v-.13c0-10.4-7.38-15.76-21.74-15.76h-19.72ZM537.99,243.12v28.98h16.64c13.28,0,20.46-5.37,20.46-15.1v-.13c0-8.86-6.24-13.75-17.11-13.75h-19.99ZM522.97,230.84h38.64c17.17,0,28.44,9.59,28.44,24.22v.13c0,10.2-7.71,19.66-17.91,21.13v.27c13.75,1.41,22.67,10.87,22.67,23.61v.14c0,16.97-12.41,27.3-33.01,27.3h-38.84v-96.8h0Z"></path><path class="cls-2" d="M605.68,302.83v-45.75h14.49v42.93c0,10.67,4.97,16.57,15.03,16.57s16.77-7.31,16.77-18.31v-41.19h14.56v70.57h-14.56v-10.6h-.34c-3.69,7.11-10.87,12.01-21.6,12.01-15.5,0-24.36-10-24.36-26.23h0Z"></path><path class="cls-2" d="M679.17,307.45l-.07-.6h14.36l.13.67c1.34,6.51,6.17,10.33,15.1,10.33s13.95-3.62,13.95-9.33v-.07c0-4.56-2.55-7.18-10.13-8.99l-11.54-2.61c-13.42-3.09-20.06-9.53-20.06-19.79v-.07c0-12.61,11-21.27,27.24-21.27s26.77,9.32,27.5,21.33l.07.81h-13.62l-.07-.47c-.87-6.17-5.7-10.47-13.88-10.47s-12.68,3.69-12.68,9.33v.07c0,4.36,2.88,7.31,10.46,9.12l11.47,2.62c14.43,3.35,19.92,9.06,19.92,19.19v.07c0,12.88-12.07,21.74-28.71,21.74-17.64,0-27.97-8.72-29.45-21.6h0Z"></path><path class="cls-2" d="M750.51,257.07h14.49v70.57h-14.49v-70.57h0ZM749.31,237.89c0-4.63,3.76-8.38,8.45-8.38s8.46,3.76,8.46,8.38-3.7,8.32-8.46,8.32-8.45-3.76-8.45-8.32h0Z"></path><path class="cls-2" d="M781.34,257.07h14.49v10.67h.33c3.7-7.18,10.94-12.01,21.61-12.01,15.5,0,24.42,10,24.42,26.23v45.69h-14.56v-42.93c0-10.6-4.96-16.57-15.03-16.57s-16.77,7.38-16.77,18.38v41.12h-14.49v-70.57h0Z"></path><path class="cls-2" d="M869.05,285.79h35.42c-1.21-12.21-8.05-18.18-17.51-18.18s-16.64,6.37-17.91,18.18h0ZM854.36,292.63v-.07c0-22.07,12.74-36.83,32.53-36.83s31.93,14.22,31.93,35.42v4.9h-49.97c.26,13.35,7.58,21.13,19.11,21.13,8.59,0,14.29-4.43,16.1-9.73l.2-.54h13.74l-.13.74c-2.28,11.2-13.15,21.4-30.25,21.4-20.73,0-33.28-14.16-33.28-36.43h0Z"></path><path class="cls-2" d="M927.7,307.45l-.06-.6h14.35l.13.67c1.34,6.51,6.17,10.33,15.1,10.33s13.95-3.62,13.95-9.33v-.07c0-4.56-2.55-7.18-10.13-8.99l-11.54-2.61c-13.42-3.09-20.05-9.53-20.05-19.79v-.07c0-12.61,11-21.27,27.24-21.27s26.77,9.32,27.5,21.33l.06.81h-13.62l-.07-.47c-.87-6.17-5.7-10.47-13.88-10.47s-12.68,3.69-12.68,9.33v.07c0,4.36,2.88,7.31,10.46,9.12l11.47,2.62c14.42,3.35,19.92,9.06,19.92,19.19v.07c0,12.88-12.07,21.74-28.71,21.74-17.64,0-27.97-8.72-29.45-21.6h0Z"></path><path class="cls-2" d="M994.73,307.45l-.07-.6h14.36l.13.67c1.34,6.51,6.17,10.33,15.09,10.33s13.95-3.62,13.95-9.33v-.07c0-4.56-2.55-7.18-10.13-8.99l-11.54-2.61c-13.42-3.09-20.06-9.53-20.06-19.79v-.07c0-12.61,11-21.27,27.24-21.27s26.76,9.32,27.5,21.33l.07.81h-13.62l-.07-.47c-.87-6.17-5.71-10.47-13.88-10.47s-12.68,3.69-12.68,9.33v.07c0,4.36,2.88,7.31,10.47,9.12l11.47,2.62c14.43,3.35,19.93,9.06,19.93,19.19v.07c0,12.88-12.08,21.74-28.71,21.74-17.65,0-27.98-8.72-29.45-21.6h0Z"></path><path class="cls-2" d="M537.99,405.16v38.44h17.24c13.09,0,20.6-7.04,20.6-19.18v-.14c0-12.08-7.51-19.12-20.6-19.12h-17.24ZM522.97,392.48h36.02c18.99,0,32.14,12.74,32.14,31.73v.13c0,18.92-13.15,31.86-32.14,31.86h-20.99v33.07h-15.03v-96.8h0Z"></path><path class="cls-2" d="M623.02,478.95c10.2,0,17.91-6.91,17.91-16.1v-5.5l-17.24,1.07c-8.72.54-13.55,4.36-13.55,10.33v.13c0,6.17,5.1,10.06,12.88,10.06h0ZM595.52,469.22v-.14c0-12.28,9.52-19.79,26.23-20.79l19.18-1.14v-5.3c0-7.78-5.03-12.48-14.02-12.48-8.39,0-13.55,3.96-14.76,9.59l-.14.6h-13.69l.07-.74c1-12.14,11.54-21.47,28.91-21.47s28.18,9.12,28.18,23.28v48.64h-14.56v-11.14h-.27c-4.09,7.58-12.28,12.41-21.6,12.41-14.09,0-23.55-8.65-23.55-21.33h0Z"></path><path class="cls-2" d="M670.88,418.71h14.49v12.08h.34c2.28-8.25,8.18-13.42,16.23-13.42,2.08,0,3.9.34,5.03.54v13.49c-1.14-.47-3.69-.81-6.5-.81-9.33,0-15.1,6.1-15.1,16.64v42.06h-14.49v-70.57h0Z"></path><path class="cls-2" d="M724.51,470.7v-40.45h-10.12v-11.54h10.12v-18.38h14.83v18.38h13.22v11.54h-13.22v39.58c0,7.18,3.22,9.33,9.33,9.33,1.55,0,2.82-.14,3.9-.27v11.2c-1.68.27-4.43.61-7.39.61-13.95,0-20.66-5.9-20.66-19.99h0Z"></path><path class="cls-2" d="M765.87,418.71h14.49v10.67h.33c3.69-7.18,10.93-12.01,21.61-12.01,15.5,0,24.42,10,24.42,26.23v45.69h-14.56v-42.93c0-10.6-4.97-16.57-15.03-16.57s-16.77,7.38-16.77,18.38v41.12h-14.49v-70.57h0Z"></path><path class="cls-2" d="M852.22,447.42h35.42c-1.21-12.21-8.05-18.18-17.51-18.18s-16.64,6.37-17.91,18.18h0ZM837.52,454.26v-.07c0-22.07,12.75-36.83,32.54-36.83s31.93,14.22,31.93,35.42v4.9h-49.98c.26,13.35,7.58,21.13,19.12,21.13,8.59,0,14.29-4.43,16.1-9.73l.2-.54h13.75l-.13.74c-2.28,11.2-13.15,21.4-30.26,21.4-20.73,0-33.28-14.16-33.28-36.43h0Z"></path><path class="cls-2" d="M914.57,418.71h14.49v12.08h.33c2.28-8.25,8.18-13.42,16.24-13.42,2.07,0,3.88.34,5.03.54v13.49c-1.14-.47-3.69-.81-6.51-.81-9.32,0-15.09,6.1-15.09,16.64v42.06h-14.49v-70.57h0Z"></path></svg>