<svg xmlns="http://www.w3.org/2000/svg" id="Layer_33" data-name="Layer 33" viewBox="0 0 200.01 200.01"><defs><style> .cls-1 { fill: none; stroke: #c6218e; stroke-linecap: round; stroke-linejoin: round; stroke-width: 6px; } .cls-2 { fill: #ca1684; } </style></defs><path class="cls-1" d="M86.48,145.08h23.58c4.99,0,9.04-4.05,9.04-9.04h0c0-4.99-4.05-9.04-9.04-9.04h-52.62c-3.17,0-6.23,1.13-8.64,3.2l-24.04,20.61"></path><path class="cls-1" d="M137.5,129.41l24.52-12.82c4.42-2.31,9.88-.6,12.2,3.82h0c2.31,4.42.6,9.88-3.82,12.2l-54.05,29.59c-1.67.91-3.52,1.46-5.42,1.6l-48.49,3.52c-2.16.16-4.25.84-6.09,1.98l-13.07,8.12"></path><path class="cls-2" d="M88.29,78.47c0-3.52-.99-7.15-2.86-10.78h-8.69c-1.7,0-3.08-1.38-3.08-3.08h0c0-1.7,1.38-3.08,3.08-3.08h5.94c-1.98-3.63-5.17-9.46-5.17-16.72,0-13.09,10.23-22.22,24.09-22.22,12.1,0,19.38,4.72,21.76,16.32.4,1.96-.99,3.85-2.99,4.05h0c-1.73.17-3.29-1-3.64-2.7-1.58-7.63-5.43-11.29-15.02-11.29s-16.83,4.95-16.83,15.18c0,6.93,3.19,13.2,5.17,17.38h23.1c1.7,0,3.08,1.38,3.08,3.08h0c0,1.7-1.38,3.08-3.08,3.08h-20.46c1.65,3.74,2.42,7.37,2.42,10.89,0,6.82-2.97,13.09-8.47,18.48h21.67c7.16,0,10.26-2.65,11.96-9.17.47-1.81,2.31-2.92,4.14-2.54h0c1.93.41,3.18,2.32,2.73,4.24-2.36,9.96-8.64,14.06-18.94,14.06h-32.12c-1.82,0-3.3-1.48-3.3-3.3h0c0-1.82,1.48-3.3,3.3-3.3h2.53c6.49-5.94,9.68-12.1,9.68-18.59Z"></path></svg>