<svg xmlns="http://www.w3.org/2000/svg" id="Layer_1" data-name="Layer 1" viewBox="0 0 200 200"><defs><style> .cls-1 { fill: none; stroke: #D76AB3; stroke-linecap: round; stroke-linejoin: round; stroke-width: 6px; } </style></defs><g><circle class="cls-1" cx="100" cy="54.13" r="29.13"></circle><path class="cls-1" d="m148.16,138.06c-4.73-22.26-24.49-38.96-48.16-38.96s-43.43,16.7-48.16,38.96"></path></g><g><path class="cls-1" d="m100,140.56c5.03,0,9.1,4.07,9.1,9.1s-4.07,9.1-9.1,9.1-9.1-4.07-9.1-9.1"></path><path class="cls-1" d="m89.74,167.25l-3.92,3.92-6.97-6.97,3.92-3.92c-.98-1.64-1.73-3.43-2.21-5.33h-5.54v-9.86h5.54c.48-1.9,1.23-3.69,2.21-5.33l-3.92-3.92,6.97-6.97,3.92,3.92c1.64-.98,3.43-1.73,5.33-2.21v-5.54h9.86v5.54c1.9.48,3.69,1.23,5.33,2.21l3.92-3.92,6.97,6.97-3.92,3.92c.98,1.64,1.73,3.43,2.21,5.33h5.54v9.86h-5.54c-.48,1.9-1.23,3.69-2.21,5.33l3.92,3.92-6.97,6.97-3.92-3.92c-1.64.98-3.43,1.73-5.33,2.21v5.54h-9.86v-5.54c-1.9-.48-3.69-1.23-5.33-2.21Z"></path></g></svg>