<svg xmlns="http://www.w3.org/2000/svg" id="Layer_1" data-name="Layer 1" viewBox="0 0 200 200"><defs><style> .cls-1 { fill: none; stroke: #4f0077; stroke-linecap: round; stroke-linejoin: round; stroke-width: 6px; } </style></defs><path class="cls-1" d="m87.47,142.16h21.85c4.62,0,8.37-3.75,8.37-8.37h0c0-4.62-3.75-8.37-8.37-8.37h-48.76c-2.94,0-5.77,1.05-8,2.96l-22.28,19.1"></path><path class="cls-1" d="m134.74,127.65l22.72-11.88c4.1-2.14,9.16-.56,11.3,3.54h0c2.14,4.1.56,9.16-3.54,11.3l-50.08,27.42c-1.55.85-3.26,1.35-5.02,1.48l-44.93,3.26c-2,.15-3.94.77-5.64,1.83l-12.11,7.53"></path><path class="cls-1" d="m100.53,53.44c7.54,0,13.65,6.11,13.65,13.65s-6.11,13.65-13.65,13.65-13.65-6.11-13.65-13.65"></path><path class="cls-1" d="m85.14,93.49l-5.88,5.88-10.46-10.46,5.88-5.88c-1.47-2.46-2.59-5.14-3.31-7.99h-8.32v-14.79h8.32c.72-2.85,1.85-5.53,3.31-7.99l-5.88-5.88,10.46-10.46,5.88,5.88c2.46-1.47,5.15-2.59,8-3.31v-8.32h14.79v8.32c2.85.72,5.53,1.85,7.99,3.31l5.88-5.88,10.46,10.46-5.88,5.88c1.47,2.46,2.6,5.14,3.32,7.99h8.31v14.79h-8.31c-.72,2.85-1.85,5.53-3.32,7.99l5.88,5.88-10.46,10.46-5.88-5.88c-2.46,1.47-5.14,2.59-7.99,3.31v8.32h-14.79v-8.32c-2.85-.72-5.54-1.85-8-3.31Z"></path></svg>