<svg xmlns="http://www.w3.org/2000/svg" id="Layer_1" data-name="Layer 1" viewBox="0 0 200 200"><defs><style> .cls-1 { fill: none; stroke: #4f0077; stroke-linecap: round; stroke-linejoin: round; stroke-width: 6px; } </style></defs><path class="cls-1" d="m124.18,153.08l22.29.44-.39,21.48M74.66,46.92h-21.91v-21.92m-.03,21.88c12.55-11.23,29.13-18.06,47.29-18.06,39.19,0,70.97,31.8,70.97,71.02,0,12.26-3.11,23.79-8.56,33.85m-15.93,19.82c-12.45,10.8-28.7,17.34-46.47,17.34-39.2,0-70.97-31.8-70.97-71.02,0-13.15,3.57-25.46,9.8-36.02m49.88,33.43c2.26,3.9,6.46,6.53,11.29,6.53s9.03-2.63,11.28-6.53m-11.28-17.13v72.09m-32.7-46.63c0-36.2,32.7-54.69,32.7-54.69,0,0,32.7,18.49,32.7,54.69,0,14.92-14.64,31.15-32.7,31.15s-32.7-16.23-32.7-31.15Z"></path></svg>