<svg xmlns="http://www.w3.org/2000/svg" id="Layer_1" data-name="Layer 1" viewBox="0 0 200 200"><defs><style> .cls-1 { fill: none; stroke: #cb0084; stroke-linecap: round; stroke-linejoin: round; stroke-width: 6px; } </style></defs><path class="cls-1" d="m52.91,44.43l5.41,5.42m-25.18,42.43h7.63m119.89,0h6.21m-23.76-42.43l4.69-4.71m-47.08-12.87v-7.27m20.27,111.33v-10.84c11.16-7.01,18.59-19.43,18.59-33.59,0-22.53-18.78-40.66-41.52-39.57-19.82.95-36.21,17.03-37.54,36.85-1.02,15.29,6.63,28.87,18.5,36.32v10.84m20.99-26.74l17.28-17.3m-17.28,44.04v-26.74l-17.28-17.3m-2.35,62.98h39.25m-35.49,0v11.15l8.41,8.58h16.33l8.41-8.58v-11.15"></path></svg>