<svg xmlns="http://www.w3.org/2000/svg" id="Layer_1" data-name="Layer 1" viewBox="0 0 200 200"><defs><style> .cls-1 { stroke: #D76AB3; } .cls-1, .cls-2 { fill: none; stroke-linecap: round; stroke-linejoin: round; stroke-width: 6px; } .cls-2 { stroke: #D76AB3; } </style></defs><path class="cls-2" d="M125.7,156.41l23.69.47-.41,22.83M73.07,43.59h-23.29v-23.3M49.74,43.54c13.34-11.94,30.96-19.19,50.26-19.19,41.65,0,75.43,33.79,75.43,75.49,0,13.03-3.3,25.29-9.1,35.98M149.39,156.88c-13.24,11.48-30.5,18.43-49.39,18.43-41.66,0-75.43-33.79-75.43-75.49,0-13.98,3.8-27.06,10.41-38.29"></path><g><path class="cls-1" d="M100,84.2c8.73,0,15.8,7.07,15.8,15.8s-7.07,15.8-15.8,15.8-15.8-7.07-15.8-15.8"></path><path class="cls-1" d="M82.19,129.91l-6.81,6.81-12.1-12.1,6.81-6.81c-1.7-2.85-3-5.95-3.84-9.25h-9.62v-17.12h9.62c.83-3.3,2.14-6.4,3.84-9.25l-6.81-6.81,12.1-12.1,6.81,6.81c2.85-1.7,5.96-3,9.25-3.84v-9.62h17.12v9.62c3.3.83,6.4,2.14,9.25,3.84l6.81-6.81,12.1,12.1-6.81,6.81c1.7,2.85,3.01,5.95,3.84,9.25h9.62v17.12h-9.62c-.83,3.3-2.14,6.4-3.84,9.25l6.81,6.81-12.1,12.1-6.81-6.81c-2.85,1.7-5.95,3-9.25,3.84v9.62h-17.12v-9.62c-3.3-.83-6.41-2.14-9.25-3.84Z"></path></g></svg>