<svg xmlns="http://www.w3.org/2000/svg" id="Layer_1" data-name="Layer 1" viewBox="0 0 200 200"><defs><style> .cls-1 { fill: none; stroke: #cb0084; stroke-linecap: round; stroke-linejoin: round; stroke-width: 6px; } </style></defs><path class="cls-1" d="m155.03,80.03c0,30.39-24.64,55.03-55.03,55.03s-55.03-24.64-55.03-55.03,24.64-55.03,55.03-55.03c20.49,0,38.37,11.2,47.84,27.82"></path><g><rect class="cls-1" x="73.31" y="68.87" width="15.88" height="34.43"></rect><path class="cls-1" d="m89.2,103.3h29.41c2.9,0,5.38-2.09,5.88-4.94l3.91-22.48c.64-3.66-2.18-7.01-5.89-7.01h-16.12s-.03-.02-.02-.03l7.64-9.64c2.29-2.89,2-7.17-.85-9.5s-7.15-1.9-9.46,1.02l-14.39,18.16h-.1v.13"></path></g><path class="cls-1" d="m138.63,119.22c-8.24,8.13-19.04,13.66-31.07,15.32l24.71,40.46,7.32-21.12,22.13,3.14-23.08-37.8Z"></path><path class="cls-1" d="m61.37,119.22l-23.08,37.8,22.13-3.14,7.32,21.12,24.71-40.46c-12.04-1.65-22.83-7.19-31.07-15.31Z"></path></svg>