<svg xmlns="http://www.w3.org/2000/svg" id="Layer_1" data-name="Layer 1" viewBox="0 0 200 200"><defs><style> .cls-1 { fill: none; stroke: #4f0077; stroke-linecap: round; stroke-linejoin: round; stroke-width: 6px; } </style></defs><g><line class="cls-1" x1="83.35" y1="63.11" x2="125.94" y2="63.11"></line><line class="cls-1" x1="83.35" y1="79.76" x2="125.94" y2="79.76"></line><line class="cls-1" x1="83.35" y1="96.4" x2="125.94" y2="96.4"></line><line class="cls-1" x1="83.35" y1="113.05" x2="92.91" y2="113.05"></line><line class="cls-1" x1="83.35" y1="129.7" x2="99.54" y2="129.7"></line><g><g><path class="cls-1" d="m112.99,130.94l-5.34-17.89,17.89,5.34,54.41,54.41,6.85,6.85c1.52,1.52,1.52,3.99,0,5.51l-7.04,7.04c-1.52,1.52-3.99,1.52-5.51,0l-61.26-61.26Z"></path><line class="cls-1" x1="179.48" y1="172.34" x2="166.94" y2="184.89"></line></g><path class="cls-1" d="m112.99,130.94l-5.34-17.89,17.89,5.34,54.41,54.41,6.85,6.85c1.52,1.52,1.52,3.99,0,5.51l-7.04,7.04c-1.52,1.52-3.99,1.52-5.51,0l-61.26-61.26Z"></path></g><polyline class="cls-1" points="126.18 164.61 52.65 164.61 52.65 41.28 149.31 41.28 149.31 121.69"></polyline></g><line class="cls-1" x1="69.14" y1="63.33" x2="68.14" y2="63.33"></line><line class="cls-1" x1="69.14" y1="79.76" x2="68.14" y2="79.76"></line><line class="cls-1" x1="69.14" y1="96.18" x2="68.14" y2="96.18"></line><line class="cls-1" x1="69.14" y1="112.61" x2="68.14" y2="112.61"></line><line class="cls-1" x1="69.14" y1="129.03" x2="68.14" y2="129.03"></line></svg>