<svg xmlns="http://www.w3.org/2000/svg" id="Layer_2" data-name="Layer 2" viewBox="0 0 784.33 414.2"><defs><style> .cls-1 { fill: #fff; } </style></defs><g id="uuid-4d986997-824b-4b58-af91-319c6bb3e177"><g id="uuid-6abd337a-f4ba-4fc6-a1d2-450744510c96"><g id="uuid-f7b2ff70-a732-47c7-a743-afe23a9a919f"><path class="cls-1" d="M784.33,128.91c0-9.41-7.62-17.03-17.03-17.03s-17.03,7.62-17.03,17.03h0v35.83c0,9.41,7.62,17.03,17.03,17.03s17.03-7.62,17.03-17.03h0v-35.83ZM690.58,82.06c-.23-9.46-8.08-16.94-17.54-16.71-9.14.22-16.49,7.57-16.71,16.71v82.68c.23,9.46,8.08,16.94,17.54,16.71,9.14-.22,16.49-7.57,16.71-16.71h0v-82.68ZM596.79,17.79c.4-9.41-6.91-17.37-16.32-17.77s-17.37,6.91-17.77,16.32h0v182.39c-.41,9.41,6.89,17.38,16.3,17.79,9.41.41,17.38-6.89,17.79-16.3V17.79ZM502.89,82.06c.4-9.39-6.89-17.32-16.28-17.72-9.39-.4-17.32,6.89-17.72,16.28v84.12c-.4,9.39,6.89,17.32,16.28,17.72,9.39.4,17.32-6.89,17.72-16.28v-84.12ZM408.95,128.91c.4-9.39-6.89-17.32-16.28-17.73-9.39-.4-17.32,6.89-17.72,16.28v37.28c-.4,9.39,6.89,17.32,16.28,17.72,9.39.4,17.32-6.89,17.72-16.28v-37.27ZM315.41,82.06c0-9.42-7.65-17.06-17.07-17.05-9.42,0-17.05,7.64-17.05,17.05h0v82.68c0,9.42,7.65,17.06,17.07,17.05,9.42,0,17.05-7.64,17.05-17.05v-82.68ZM221.69,17.79c-.4-9.43-8.36-16.75-17.79-16.36-8.88.37-15.99,7.48-16.36,16.36v180.94c-.41,9.43,6.9,17.41,16.33,17.82s17.41-6.9,17.82-16.33v-1.45s0-180.98,0-180.98ZM127.87,82.06c-.4-9.43-8.36-16.75-17.79-16.36-8.88.37-15.99,7.48-16.36,16.36v82.68c.4,9.43,8.36,16.75,17.79,16.36,8.88-.37,15.99-7.48,16.36-16.36v-82.68ZM34.06,164.74c0,9.41-7.62,17.03-17.03,17.03S0,174.14,0,164.74v-35.83c0-9.41,7.62-17.03,17.03-17.03s17.03,7.62,17.03,17.03h0v35.83Z"></path><path class="cls-1" d="M386.52,277.29c-10.97-2.8-22.25-4.26-33.57-4.37-31.74,0-50.91,17.22-50.91,42.73,0,22.58,16.06,33.88,35.13,39.92,2.26.58,5.34,1.62,7.48,2.32,8.51,2.71,15.26,6.65,15.26,13.61,0,7.69-8,12.63-25.12,12.63-10.91-.3-21.74-1.98-32.23-5v31.37c12.23,2.37,24.65,3.61,37.11,3.7,26.37,0,56.4-11.48,56.4-45.78,0-16.48-10.1-31.74-32.41-38.91l-9.52-3.06c-5.65-1.89-15.78-4.63-15.78-13.09,0-6.53,7.54-11.17,21.36-11.17,9.08.37,18.08,1.8,26.83,4.24l-.03-29.14ZM677.12,343.54c-.26,19.54-16.32,35.17-35.86,34.91s-35.17-16.32-34.91-35.86,16.32-35.17,35.86-34.91c19.17.26,34.65,15.74,34.91,34.91v.95M641.59,272.95c-41.9,0-72,31.62-72,70.59s30.06,70.53,72,70.53,72-31.61,72-70.53-30-70.59-72-70.59M174.45,277.87c-10.13-3.22-20.69-4.88-31.32-4.92-41.93,0-72.54,29.88-72.54,70.59,0,43.86,33.91,70.53,72.54,70.53,10.62-.09,21.17-1.73,31.32-4.85v-36.59c-8.86,4.75-18.76,7.22-28.81,7.2-23,0-37.69-16.2-37.69-36.38s15.25-36.28,37.69-36.28c10.05-.06,19.96,2.41,28.81,7.17v-36.47ZM533.45,277.87c-10.16-3.19-20.73-4.85-31.38-4.92-41.9,0-72.72,29.88-72.72,70.59,0,43.86,34.12,70.53,72.72,70.53,10.64-.11,21.22-1.74,31.4-4.85v-36.59c-8.93,4.75-18.89,7.23-29,7.2-22.85,0-37.63-16.2-37.63-36.38s15.42-36.28,37.63-36.28c10.11-.05,20.08,2.41,29,7.17l-.02-36.47ZM256.17,411.66h-34.45v-136.26h34.45v136.26Z"></path></g></g></g></svg>