<svg xmlns="http://www.w3.org/2000/svg" id="svgContent" viewBox="0 0 400 360"><defs><style> .cls-1, .cls-2 { isolation: isolate; } .cls-2 { fill: #005073; font-family: ArialMT, Arial; font-size: 24.65px; } .cls-3 { fill: #00bceb; } </style></defs><g><g><g><rect class="cls-3" x="139.33" y="116.44" width="12.39" height="48.62"></rect><path class="cls-3" d="M250.57,130.43c-.46-.23-4.36-2.52-10.32-2.52-8.03,0-13.53,5.5-13.53,13.07s5.28,13.07,13.53,13.07c5.73,0,9.86-2.29,10.32-2.52v13.07c-1.61.46-5.73,1.83-11.24,1.83-13.76,0-25.92-9.63-25.92-25.23,0-14.45,11.01-25.23,25.92-25.23,5.73,0,10.09,1.38,11.24,1.83v12.61Z"></path><path class="cls-3" d="M122.36,130.43c-.46-.23-4.36-2.52-10.32-2.52-8.03,0-13.53,5.5-13.53,13.07s5.28,13.07,13.53,13.07c5.73,0,9.86-2.29,10.32-2.52v13.07c-1.61.46-5.73,1.83-11.24,1.83-13.76,0-25.92-9.63-25.92-25.23,0-14.45,11.01-25.23,25.92-25.23,5.73,0,10.09,1.38,11.24,1.83v12.61Z"></path><path class="cls-3" d="M314.11,140.75c0,13.53-10.32,24.31-24.77,24.31s-24.77-10.78-24.77-24.31,10.32-24.31,24.77-24.31,24.77,10.78,24.77,24.31ZM289.11,128.36c-7.11,0-12.16,5.5-12.16,12.39s5.28,12.39,12.16,12.39,12.16-5.5,12.16-12.39c.23-6.88-5.05-12.39-12.16-12.39Z"></path><path class="cls-3" d="M198.05,127.44c-.23,0-5.28-1.38-9.63-1.38-4.82,0-7.57,1.61-7.57,3.9,0,2.98,3.67,3.9,5.73,4.59l3.44,1.15c8.03,2.52,11.7,8.03,11.7,13.99,0,12.16-10.78,16.28-20.18,16.28-6.42,0-12.61-1.15-13.3-1.38v-11.24c1.15.23,6.19,1.83,11.7,1.83,6.19,0,8.94-1.83,8.94-4.59,0-2.52-2.52-3.9-5.5-4.82-.69-.23-1.83-.69-2.52-.92-6.88-2.06-12.61-6.19-12.61-14.22,0-9.17,6.88-15.14,18.12-15.14,5.96,0,11.7,1.38,11.93,1.61v10.32h-.23Z"></path></g><g><path class="cls-3" d="M72.36,64.14c0-3.44-2.75-5.96-6.19-5.96s-6.19,2.75-6.19,5.96v12.84c0,3.44,2.75,6.19,6.19,6.19s6.19-2.75,6.19-6.19v-12.84Z"></path><path class="cls-3" d="M105.85,47.4c0-3.44-2.75-5.96-6.19-5.96s-6.19,2.75-6.19,5.96v29.59c0,3.44,2.75,6.19,6.19,6.19s6.19-2.75,6.19-6.19v-29.59Z"></path><path class="cls-3" d="M139.33,24.46c0-3.44-2.75-5.96-6.19-5.96s-6.19,2.75-6.19,5.96v64.68c0,3.44,2.75,6.19,6.19,6.19s6.19-2.75,6.19-6.19V24.46Z"></path><path class="cls-3" d="M172.82,47.4c0-3.44-2.75-5.96-6.19-5.96s-6.19,2.75-6.19,5.96v29.59c0,3.44,2.75,6.19,6.19,6.19s6.19-2.75,6.19-6.19v-29.59Z"></path><path class="cls-3" d="M206.08,64.14c0-3.44-2.75-5.96-5.96-5.96-3.44,0-6.19,2.75-6.19,5.96v12.84c0,3.44,2.75,6.19,6.19,6.19s5.96-2.75,5.96-6.19v-12.84Z"></path><path class="cls-3" d="M239.79,47.4c0-3.44-2.75-5.96-5.96-5.96-3.44,0-5.96,2.75-5.96,5.96v29.59c0,3.44,2.75,6.19,5.96,6.19,3.44,0,5.96-2.75,5.96-6.19v-29.59Z"></path><path class="cls-3" d="M273.28,24.46c0-3.44-2.75-5.96-5.96-5.96-3.44,0-5.96,2.75-5.96,5.96v64.68c0,3.44,2.75,6.19,5.96,6.19,3.44,0,5.96-2.75,5.96-6.19V24.46Z"></path><path class="cls-3" d="M306.77,47.4c0-3.44-2.75-5.96-6.19-5.96s-5.96,2.75-5.96,5.96v29.59c0,3.44,2.75,6.19,5.96,6.19,3.44,0,6.19-2.75,6.19-6.19v-29.59Z"></path><path class="cls-3" d="M340.02,64.14c0-3.44-2.75-5.96-5.96-5.96-3.44,0-6.19,2.75-6.19,5.96v12.84c0,3.44,2.75,6.19,6.19,6.19s5.96-2.75,5.96-6.19v-12.84Z"></path></g></g><g><path class="cls-3" d="M120.76,206.8h11.93c4.59,0,8.03,1.15,10.55,3.44,2.06,2.06,2.98,4.82,2.98,8.26,0,3.9-1.38,6.65-4.13,8.72-2.29,1.61-5.5,2.52-9.63,2.52h-7.8v13.53h-3.9v-36.47ZM132.91,210.01h-8.26v16.28h8.03c3.44,0,5.73-.69,7.34-2.29,1.38-1.38,2.06-3.21,2.06-5.5,0-2.75-.92-5.05-2.75-6.42-1.38-1.38-3.67-2.06-6.42-2.06Z"></path><path class="cls-3" d="M154.7,224h-3.9c.23-2.52,1.38-4.59,3.67-5.96,1.83-1.15,4.36-1.83,7.11-1.83,3.44,0,5.96.92,7.8,2.75,1.61,1.61,2.29,3.67,2.29,6.19v18.12h-2.98l-.46-3.9c-2.06,3.21-5.05,4.82-9.17,4.82-2.98,0-5.28-.69-6.88-2.29-1.38-1.38-2.06-2.98-2.06-5.05,0-2.52.92-4.59,2.52-5.96,1.61-1.15,4.13-2.06,7.34-2.75l7.8-1.38v-1.83c0-1.83-.69-3.21-2.06-4.36-1.15-.92-2.75-1.38-4.59-1.38-2.06,0-3.67.46-4.82,1.61-.69.69-1.38,1.83-1.61,3.21ZM168,233.64v-4.13l-6.88,1.15c-2.75.46-4.82,1.15-5.73,2.29-.92.69-1.38,1.83-1.38,3.21,0,1.61.69,2.75,1.83,3.67.92.69,2.29,1.15,4.13,1.15,2.29,0,4.13-.69,5.73-2.29,1.61-1.61,2.29-3.21,2.29-5.05Z"></path><path class="cls-3" d="M182.68,243.04h-3.67v-26.15h2.98l.46,4.59c1.38-3.44,3.67-5.28,7.11-5.28.92,0,1.83.23,2.75.46v3.67c-1.15-.23-2.06-.46-2.98-.46-2.06,0-3.67.92-5.05,2.75-1.15,1.61-1.83,3.9-1.83,6.88v13.53h.23Z"></path><path class="cls-3" d="M207.22,220.1h-5.96v17.2c0,2.29,1.15,3.21,3.21,3.21.92,0,2.06-.23,2.98-.46v3.21c-1.15.23-2.29.46-3.44.46-2.29,0-3.9-.69-5.05-2.06-.92-1.15-1.38-2.75-1.38-4.59v-17.2h-3.9v-3.21h3.9l.23-6.42h3.44v6.42h5.96v3.44h0Z"></path><path class="cls-3" d="M215.94,243.04h-3.67v-26.15h2.98l.46,3.9c.92-1.38,2.06-2.52,3.44-3.44s2.98-1.15,4.82-1.15c2.98,0,5.28.92,7.11,2.75,1.38,1.61,2.06,3.9,2.06,6.65v17.43h-3.67v-17.43c0-2.29-.69-3.9-1.83-5.05-1.15-.92-2.52-1.38-4.36-1.38-2.06,0-3.9.69-5.28,2.29-1.38,1.38-2.06,3.21-2.06,5.28v16.28Z"></path><path class="cls-3" d="M259.06,235.7h4.13c-.69,2.52-2.06,4.59-4.36,6.19-2.06,1.38-4.36,2.06-7.11,2.06-4.13,0-7.11-1.38-9.4-4.13-2.06-2.52-3.21-5.73-3.21-9.86,0-4.82,1.38-8.26,3.9-10.78,2.29-2.06,5.05-2.98,8.26-2.98,3.9,0,6.88,1.38,9.17,3.9,2.06,2.52,2.98,6.19,2.98,10.78h-20.41c.23,3.44,1.15,5.96,2.98,7.8,1.61,1.38,3.44,2.06,5.96,2.06,1.83,0,3.44-.46,4.82-1.61.92-.92,1.83-2.06,2.29-3.44ZM251.26,219.19c-2.52,0-4.36.92-5.96,2.52-1.38,1.61-2.29,3.67-2.52,6.19h16.51c-.23-2.98-1.15-5.28-2.75-6.88-1.38-1.38-2.98-1.83-5.28-1.83Z"></path><path class="cls-3" d="M273.28,243.04h-3.67v-26.15h2.98l.46,4.59c1.38-3.44,3.67-5.28,7.11-5.28.92,0,1.83.23,2.75.46v3.67c-1.15-.23-2.06-.46-2.98-.46-2.06,0-3.67.92-5.05,2.75-1.15,1.61-1.83,3.9-1.83,6.88v13.53h.23Z"></path></g></g><g class="cls-1"><text class="cls-2" transform="translate(120.18 298.29)"><tspan x="0" y="0">Gold Provider</tspan></text></g><g class="cls-1"><text class="cls-2" transform="translate(96.22 333.5)"><tspan x="0" y="0">Premier Integrator</tspan></text></g></svg>