<svg xmlns="http://www.w3.org/2000/svg" id="Layer_2" data-name="Layer 2" viewBox="0 0 429.95 429.95"><defs><style> .cls-1 { fill: #fff; } </style></defs><g id="Layer_1-2" data-name="Layer 1"><path class="cls-1" d="M214.98,429.95c-2.14,0-4.27-.04-6.39-.1l43.93-120.74h60.46c10.61,0,22.26-8.16,25.89-18.12l47.66-130.93c7.79-21.44-4.48-38.97-27.29-38.97h-83.88l-70.37,193.4h-.03l-39.9,109.63C70.4,401.61,0,316.52,0,214.98S66.4,33.26,156.93,7.93l-41.17,113.15h0l-68.44,188.01h45.56l58.2-159.77h34.24l-58.2,159.77h45.54l54.24-149.05c7.8-21.44-4.48-38.97-27.26-38.97h-38.3L205.31.23c3.2-.14,6.42-.23,9.66-.23,118.72,0,214.98,96.25,214.98,214.98s-96.25,214.98-214.98,214.98ZM345.05,149.23h-34.23l-47.94,131.53h34.24l47.94-131.53h0Z"></path></g></svg>