<svg xmlns="http://www.w3.org/2000/svg" id="svgContent" viewBox="0 0 400 320"><defs><style> .st0, .st1 { isolation: isolate; } .st1 { fill: #005073; font-family: ArialMT, Arial; font-size: 21.1px; } .st2 { fill: #00bceb; } </style></defs><g><g><g><rect class="st2" x="143.8" y="114.6" width="12.4" height="48.6"></rect><path class="st2" d="M255,128.6c-.5-.2-4.4-2.5-10.3-2.5s-13.5,5.5-13.5,13.1,5.3,13.1,13.5,13.1,9.9-2.3,10.3-2.5v13.1c-1.6.5-5.7,1.8-11.2,1.8-13.8,0-25.9-9.6-25.9-25.2s11-25.2,25.9-25.2,10.1,1.4,11.2,1.8v12.6h0Z"></path><path class="st2" d="M126.8,128.6c-.5-.2-4.4-2.5-10.3-2.5s-13.5,5.5-13.5,13.1,5.3,13.1,13.5,13.1,9.9-2.3,10.3-2.5v13.1c-1.6.5-5.7,1.8-11.2,1.8-13.8,0-25.9-9.6-25.9-25.2s11-25.2,25.9-25.2,10.1,1.4,11.2,1.8v12.6h0Z"></path><path class="st2" d="M318.5,138.9c0,13.5-10.3,24.3-24.8,24.3s-24.8-10.8-24.8-24.3,10.3-24.3,24.8-24.3,24.8,10.8,24.8,24.3ZM293.5,126.5c-7.1,0-12.2,5.5-12.2,12.4s5.3,12.4,12.2,12.4,12.2-5.5,12.2-12.4c.2-6.9-5-12.4-12.2-12.4Z"></path><path class="st2" d="M202.5,125.6c-.2,0-5.3-1.4-9.6-1.4s-7.6,1.6-7.6,3.9,3.7,3.9,5.7,4.6l3.4,1.2c8,2.5,11.7,8,11.7,14,0,12.2-10.8,16.3-20.2,16.3s-12.6-1.1-13.3-1.4v-11.2c1.1.2,6.2,1.8,11.7,1.8s8.9-1.8,8.9-4.6-2.5-3.9-5.5-4.8c-.7-.2-1.8-.7-2.5-.9-6.9-2.1-12.6-6.2-12.6-14.2s6.9-15.1,18.1-15.1,11.7,1.4,11.9,1.6v10.3h-.2Z"></path></g><g><path class="st2" d="M76.8,62.3c0-3.4-2.8-6-6.2-6s-6.2,2.8-6.2,6v12.8c0,3.4,2.8,6.2,6.2,6.2s6.2-2.8,6.2-6.2v-12.8Z"></path><path class="st2" d="M110.3,45.6c0-3.4-2.8-6-6.2-6s-6.2,2.8-6.2,6v29.6c0,3.4,2.8,6.2,6.2,6.2s6.2-2.8,6.2-6.2v-29.6Z"></path><path class="st2" d="M143.8,22.6c0-3.4-2.8-6-6.2-6s-6.2,2.8-6.2,6v64.7c0,3.4,2.8,6.2,6.2,6.2s6.2-2.8,6.2-6.2V22.6Z"></path><path class="st2" d="M177.3,45.6c0-3.4-2.8-6-6.2-6s-6.2,2.8-6.2,6v29.6c0,3.4,2.8,6.2,6.2,6.2s6.2-2.8,6.2-6.2v-29.6Z"></path><path class="st2" d="M210.5,62.3c0-3.4-2.8-6-6-6s-6.2,2.8-6.2,6v12.8c0,3.4,2.8,6.2,6.2,6.2s6-2.8,6-6.2v-12.8Z"></path><path class="st2" d="M244.2,45.6c0-3.4-2.8-6-6-6s-6,2.8-6,6v29.6c0,3.4,2.8,6.2,6,6.2s6-2.8,6-6.2v-29.6Z"></path><path class="st2" d="M277.7,22.6c0-3.4-2.8-6-6-6s-6,2.8-6,6v64.7c0,3.4,2.8,6.2,6,6.2s6-2.8,6-6.2V22.6Z"></path><path class="st2" d="M311.2,45.6c0-3.4-2.8-6-6.2-6s-6,2.8-6,6v29.6c0,3.4,2.8,6.2,6,6.2s6.2-2.8,6.2-6.2v-29.6Z"></path><path class="st2" d="M344.5,62.3c0-3.4-2.8-6-6-6s-6.2,2.8-6.2,6v12.8c0,3.4,2.8,6.2,6.2,6.2s6-2.8,6-6.2v-12.8Z"></path></g></g><g><path class="st2" d="M125.2,205h11.9c4.6,0,8,1.1,10.6,3.4,2.1,2.1,3,4.8,3,8.3s-1.4,6.6-4.1,8.7c-2.3,1.6-5.5,2.5-9.6,2.5h-7.8v13.5h-3.9s0-36.5,0-36.5ZM137.4,208.2h-8.3v16.3h8c3.4,0,5.7-.7,7.3-2.3,1.4-1.4,2.1-3.2,2.1-5.5s-.9-5.1-2.8-6.4c-1.4-1.4-3.7-2.1-6.4-2.1h0Z"></path><path class="st2" d="M159.1,222.2h-3.9c.2-2.5,1.4-4.6,3.7-6,1.8-1.1,4.4-1.8,7.1-1.8s6,.9,7.8,2.8c1.6,1.6,2.3,3.7,2.3,6.2v18.1h-3l-.5-3.9c-2.1,3.2-5.1,4.8-9.2,4.8s-5.3-.7-6.9-2.3c-1.4-1.4-2.1-3-2.1-5.1s.9-4.6,2.5-6c1.6-1.1,4.1-2.1,7.3-2.8l7.8-1.4v-1.8c0-1.8-.7-3.2-2.1-4.4-1.1-.9-2.8-1.4-4.6-1.4s-3.7.5-4.8,1.6c-.7.7-1.4,1.8-1.6,3.2h0ZM172.4,231.8v-4.1l-6.9,1.1c-2.8.5-4.8,1.1-5.7,2.3-.9.7-1.4,1.8-1.4,3.2s.7,2.8,1.8,3.7c.9.7,2.3,1.1,4.1,1.1s4.1-.7,5.7-2.3,2.3-3.2,2.3-5.1h0Z"></path><path class="st2" d="M187.1,241.2h-3.7v-26.1h3l.5,4.6c1.4-3.4,3.7-5.3,7.1-5.3s1.8.2,2.8.5v3.7c-1.1-.2-2.1-.5-3-.5-2.1,0-3.7.9-5.1,2.8-1.1,1.6-1.8,3.9-1.8,6.9v13.5h.2Z"></path><path class="st2" d="M211.7,218.3h-6v17.2c0,2.3,1.1,3.2,3.2,3.2s2.1-.2,3-.5v3.2c-1.1.2-2.3.5-3.4.5-2.3,0-3.9-.7-5.1-2.1-.9-1.1-1.4-2.8-1.4-4.6v-17.2h-3.9v-3.2h3.9l.2-6.4h3.4v6.4h6v3.4h0Z"></path><path class="st2" d="M220.4,241.2h-3.7v-26.1h3l.5,3.9c.9-1.4,2.1-2.5,3.4-3.4s3-1.1,4.8-1.1c3,0,5.3.9,7.1,2.8,1.4,1.6,2.1,3.9,2.1,6.6v17.4h-3.7v-17.4c0-2.3-.7-3.9-1.8-5.1-1.1-.9-2.5-1.4-4.4-1.4s-3.9.7-5.3,2.3c-1.4,1.4-2.1,3.2-2.1,5.3v16.3h0Z"></path><path class="st2" d="M263.5,233.9h4.1c-.7,2.5-2.1,4.6-4.4,6.2-2.1,1.4-4.4,2.1-7.1,2.1-4.1,0-7.1-1.4-9.4-4.1-2.1-2.5-3.2-5.7-3.2-9.9s1.4-8.3,3.9-10.8c2.3-2.1,5.1-3,8.3-3s6.9,1.4,9.2,3.9c2.1,2.5,3,6.2,3,10.8h-20.4c.2,3.4,1.1,6,3,7.8,1.6,1.4,3.4,2.1,6,2.1s3.4-.5,4.8-1.6c.9-.9,1.8-2.1,2.3-3.4h0ZM255.7,217.4c-2.5,0-4.4.9-6,2.5-1.4,1.6-2.3,3.7-2.5,6.2h16.5c-.2-3-1.1-5.3-2.8-6.9s-3-1.8-5.3-1.8h0Z"></path><path class="st2" d="M277.7,241.2h-3.7v-26.1h3l.5,4.6c1.4-3.4,3.7-5.3,7.1-5.3s1.8.2,2.8.5v3.7c-1.1-.2-2.1-.5-3-.5-2.1,0-3.7.9-5.1,2.8-1.1,1.6-1.8,3.9-1.8,6.9v13.5h.2Z"></path></g></g><g class="st0"><g class="st0"><text class="st1" transform="translate(30.3 296.5)"><tspan x="0" y="0">Small Medium Business Specialized</tspan></text></g></g></svg>