<svg xmlns="http://www.w3.org/2000/svg" width="600" height="120" viewBox="0 0 600 120" fill="none"><path d="M466.59 117.829C470.403 117.829 473.385 116.048 473.385 112.453V112.388C473.385 109.313 470.368 108.182 467.698 107.404C465.548 106.757 463.573 106.239 463.573 105.007V104.942C463.573 103.939 464.509 103.225 466.139 103.225C467.664 103.225 469.536 103.842 471.304 104.846L472.968 102.061C471.028 100.864 468.53 100.119 466.241 100.119C462.601 100.119 459.723 102.094 459.723 105.332V105.396C459.723 108.668 462.741 109.703 465.444 110.414C467.594 111.03 469.535 111.484 469.535 112.809V112.876C469.535 114.008 468.496 114.722 466.692 114.722C464.82 114.722 462.671 114.008 460.693 112.618L458.821 115.271C461.111 116.955 463.988 117.829 466.59 117.829ZM440.203 117.505H444.399V107.857C444.399 105.202 446.099 103.614 448.525 103.614C451.021 103.614 452.443 105.137 452.443 107.792V117.504H456.638V106.627C456.638 102.645 454.246 100.055 450.119 100.055C447.276 100.055 445.577 101.447 444.399 103.065V100.41H440.203V117.505ZM427.581 114.495C424.322 114.495 421.999 111.969 421.999 108.989V108.924C421.999 105.947 424.149 103.486 427.512 103.486C430.806 103.486 433.13 105.978 433.13 108.989V109.056C433.13 112.002 430.98 114.495 427.581 114.495ZM427.512 117.894C433.162 117.894 437.325 113.847 437.325 108.989V108.924C437.325 104.037 433.199 100.055 427.581 100.055C421.964 100.055 417.804 104.102 417.804 108.989V109.056C417.804 113.912 421.931 117.894 427.512 117.894ZM410.522 117.505H414.718V100.412H410.522V117.505ZM410.348 97.7871H414.855V94.0649H410.348V97.7871ZM403.588 117.796C405.148 117.796 406.326 117.474 407.367 116.922V113.716C406.535 114.105 405.703 114.302 404.767 114.302C403.346 114.302 402.514 113.685 402.514 112.165V103.778H407.438V100.412H402.514V95.7176H398.319V100.412H395.995V103.778H398.319V112.778C398.317 116.534 400.501 117.796 403.588 117.796ZM383.648 117.861C386.493 117.861 388.192 116.469 389.371 114.85V117.505H393.566V100.412H389.371V110.06C389.371 112.715 387.673 114.303 385.246 114.303C382.749 114.303 381.327 112.78 381.327 110.125V100.413H377.132V111.292C377.132 115.27 379.523 117.861 383.648 117.861ZM369.053 117.505H373.249V93.8718H369.053V117.505ZM356.188 114.495C352.928 114.495 350.606 111.969 350.606 108.989V108.924C350.606 105.947 352.757 103.486 356.119 103.486C359.413 103.486 361.736 105.978 361.736 108.989V109.056C361.736 112.002 359.585 114.495 356.188 114.495ZM356.119 117.894C361.769 117.894 365.932 113.847 365.932 108.989V108.924C365.932 104.037 361.806 100.055 356.188 100.055C350.571 100.055 346.41 104.102 346.41 108.989V109.056C346.41 113.912 350.537 117.894 356.119 117.894ZM335.592 117.829C340.689 117.829 344.259 115.304 344.259 111.061V110.996C344.259 107.241 341.59 105.524 336.458 104.361C331.812 103.322 330.703 102.547 330.703 100.799V100.732C330.703 99.2442 332.158 98.0462 334.657 98.0462C336.874 98.0462 339.059 98.8554 341.244 100.376L343.533 97.3654C341.07 95.5195 338.262 94.5172 334.725 94.5172C329.905 94.5172 326.438 97.2028 326.438 101.088V101.155C326.438 105.33 329.351 106.756 334.517 107.921C339.023 108.892 339.995 109.766 339.995 111.385V111.45C339.995 113.166 338.332 114.3 335.698 114.3C332.679 114.3 330.356 113.231 328.034 111.354L325.468 114.203C328.38 116.631 331.881 117.829 335.592 117.829ZM301.195 107.759C301.578 105.104 303.38 103.258 305.946 103.258C308.72 103.258 310.315 105.235 310.594 107.759H301.195ZM306.432 117.894C309.795 117.894 312.188 116.631 313.923 114.688L311.459 112.649C310.003 113.976 308.548 114.688 306.503 114.688C303.798 114.688 301.681 113.134 301.231 110.35H314.685C314.719 109.961 314.754 109.605 314.754 109.249C314.754 104.329 311.806 100.056 305.983 100.056C300.747 100.056 297.036 104.069 297.036 108.958V109.023C297.035 114.302 301.126 117.894 306.432 117.894ZM285.729 117.505H289.925V110.997C289.925 106.466 292.492 104.232 296.168 104.232H296.411V100.086C293.186 99.958 291.072 101.705 289.927 104.265V100.412H285.731L285.729 117.505ZM278.068 111.321C278.068 113.458 275.988 114.914 273.214 114.914C271.237 114.914 269.677 114.007 269.677 112.388V112.324C269.677 110.671 271.237 109.669 273.873 109.669C275.503 109.669 276.994 109.96 278.068 110.35V111.321ZM282.125 117.505V107.373C282.125 102.806 279.49 100.151 274.081 100.151C271.1 100.151 269.123 100.734 267.111 101.576L268.255 104.716C269.92 104.069 271.446 103.648 273.492 103.648C276.406 103.648 277.999 104.943 277.999 107.306V107.631C276.576 107.208 275.154 106.92 272.937 106.92C268.671 106.92 265.517 108.731 265.517 112.521V112.585C265.517 116.017 268.568 117.861 272.035 117.861C274.809 117.861 276.716 116.794 277.964 115.399V117.505H282.125ZM256.815 117.894C260.386 117.894 262.502 116.567 264.304 114.688L261.772 112.358C260.454 113.621 258.998 114.495 257.022 114.495C253.797 114.495 251.543 112.033 251.543 108.989V108.924C251.543 105.947 253.761 103.486 256.813 103.486C258.928 103.486 260.28 104.362 261.564 105.623L264.163 103.001C262.464 101.25 260.314 100.055 256.846 100.055C251.369 100.055 247.346 104.132 247.346 108.989V109.056C247.347 113.912 251.37 117.894 256.815 117.894ZM228.242 117.505H232.437V107.857C232.437 105.202 234.137 103.614 236.564 103.614C239.06 103.614 240.482 105.137 240.482 107.792V117.504H244.678V106.627C244.678 102.645 242.285 100.055 238.158 100.055C235.316 100.055 233.617 101.447 232.437 103.065V93.8718H228.242V117.505ZM221.551 117.796C223.111 117.796 224.289 117.474 225.33 116.922V113.716C224.498 114.105 223.665 114.302 222.729 114.302C221.307 114.302 220.476 113.685 220.476 112.165V103.778H225.399V100.412H220.476V95.7176H216.28V100.412H213.956V103.778H216.28V112.778C216.28 116.534 218.464 117.796 221.551 117.796ZM207.127 117.505H211.322V93.8718H207.127V117.505ZM199.221 111.321C199.221 113.458 197.141 114.914 194.367 114.914C192.39 114.914 190.829 114.007 190.829 112.388V112.324C190.829 110.671 192.39 109.669 195.025 109.669C196.655 109.669 198.146 109.96 199.221 110.35V111.321ZM203.278 117.505V107.373C203.278 102.806 200.643 100.151 195.233 100.151C192.251 100.151 190.274 100.734 188.263 101.576L189.408 104.716C191.073 104.069 192.598 103.648 194.644 103.648C197.557 103.648 199.151 104.943 199.151 107.306V107.631C197.73 107.208 196.308 106.92 194.089 106.92C189.824 106.92 186.669 108.731 186.669 112.521V112.585C186.669 116.017 189.721 117.861 193.187 117.861C195.961 117.861 197.869 116.794 199.116 115.399V117.505H203.278ZM171.517 107.759C171.898 105.104 173.701 103.258 176.267 103.258C179.041 103.258 180.635 105.235 180.913 107.759H171.517ZM176.752 117.894C180.115 117.894 182.509 116.631 184.242 114.688L181.779 112.649C180.324 113.976 178.868 114.688 176.822 114.688C174.117 114.688 172.001 113.134 171.551 110.35H185.005C185.039 109.961 185.074 109.605 185.074 109.249C185.074 104.329 182.126 100.056 176.302 100.056C171.065 100.056 167.355 104.069 167.355 108.958V109.023C167.355 114.302 171.448 117.894 176.752 117.894ZM143.881 117.505H148.146V107.956H159.727V117.505H163.992V94.8436H159.727V104.265H148.146V94.8436H143.881V117.505Z" fill="#00B2ED"></path><path d="M28.7118 71.3333C28.7118 71.3333 29.5405 73.2097 31.7136 73.2097H38.5696C38.5696 73.2097 40.7414 73.2097 41.5714 71.3333L70.0947 6.8096C70.0947 6.8096 70.9234 4.93323 68.7502 4.93323H59.3009C59.3009 4.93323 57.1291 4.93322 56.3397 6.82426L36.1385 55.1465C36.1385 55.1465 35.3491 57.0351 34.5558 55.1465L14.2577 6.82181C14.2577 6.82181 13.4644 4.93323 11.2925 4.93323H1.53168C1.53168 4.93323 -0.640167 4.93323 0.188512 6.8096L28.7118 71.3333Z" fill="#005B94"></path><path d="M104.32 54.2274C104.32 60.6193 98.0969 64.9783 89.7996 64.9783C83.8876 64.9783 79.2205 62.2658 79.2205 57.424V57.2308C79.2205 52.2912 83.8876 49.2878 91.7712 49.2878C96.6451 49.2878 101.105 50.1593 104.32 51.3218V54.2274ZM116.455 70.6967V42.4118C116.455 28.7578 108.573 20.8171 92.393 20.8171C83.4739 20.8171 77.5619 22.5603 71.5464 25.0784L74.9685 34.4712C79.9471 32.5349 84.5107 31.2771 90.6296 31.2771C99.3419 31.2771 104.112 35.1496 104.112 42.2211V43.188C99.8603 41.9302 95.6082 41.0586 88.9697 41.0586C76.2135 41.0586 66.7747 46.4812 66.7747 57.8115V58.0046C66.7747 68.2702 75.9019 73.7905 86.2741 73.7905C94.5714 73.7905 100.275 70.5964 103.366 67.1456C103.366 67.1456 104.009 66.4293 104.009 67.3632V70.6967C104.009 70.6967 104.009 72.7258 106.182 72.7258H114.282C114.282 72.7258 116.455 72.7258 116.455 70.6967Z" fill="#005B94"></path><path d="M129.315 70.6963C129.315 70.6963 129.315 72.7255 131.488 72.7255H139.692C139.692 72.7255 141.864 72.7255 141.864 70.6963V43.8661C141.864 35.9255 146.946 31.179 154.206 31.179C161.674 31.179 165.926 35.7324 165.926 43.673V70.6963C165.926 70.6963 165.926 72.7255 168.099 72.7255H176.303C176.303 72.7255 178.476 72.7255 178.476 70.6963V40.1868C178.476 28.2734 171.319 20.5259 158.977 20.5259C150.473 20.5259 145.391 24.6893 142.99 27.9873C142.99 27.9873 141.864 29.5324 141.864 27.6646V23.6197C141.864 23.6197 141.864 21.593 139.692 21.593H131.488C131.488 21.593 129.315 21.593 129.315 23.6197V70.6963Z" fill="#005B94"></path><path d="M233.03 44.7365C233.03 52.968 225.666 58.7793 216.954 58.7793C208.346 58.7793 201.398 53.0658 201.398 44.6387V44.448C201.398 36.0197 208.243 30.4052 216.954 30.4052C225.666 30.4052 233.03 36.1186 233.03 44.5433V44.7365ZM245.371 62.2655V23.6197C245.371 23.6197 245.371 21.593 243.198 21.593H232.822V29.2427C228.57 24.4962 222.865 20.5259 213.634 20.5259C200.878 20.5259 188.742 29.4359 188.742 44.5433V44.7365C188.742 59.7462 200.773 68.6562 213.634 68.6562C222.658 68.6562 228.362 64.7837 232.314 60.0017C232.314 60.0017 232.925 59.2621 232.925 60.1972V63.2312C232.925 73.4968 226.806 78.9218 215.604 78.9218C208.137 78.9218 201.915 76.8877 196.106 73.4968L192.402 80.4926C192.402 80.4926 191.439 82.3115 193.299 83.3578C198.491 86.283 206.893 88.4124 215.916 88.4124C225.768 88.4124 233.444 86.1852 238.421 81.5365C242.986 77.2752 245.371 70.8846 245.371 62.2655Z" fill="#005B94"></path><path d="M277.834 73.7904C286.338 73.7904 291.421 69.627 293.822 66.329C293.822 66.329 294.947 64.7839 294.947 66.6517V70.6966C294.947 70.6966 294.947 72.7257 297.12 72.7257H305.326C305.326 72.7257 307.496 72.7257 307.496 70.6966V23.62C307.496 23.62 307.496 21.5933 305.326 21.5933H297.12C297.12 21.5933 294.947 21.5933 294.947 23.62V50.4502C294.947 58.3908 289.865 63.1373 282.604 63.1373C275.137 63.1373 270.885 58.5864 270.885 50.6433V23.62C270.885 23.62 270.885 21.5933 268.712 21.5933H260.508C260.508 21.5933 258.336 21.5933 258.336 23.62V54.1296C258.337 66.0429 265.491 73.7904 277.834 73.7904Z" fill="#005B94"></path><path d="M354.999 54.2274C354.999 60.6193 348.776 64.9783 340.479 64.9783C334.567 64.9783 329.9 62.2658 329.9 57.424V57.2308C329.9 52.2912 334.567 49.2878 342.45 49.2878C347.324 49.2878 351.784 50.1593 354.999 51.3218V54.2274ZM367.134 70.6967V42.4118C367.134 28.7578 359.251 20.8171 343.071 20.8171C334.153 20.8171 328.241 22.5603 322.224 25.0784L325.646 34.4712C330.625 32.5349 335.188 31.2771 341.307 31.2771C350.02 31.2771 354.79 35.1496 354.79 42.2211V43.188C350.538 41.9302 346.287 41.0586 339.647 41.0586C326.891 41.0586 317.454 46.4812 317.454 57.8115V58.0046C317.454 68.2702 326.581 73.7905 336.953 73.7905C345.25 73.7905 350.954 70.5964 354.046 67.1456C354.046 67.1456 354.688 66.4293 354.688 67.3632V70.6967C354.688 70.6967 354.688 72.7258 356.861 72.7258H364.962C364.962 72.7258 367.134 72.7258 367.134 70.6967Z" fill="#005B94"></path><path d="M379.992 70.6964C379.992 70.6964 379.992 72.7256 382.164 72.7256H390.371C390.371 72.7256 392.541 72.7256 392.541 70.6964V53.2578C392.541 39.7015 400.217 33.0188 411.212 33.0188H411.937V30.9896V22.6505C411.937 22.6505 411.937 20.6237 409.767 20.5357C402.292 20.2375 395.966 25.4656 393.38 31.2439C393.38 31.2439 392.541 33.1178 392.541 31.0886V23.621C392.541 23.621 392.541 21.5943 390.371 21.5943H382.164C382.164 21.5943 379.992 21.5943 379.992 23.621V70.6964Z" fill="#005B94"></path><path d="M460.683 47.2535C460.683 57.035 453.215 63.6225 444.815 63.6225C436.309 63.6225 429.05 57.1328 429.05 47.2535V47.0628C429.05 36.8925 436.206 30.6938 444.815 30.6938C453.215 30.6938 460.683 37.1834 460.683 47.0628V47.2535ZM473.025 70.6964V4.05674C473.025 4.05674 473.025 2.02759 470.854 2.02759H460.476V29.5313C456.534 24.7872 450.831 20.526 441.806 20.526C428.74 20.526 416.396 30.1144 416.396 47.0628V47.2535C416.396 64.2019 428.945 73.7903 441.806 73.7903C450.725 73.7903 456.43 69.529 459.318 65.7274C459.318 65.7274 460.476 64.2019 460.476 66.0709V70.6952C460.476 70.6952 460.476 72.7244 462.647 72.7244H470.854C470.854 72.7244 473.025 72.7256 473.025 70.6964Z" fill="#005B94"></path><path d="M600 88.6943V59.8337V59.5355C599.932 60.8153 599.279 67.025 593.194 70.3059L560.286 88.0464C560.286 88.0464 557.386 89.6086 553.48 89.6746C549.574 89.6086 546.674 88.0464 546.674 88.0464L513.766 70.3059C507.681 67.025 507.027 60.8153 506.96 59.5355V59.8337V88.6931C506.96 88.6931 506.96 96.0323 513.766 99.7019L546.674 117.441C546.674 117.441 549.574 119.005 553.48 119.069C557.386 119.005 560.286 117.441 560.286 117.441L593.194 99.7019C600 96.0335 600 88.6943 600 88.6943Z" fill="#005B94"></path><path d="M506.959 30.3763V59.2369V59.5352C507.027 58.2553 507.68 52.0456 513.765 48.7635L546.672 31.023C546.672 31.023 549.572 29.462 553.478 29.3948C557.385 29.462 560.285 31.023 560.285 31.023L593.192 48.7635C599.277 52.0456 599.93 58.2553 599.998 59.5352V59.2369V30.3763C599.998 30.3763 599.998 23.0371 593.192 19.3675L560.285 1.62822C560.285 1.62822 557.385 0.0647865 553.478 0C549.572 0.0647865 546.672 1.62822 546.672 1.62822L513.766 19.3675C506.959 23.0371 506.959 30.3763 506.959 30.3763Z" fill="#00B2ED"></path></svg>