<svg xmlns="http://www.w3.org/2000/svg" id="Layer_1" data-name="Layer 1" viewBox="0 0 1200 640"><defs><style> .cls-1 { fill: #f8f8f8; } </style></defs><path class="cls-1" d="M222.47,358.81v-1.99l-16.75-14.53h-1.96c-4.61,5.14-11.73,8.98-19.69,8.98-12.43,0-22.2-9.54-22.2-22.65s9.77-22.64,22.2-22.64c7.96,0,15.08,3.84,19.69,8.97h1.96l16.75-14.53v-2c-8.79-10.82-22.62-17.8-38.26-17.8-28.76,0-50.54,20.51-50.54,47.99,0,1.07.24,2.04.31,3.09,11.77,8.06,22.16,14.52,31.12,20.42,12.89,8.22,23.3,15.79,31.88,22.82,10.69-2.73,19.35-8.63,25.5-16.14"></path><path class="cls-1" d="M319.51,370.49l-4.19-18.23-1.54-1c-.83.43-1.54,1-3.63,1-3.21,0-5.17-3.42-6.84-6.13-2.79-4.27-5.03-6.55-6.98-7.55,10.19-4.56,17.03-13.1,17.03-25.35,0-18.94-12.84-30.9-36.72-30.9h-41.61v92.58h27.65v-32.47h2.51c6.15,0,13.97,13.39,17.59,19.37,7.54,12.11,13.55,14.82,24.29,14.82,5.03,0,9.21-1.85,11.73-4.13l.7-1.99h0ZM285.16,314.8c0,6.12-4.47,9.11-9.64,9.11h-12.84v-18.8h12.84c5.17,0,9.64,3.42,9.64,9.69"></path><path class="cls-1" d="M426.33,328.62c0-27.49-21.78-48-50.68-48s-50.69,20.51-50.69,48,21.78,47.99,50.69,47.99,50.68-20.65,50.68-47.99M398.12,328.62c0,13.24-10.05,22.64-22.48,22.64s-22.49-9.4-22.49-22.64,10.06-22.64,22.49-22.64,22.48,9.4,22.48,22.64"></path><polygon class="cls-1" points="564.7 282.33 538.31 282.33 521.97 333.6 504.66 282.33 487.9 282.33 470.73 333.31 454.39 282.33 428 282.33 426.74 284.47 460.54 374.91 477.29 374.91 496.28 324.49 515.41 374.91 532.16 374.91 565.95 284.47 564.7 282.33 564.7 282.33"></polygon><path class="cls-1" d="M667.19,328.47c0-27.63-18.29-46.15-48.04-46.15h-42.31v92.58h42.31c29.74,0,48.04-18.52,48.04-46.43M638.98,328.62c0,15.1-8.8,23.5-20.95,23.5h-13.54v-47h13.54c12.15,0,20.95,8.41,20.95,23.51"></path><polygon class="cls-1" points="813.64 305.12 841.29 305.12 841.29 282.33 758.34 282.33 758.34 305.12 786 305.12 786 374.91 813.64 374.91 813.64 305.12 813.64 305.12"></polygon><path class="cls-1" d="M929.67,313.23c0-18.94-12.84-30.9-36.72-30.9h-41.61v92.57h27.65v-32.47h6.56l17.17,32.47h27.51l1.25-2.14-18.43-34.32c9.91-4.7,16.62-13.1,16.62-25.21M901.47,314.8c0,6.13-4.47,9.12-9.64,9.12h-12.84v-18.8h12.84c5.17,0,9.64,3.42,9.64,9.68"></path><polygon class="cls-1" points="946.42 374.9 974.07 374.9 974.07 282.32 946.42 282.32 946.42 374.9 946.42 374.9"></polygon><polygon class="cls-1" points="1044.16 323.77 1075.44 284.46 1074.18 282.33 1044.72 282.33 1019.17 315.23 1019.17 282.33 991.52 282.33 991.52 374.9 1019.17 374.9 1019.17 346.42 1024.2 340.44 1047.65 374.9 1076.56 374.9 1077.81 372.77 1044.16 323.77 1044.16 323.77"></polygon><polygon class="cls-1" points="1154.47 305.12 1154.47 282.33 1085.35 282.33 1085.35 374.91 1154.89 374.91 1154.89 352.12 1113 352.12 1113 339.29 1144.56 339.29 1144.56 317.93 1113 317.93 1113 305.12 1154.47 305.12 1154.47 305.12"></polygon><path class="cls-1" d="M713.95,376c20.25,0,37.83-9.96,37.83-29.18,0-20.94-17.72-26.36-33.36-30.91-6.14-1.85-12.43-3.99-12.43-8.55,0-3.27,3.5-5.27,8.81-5.27,9.08,0,16.75,5.7,20.66,9.41h1.95l12.98-15.67v-1.99c-6.84-7.83-20.8-13.8-36.16-13.8-21.51,0-36.44,11.67-36.44,28.61,0,18.24,16.47,26.22,30.43,30.2,9.08,2.57,15.24,3,15.24,7.98,0,3.56-4.33,5.7-11.04,5.7-8.52,0-18.85-5.56-23.87-10.54h-1.95l-12.84,16.24v1.99c8.23,9.25,23.03,15.79,40.21,15.79"></path><path class="cls-1" d="M237.32,461.09c-6.69-15.44-20.14-35.24-72.84-63.52-24.3-13.61-65.83-34.56-103.17-74.38,3.39,14.37,20.72,45.96,95.31,85.4,20.65,11.38,55.57,22.04,80.71,52.5"></path><path class="cls-1" d="M233.96,434.65c-6.36-18.24-17.83-41.6-72.23-76.3-26.5-17.49-65.4-39.44-116.61-95.44,3.66,15.1,19.84,54.34,101.39,105.3,26.79,18.28,61.36,29.56,87.46,66.44"></path></svg>