<svg xmlns="http://www.w3.org/2000/svg" id="Layer_1" data-name="Layer 1" viewBox="0 0 1200 640"><defs><style> .cls-1 { fill: #fff; } </style></defs><path class="cls-1" d="M443.06,357.33l-6.38,18.03h-.53c-1.63-6.04-3.7-11.95-6.2-17.68l-34.11-85.77h-33.42v136.64h22.15v-84.29c0-5.3,0-11.32-.19-18.75-.17-3.72-.52-6.54-.71-8.66h.53c.78,3.96,1.84,7.86,3.18,11.67l41.03,99.73h15.56l40.62-100.57c1.08-3.54,1.96-7.14,2.65-10.78h.53c-.53,10.07-.88,19.09-1.05,24.57v86.65h23.52v-136.57h-32.19l-35,85.77ZM532.54,310.11h22.99v97.96h-22.99v-97.96ZM544.21,268.74c-3.63-.04-7.12,1.36-9.73,3.89-5.22,4.96-5.44,13.21-.49,18.43.16.17.32.33.49.49,2.63,2.47,6.12,3.8,9.73,3.71,3.6.05,7.07-1.28,9.73-3.71,2.64-2.4,4.12-5.82,4.06-9.38.01-3.6-1.46-7.05-4.06-9.54-2.55-2.61-6.08-4.03-9.73-3.89M637.04,309.27c-4.24-.91-8.56-1.38-12.9-1.41-10.42,0-19.99,2.32-27.94,6.89-7.84,4.38-14.24,10.96-18.4,18.92-4.24,8.11-6.36,17.51-6.36,28.3-.09,8.81,2.03,17.5,6.18,25.28,3.92,7.43,9.97,13.53,17.37,17.51,7.75,4.22,16.47,6.36,25.29,6.2,10.95,0,20.33-2.32,27.79-6.54l.17-.17v-21.27l-.88.71c-3.38,2.51-7.14,4.47-11.14,5.79-3.51,1.3-7.22,2.02-10.97,2.12-9.19,0-16.44-2.65-21.57-8.49-5.3-5.65-7.96-13.43-7.96-23.16s2.65-18.04,8.11-23.88c5.45-5.84,12.74-8.85,21.57-8.85,7.91.11,15.58,2.71,21.93,7.43l.88.71v-22.46l-.17-.17c-3.52-1.57-7.19-2.76-10.97-3.53M712.96,308.47c-5.67-.05-11.18,1.89-15.56,5.48-3.89,3.18-6.54,7.78-8.85,13.26h-.17v-17.09h-23.03v97.96h22.99v-50.03c0-8.49,1.77-15.56,5.66-20.69,3.86-5.3,8.81-7.96,14.86-7.96,2.33.15,4.65.44,6.95.88,1.95.46,3.8,1.24,5.49,2.32l.88.71v-23.01l-.53-.17c-1.59-1.07-4.77-1.59-8.66-1.59M775.57,307.99c-16.1,0-29.01,4.77-38.02,14.15-9.21,9.37-13.62,22.28-13.62,38.55,0,15.2,4.63,27.58,13.43,36.6,8.85,8.85,20.84,13.44,35.9,13.44s28.3-4.78,37.32-14.32c9.02-9.54,13.62-22.29,13.62-38.03s-4.25-27.94-12.91-36.96c-8.31-9.01-20.52-13.43-35.72-13.43M793.96,383.32c-4.24,5.49-10.97,8.11-19.27,8.11s-15.05-2.65-19.81-8.49c-4.77-5.48-7.08-13.44-7.08-23.52s2.48-18.39,7.08-24.05c4.6-5.66,11.32-8.49,19.69-8.49s14.51,2.65,19.11,8.11c4.6,5.45,7.06,13.44,7.06,23.88-.35,10.61-2.32,18.92-6.72,24.4M875.53,350.73c-7.25-3.01-11.85-5.31-13.96-7.26-1.86-2.01-2.82-4.69-2.65-7.42-.07-2.84,1.33-5.52,3.71-7.08,3-1.92,6.53-2.84,10.09-2.65,4.01.07,7.99.66,11.85,1.77,3.69.93,7.17,2.55,10.26,4.77l.88.71v-21.51l-.53-.17c-3.38-1.3-6.87-2.3-10.42-3.01-3.74-.65-7.52-1.01-11.31-1.05-10.97,0-19.99,2.65-27.06,8.49-6.76,5.08-10.64,13.12-10.42,21.57-.12,4.13.67,8.23,2.32,12.02,1.66,3.55,4.07,6.68,7.08,9.19,4.3,3.25,9.01,5.93,14,7.97,5.3,2.32,9.37,4.06,11.85,5.48,1.96,1.16,3.74,2.58,5.3,4.24.97,1.66,1.45,3.57,1.38,5.49,0,6.54-4.96,9.73-15.05,9.73-4.34-.07-8.65-.85-12.74-2.32-4.6-1.53-8.95-3.73-12.9-6.54l-.89-.71v22.53l.53.17c4,1.68,8.14,2.98,12.38,3.89,4.37.9,8.8,1.43,13.26,1.59,11.86,0,21.58-2.65,28.47-8.49,6.98-5.25,11-13.55,10.79-22.28,0-6.54-1.77-12.38-5.66-16.8-6.16-5.2-13.16-9.32-20.69-12.19M962.37,308.01c-16.1,0-28.95,4.77-38.03,14.15-9.08,9.38-13.61,22.28-13.61,38.55,0,15.2,4.63,27.58,13.43,36.6,8.85,8.85,20.84,13.44,35.9,13.44s28.3-4.78,37.32-14.32c9.19-9.55,13.61-22.29,13.61-38.03s-4.24-27.94-12.9-36.96c-8.31-9.01-20.52-13.43-35.72-13.43M980.58,383.33c-4.25,5.49-10.97,8.11-19.28,8.11s-15.05-2.65-19.8-8.49c-4.78-5.48-7.08-13.44-7.08-23.52s2.48-18.39,7.08-24.05c4.6-5.66,11.31-8.49,19.69-8.49s14.5,2.65,19.09,8.11c4.6,5.45,7.08,13.44,7.08,23.88s-2.32,18.92-6.72,24.4M1133.95,328.99v-18.87h-23.16v-28.95l-.71.17-21.93,6.54-.53.17v22.11h-34.66v-12.42c0-5.66,1.41-10.07,3.89-12.91s6.18-4.24,10.78-4.24c3.54.06,7.03.85,10.26,2.32l.88.53v-20.01l-.52-.17c-10.37-3.03-21.5-2.15-31.26,2.48-5.33,2.86-9.7,7.22-12.56,12.55-3.12,5.56-4.72,11.84-4.63,18.21v13.62h-16.08v18.75h16.08v79.22h23.16v-79.04h34.66v50.45c0,20.68,9.73,31.11,29.18,31.11,3.27-.09,6.52-.45,9.73-1.05,2.5-.48,4.93-1.26,7.25-2.32l.17-.17v-18.96l-.88.71c-1.46.98-3.08,1.7-4.78,2.12-1.5.46-3.06.7-4.63.71-4.63,0-7.78-1.05-10.07-3.71-2.12-2.48-3.18-6.55-3.18-12.56v-46.32l23.56-.06Z"></path><path class="cls-1" d="M66.05,225.94h108.4v108.38h-108.4v-108.38Z"></path><path class="cls-1" d="M185.77,225.94h108.4v108.38h-108.4v-108.38Z"></path><path class="cls-1" d="M66.05,345.66h108.4v108.4h-108.4v-108.4Z"></path><path class="cls-1" d="M185.77,345.66h108.4v108.4h-108.4v-108.4Z"></path></svg>