<svg xmlns="http://www.w3.org/2000/svg" id="Layer_1" data-name="Layer 1" viewBox="0 0 1200 640"><defs><style> .cls-1 { fill: #fff; } </style></defs><polygon class="cls-1" points="394.02 290.62 397.44 312.33 391.04 337.34 405.11 329.68 401.89 302.28 394.02 290.62 394.02 290.62"></polygon><polygon class="cls-1" points="339.74 357.84 354.14 345.43 353.08 335.47 339.74 357.84 339.74 357.84"></polygon><polygon class="cls-1" points="415.23 366.53 415.93 349.37 412.6 356.07 415.23 366.53 415.23 366.53"></polygon><polygon class="cls-1" points="330.97 406.68 317.96 413.66 295.96 415.28 318.55 418.44 330.97 406.68 330.97 406.68"></polygon><polygon class="cls-1" points="271.44 448.45 283.73 437.09 295.96 415.28 276.72 411.27 307.01 384.9 312.9 373.07 322.83 359.72 332.86 340.93 342.46 330.14 359.01 323.49 381.25 279.07 395.3 287.73 404.48 298.71 409.72 326.62 420.27 314.43 426.6 317.28 427.94 324.85 423.71 349.53 416 369.7 422.33 402.59 417.12 401.45 422.35 418.7 418.43 418.36 425.05 439.69 418.29 437.17 426.63 456.69 428.31 462.28 539.53 462.28 367.38 177.17 195.33 462.28 262.73 462.28 276.22 448.05 271.44 448.45 271.44 448.45"></polygon><path class="cls-1" d="M885.04,347.16h70.69v17.86h-50.94v30.98h42.49v17.61h-42.79v48.02h-19.44v-114.47h0Z"></path><path class="cls-1" d="M817.48,347.17h19.27v96.32h40.01v18h-59.27v-114.32h0Z"></path><path class="cls-1" d="M780.9,422.14c-.39,8.76-4.24,16.17-12.73,19.91-2.84,1.26-5.69,1.97-8.49,2.17h-3.6c-2.81-.2-5.65-.91-8.49-2.17-8.48-3.74-12.33-11.15-12.73-19.91-.53-11.81-.53-23.67-.05-35.48.5-12.5,9.32-20.88,21.23-21.52h3.69c11.9.63,20.73,9.02,21.23,21.52.47,11.81.47,23.68-.05,35.48h0ZM801.31,390.09c-.02-25.68-15.55-42.17-40.8-43.78v-.06h-.66c-.1,0-.2-.02-.3-.03-.01,0-.03,0-.04,0v.03h-3.26v-.03s-.03,0-.04,0c-25.83,1.24-41.75,17.85-41.76,43.87,0,12.29-.49,24.67.79,36.84,2.52,24.07,20.67,35.75,40.78,35.88h0s.1,0,.1,0c.05,0,.09,0,.14,0h0s3.26,0,3.26,0h0s.09,0,.14,0h.86v-.03c19.8-.43,37.53-12.09,40.02-35.86,1.27-12.18.79-24.56.79-36.84h0Z"></path><path class="cls-1" d="M685.83,347.14c-2.97,11.57-13.93,54.35-18.99,74.68-.14.54-.29,1.08-.76,2.83-.99-2.91-1.66-4.66-2.19-6.44-6.35-21.31-14.44-48.99-20.82-70.99h-16.57c-6.38,22-14.47,49.68-20.82,70.99-.53,1.78-1.2,3.53-2.19,6.44-.47-1.75-.62-2.29-.76-2.83-5.06-20.33-16.03-63.11-18.99-74.68h-22.63c10.7,37.76,21.25,77.79,31.69,114.6h19.13c7.51-25.38,15-48.82,22.87-75.4,7.87,26.58,15.35,50.02,22.87,75.4h19.13c10.44-36.8,20.99-76.84,31.69-114.6h-22.63Z"></path><path class="cls-1" d="M986.4,280.95c6.09,2.56,12.2,5.13,18.27,7.68-4.58,15-17.9,25.63-34.91,26.38-7.93.35-16.44-.62-23.87-3.29-14.23-5.1-21.92-16.8-23-31.44-1.13-15.39-1.24-31,0-46.37,1.74-21.62,20.75-36.31,43.3-35.12,19.06,1,32.83,10.42,38.32,26.78-6.03,2.39-12.1,4.8-18.39,7.29-4.35-10.86-12.29-15.78-23.37-15.02-10.85.74-18.92,7.27-19.78,18.04-1.1,13.78-1.06,27.76-.08,41.55.77,10.79,8.5,17.69,18,18.84,11.76,1.42,19.6-3.04,24.45-13.9.19-.42.56-.75,1.05-1.4h0Z"></path><path class="cls-1" d="M780.73,225.55c-6.22,2.46-12.2,4.83-18.41,7.29-4.56-11.14-12.79-16.13-24.27-14.89-11.14,1.2-18.46,8.01-19.33,19.72-.96,12.85-.9,25.89.11,38.74.9,11.5,8.42,18.64,18.17,19.84,11.89,1.47,19.56-2.96,24.71-14.25.12-.27.44-.44,1.01-.97,5.9,2.47,12.01,5.03,18.08,7.57-4.17,14.73-17.75,25.62-34.77,26.41-7.93.37-16.44-.61-23.88-3.24-14.05-4.98-21.86-16.5-22.99-30.92-1.23-15.69-1.35-31.64-.02-47.32,1.83-21.41,20.79-35.82,43.17-34.75,17.02.81,30.01,7.84,37.41,23.74.39.83.6,1.74,1.04,3.04h0Z"></path><path class="cls-1" d="M870.55,217.43h-31.56v96.77h-19.94v-96.65h-31.61v-17.77h83.11v17.65h0Z"></path><path class="cls-1" d="M886.3,199.76h19.45v114.42h-19.45v-114.42h0Z"></path><path class="cls-1" d="M556.89,271.93h-30.69c4.96-15.4,9.86-30.59,14.75-45.78.56,0,.54,0,1.1,0,4.91,15.16,9.83,30.33,14.84,45.78h0ZM495.07,301.29c-1.57,4.16-3.04,8.37-4.72,13.01h21c2.64-7.62,8.83-25.37,8.83-25.37,0,0,2.88,0,15.31.23,7.69.15,15.38,0,23.07-.2,3.54-.09,4.51.22,4.51.22,0,0,5.95,17.18,8.78,25.11h21.01c-1.03-2.95-1.76-5.17-2.58-7.34-11.41-30.23-28.53-75.62-40.57-107.6h-16.21c-11.94,31.85-26.74,70.93-38.44,101.93h0Z"></path><path class="cls-1" d="M649.21,249.02c-9.07.43-18.18.09-27.74.09v-31.14c10.81,0,21.49-.77,32,.25,7.98.77,12.02,7.57,11.39,15.67-.66,8.53-6.63,14.7-15.65,15.13h0ZM665.85,262.6c14.02-6.63,21.54-20.42,19.19-35.2-2.37-14.92-12.94-25.81-28.62-27.07-15.09-1.21-30.32-.64-45.5-.83-2.99-.04-5.99,0-9.23,0v114.57h19.67v-46.67h21.5c5.31,12.88,14.84,35.12,19.84,46.67h22.18c-7.21-16.08-15.39-34.26-22.39-49.88,1.35-.63,2.36-1.09,3.36-1.57h0Z"></path></svg>