<svg xmlns="http://www.w3.org/2000/svg" xmlns:xlink="http://www.w3.org/1999/xlink" id="Layer_1" data-name="Layer 1" viewBox="0 0 1200 640"><defs><style> .cls-1 { fill: #fff; } .cls-2 { fill: none; } .cls-3 { clip-path: url(#clippath); } </style><clipPath id="clippath"><rect class="cls-2" x="177.16" y="198.53" width="845.68" height="242.95"></rect></clipPath></defs><path class="cls-1" d="M461.23,334.5c-14.03-.27-29.96,2.03-29.96,14.76,0,7.85,5.55,11.37,11.98,11.37,9.36,0,15.35-5.41,17.4-10.96.44-1.22.59-2.57.59-3.79v-11.37h0ZM473.8,352.24c0,5.69.29,11.24,1.02,15.7h-11.54l-1.17-8.26h-.44c-3.8,5.14-11.55,9.75-21.63,9.75-14.32,0-21.63-9.34-21.63-18.82,0-15.84,15.2-24.51,42.54-24.37v-1.35c0-5.42-1.6-15.3-16.08-15.17-6.72,0-13.59,1.76-18.56,4.87l-2.92-7.99c5.85-3.39,14.47-5.69,23.39-5.69,21.78,0,27.04,13.67,27.04,26.81v24.51h0Z"></path><path class="cls-1" d="M505.15,286.71v15.71h18.42v9.07h-18.42v35.33c0,8.12,2.49,12.73,9.65,12.73,3.51,0,5.55-.27,7.45-.81l.58,9.07c-2.48.81-6.43,1.62-11.4,1.62-5.99,0-10.82-1.89-13.89-5.01-3.51-3.66-4.97-9.48-4.97-17.19v-35.74h-10.96v-9.07h10.96v-12.05l12.57-3.66h0Z"></path><path class="cls-1" d="M583.43,365.64c-3.36,1.49-10.82,3.79-20.32,3.79-21.34,0-35.22-13.4-35.22-33.57s14.91-34.93,38-34.93c7.6,0,14.33,1.76,17.83,3.52l-2.92,9.07c-3.07-1.49-7.89-3.11-14.91-3.11-16.22,0-24.99,11.23-24.99,24.91,0,15.16,10.52,24.5,24.55,24.5,7.31,0,12.13-1.62,15.79-3.11l2.19,8.93h0Z"></path><path class="cls-1" d="M595.23,271.82h12.86v40.89h.29c2.05-3.39,5.26-6.5,9.21-8.39,3.8-2.17,8.33-3.39,13.16-3.39,9.5,0,24.7,5.42,24.7,28.03v38.99h-12.86v-37.64c0-10.69-4.24-19.5-16.37-19.5-8.33,0-14.76,5.42-17.25,11.92-.73,1.63-.88,3.38-.88,5.69v39.53h-12.86v-96.12h0Z"></path><path class="cls-1" d="M746.08,363.88c-5.7,2.03-17.1,5.01-30.4,5.01-14.91,0-27.19-3.52-36.83-12.05-8.48-7.58-13.74-19.77-13.74-33.98,0-27.21,20.32-47.12,53.35-47.12,11.4,0,20.46,2.3,24.7,4.2l-3.21,9.61c-5.26-2.3-11.84-3.93-21.78-3.93-23.97,0-39.61,13.81-39.61,36.69s14.91,36.82,38,36.82c8.33,0,14.03-1.08,16.96-2.44v-27.21h-19.88v-9.48h32.45v43.86h0Z"></path><path class="cls-1" d="M818.57,350.07c0,6.77.14,12.72.58,17.87h-11.4l-.73-10.69h-.29c-3.21,5.28-10.82,12.18-23.39,12.18-11.11,0-24.41-5.82-24.41-28.7v-38.31h12.86v36.15c0,12.45,4.24,20.98,15.79,20.98,8.62,0,14.62-5.55,16.95-10.97.73-1.62,1.17-3.79,1.17-6.09v-40.07h12.87v47.66h0Z"></path><path class="cls-1" d="M873,334.5c-14.04-.27-29.97,2.03-29.97,14.76,0,7.85,5.55,11.37,11.99,11.37,9.35,0,15.35-5.41,17.4-10.96.44-1.22.59-2.57.59-3.79v-11.37h0ZM885.57,352.24c0,5.69.29,11.24,1.02,15.7h-11.54l-1.17-8.26h-.44c-3.8,5.14-11.55,9.75-21.63,9.75-14.33,0-21.63-9.34-21.63-18.82,0-15.84,15.2-24.51,42.54-24.37v-1.35c0-5.42-1.61-15.3-16.08-15.17-6.73,0-13.59,1.76-18.56,4.87l-2.92-7.99c5.85-3.39,14.47-5.69,23.39-5.69,21.78,0,27.04,13.67,27.04,26.81v24.51h0Z"></path><path class="cls-1" d="M900.48,322.86c0-7.72-.14-14.35-.58-20.44h11.26l.58,12.86h.44c3.22-8.8,11.11-14.35,19.73-14.35,1.31,0,2.34.14,3.51.41v11.1c-1.46-.14-2.78-.27-4.53-.27-9.06,0-15.49,6.37-17.25,15.16-.29,1.76-.44,3.66-.44,5.69v34.93h-12.86l.14-45.08h0Z"></path><path class="cls-1" d="M988.74,329.08c0-1.62-.15-3.52-.59-5.14-1.9-7.44-8.92-13.67-18.56-13.67-13.3,0-21.19,10.83-21.19,25.18,0,13.4,7.16,24.37,20.9,24.37,8.62,0,16.52-5.41,18.86-14.21.44-1.62.59-3.25.59-5.14v-11.37h0ZM1001.61,271.82v79.2c0,5.82.15,12.46.58,16.92h-11.54l-.59-11.37h-.29c-3.95,7.31-12.42,12.86-23.97,12.86-17.1,0-30.4-13.4-30.4-33.3-.15-21.93,14.61-35.2,31.71-35.2,10.97,0,18.27,4.74,21.34,9.88h.29v-38.99h12.86Z"></path><path class="cls-1" d="M362.34,264.57c13.15,14.85,21.58,33.98,22.95,55.03.01.17-.05.06-.05.06-4.75,20.94-11.84,45.35-22.28,68.1,0,0-13.03.53-36,.88-5.41-33.1-14.53-68.36-20.82-92.57h-.32c-6.29,24.21-15.41,59.47-20.82,92.57-22.97-.35-36-.88-36-.88-25.6-55.8-31.11-121.68-31.11-121.68,11.75-.84,21.65-1.19,31.73-1.44,2.51,24.73,11.15,73.59,16.04,87.57h.41c4.37-29.36,12.01-59.78,24.09-88.49,11.5-.25,19.4-.42,31.24,0h.4c12.08,28.71,19.72,59.13,24.09,88.49h.41c4.9-13.97,13.53-62.84,16.04-87.57v-.07h0Z"></path><g class="cls-3"><path class="cls-1" d="M305.26,210.45c-4.03-.42-8.12-.64-12.26-.64-63.97,0-115.83,51.86-115.83,115.83s51.86,115.83,115.83,115.83,115.83-51.86,115.83-115.83c0-59.83-45.36-109.07-103.57-115.19l-.96,9.64c53.31,5.64,94.85,50.75,94.85,105.55,0,58.62-47.52,106.15-106.15,106.15s-106.15-47.52-106.15-106.15,47.53-106.15,106.15-106.15c3.82,0,7.59.2,11.3.59l.96-9.64h0Z"></path><path class="cls-1" d="M519.25,211.83c6.01,11.92,1.21,26.46-10.71,32.46l-67.1,33.81c-11.92,6.01-26.46,1.21-32.47-10.71h0c-6.01-11.92-1.21-26.46,10.71-32.46l67.1-33.81c11.92-6.01,26.46-1.21,32.46,10.71h0Z"></path></g><path class="cls-1" d="M1014.59,278.32h.77c.9,0,1.63-.3,1.63-1.03,0-.64-.47-1.07-1.5-1.07-.43,0-.73.04-.9.08v2.01h0ZM1014.55,282.25h-1.63v-7.01c.64-.09,1.54-.21,2.69-.21,1.32,0,1.92.21,2.39.56.43.3.73.81.73,1.5,0,.85-.64,1.41-1.45,1.67v.09c.68.21,1.03.77,1.24,1.71.21,1.07.38,1.45.51,1.71h-1.71c-.21-.26-.34-.85-.55-1.71-.13-.73-.56-1.07-1.45-1.07h-.77v2.78h0ZM1010.24,278.62c0,3.12,2.35,5.6,5.47,5.6,3.03.04,5.34-2.48,5.34-5.55s-2.31-5.64-5.43-5.64-5.38,2.52-5.38,5.6h0ZM1022.84,278.62c0,3.93-3.16,7.05-7.18,7.05s-7.22-3.12-7.22-7.05,3.2-7.01,7.26-7.01,7.14,3.08,7.14,7.01h0Z"></path></svg>