<svg xmlns="http://www.w3.org/2000/svg" id="Layer_2" data-name="Layer 2" viewBox="0 0 870.16 290.05"><defs><style> .cls-1 { fill: #fff; } </style></defs><g id="Layer_1-2" data-name="Layer 1"><path class="cls-1" d="M732.33,124c-17.12,0-29.54,13-29.54,31.43s13.16,31.43,30,31.43,29.55-13.33,29.55-31.43c-.01-17.61-13.19-31.43-30.01-31.43Z"></path><path class="cls-1" d="M496.33,124c-17.12,0-29.54,13-29.54,31.43s13.16,31.43,30,31.43,29.55-13.33,29.55-31.43c-.01-17.61-13.2-31.43-30.01-31.43Z"></path><path class="cls-1" d="M244.1,122.12c-10,0-18.36,4.11-23.58,11.12-4.77,6.42-7.68,15.34-6.22,26.71l53.56-22.21c-4.33-9.31-12.71-15.62-23.76-15.62Z"></path><path class="cls-1" d="M0,0v290.05h870.16V0H0ZM181.5,211.26h-100.75V66.26h31.07v116.86h69.68v28.14ZM247.33,188.77c11.77,0,19.14-2.28,32-11.83l19.37,14.93c-9.92,11.49-31.13,21.32-51.87,21.32-37,0-62.49-24-62.49-57.73s25.41-57.71,59.12-57.71c18.56,0,33.8,6.32,44.09,18.29,7.09,8.23,11.68,19,13.39,31.16l-78.37,32.52c5.93,5.76,14.21,9.05,24.76,9.05ZM424.38,211.27h-30.61v-63.53c0-14.76-13.13-23.58-25.81-23.58-16.41,0-25.27,12.16-25.27,23.58v63.53h-30.66v-111.65h30.66v16c8.93-11.93,23.55-17.88,36.4-17.88,27,0,45.33,18.63,45.33,44.3l-.04,69.23ZM496.33,213.15c-33.52,0-59.79-25-59.79-57.7s26.45-57.7,60.21-57.7,59.78,25,59.78,57.7c0,32.35-26.43,57.7-60.2,57.7ZM597.78,211.23l-45.93-111.6h35l27.71,76.05,27.77-76.05h35l-45.93,111.6h-33.62ZM732.33,213.15h0c-33.52,0-59.79-25-59.79-57.7s26.45-57.7,60.21-57.7,59.78,25,59.78,57.7-26.44,57.7-60.2,57.7h0ZM804.78,198h-5v13.26h-3.08v-13.26h-4.95v-2.82h13l.03,2.82ZM824.38,211.26h-3v-11.42l-5,7.73h-.32l-4.95-7.73v11.43h-3v-16.08h3.27l4.95,7.61,4.85-7.61h3.19v16.07Z"></path></g></svg>