<svg xmlns="http://www.w3.org/2000/svg" id="Layer_1" data-name="Layer 1" viewBox="0 0 1200 640"><defs><style> .cls-1 { fill: #fff; } </style></defs><path class="cls-1" d="M915.53,394.43h80.16c22.49,0,32.04-1.37,39.53-6.13,11.81-7.26,19.31-21.51,19.31-37.65,0-13.18-4.55-25.94-11.36-32.76-8.86-9.09-20.9-12.49-43.18-12.49h-24.3c-10.91,0-18.94-.46-23.48-2.49-5.45-2.51-8.63-7.33-8.63-14.13,0-7.96,3.86-13.16,10.22-14.76,4.78-1.12,10.3-1.12,24.61-1.36h71.76v-27.04h-79.02c-17.72,0-25.67.67-32.49,3.18-15.68,5.45-26.37,21.56-26.37,40.87,0,13.19,5.25,24.83,14.32,32.78,7.96,6.81,19.77,10,37.94,10h32.35c7.28,0,13.18.9,16.37,2.72,6.12,2.95,9.76,8.44,9.76,15.49,0,5.9-2.72,10.15-7.5,13.09-3.85,2.51-10.45,3.65-22.49,3.65h-77.52v27.04h0ZM148.7,394.43h80.16c22.5,0,32.04-1.37,39.54-6.13,11.81-7.26,19.31-21.51,19.31-37.65,0-13.18-4.55-25.94-11.36-32.76-8.86-9.09-20.9-12.49-43.18-12.49h-24.31c-10.91,0-18.94-.46-23.48-2.49-5.46-2.51-8.63-7.33-8.63-14.13,0-7.96,3.86-13.16,10.22-14.76,4.78-1.12,10.3-1.12,24.61-1.36h71.76v-27.04h-79.03c-17.72,0-25.67.67-32.49,3.18-15.68,5.45-26.37,21.56-26.37,40.87,0,13.19,5.25,24.83,14.32,32.78,7.96,6.81,19.77,10,37.94,10h32.35c7.28,0,13.18.9,16.37,2.72,6.12,2.95,9.76,8.44,9.76,15.49,0,5.9-2.72,10.15-7.5,13.09-3.85,2.51-10.45,3.65-22.49,3.65h-77.52v27.04h0ZM795.36,284.79c-4.69,7.36-6.91,19.15-6.91,35,0,34.77,12.02,50.6,38.77,50.6s38.35-15.84,38.35-50.16-11.81-50.39-38.35-50.39c-14.48,0-25.86,5.35-31.86,14.94M886.08,267.62c9.16,12.03,14.27,31.64,14.27,54.62,0,26.07-8.25,47.48-22.97,59.29-11.14,8.91-28.08,13.82-48.16,13.82-28.53,0-51.04-9.37-62.62-26.08-8.7-12.26-12.95-28.54-12.95-48.38,0-28.51,7.81-50.15,22.52-61.75,11.59-9.35,29.88-14.49,50.85-14.49,26.51,0,47.69,8.26,59.06,22.98M735.5,245.74h-31.65v60.86h-57.28v-60.86h-31.65v148.69h31.65v-61.3h57.28v61.3h31.65v-148.69h0ZM538.47,315.96c8.47,0,13.36-1.12,16.72-4.24,4-3.34,6.46-10.47,6.46-18.72,0-9.8-4-16.93-10.91-19.39-2.46-.9-6.47-1.35-11.6-1.35h-43.68v43.7h43.02ZM495.45,394.42h-31.67v-148.69h74.24c26.07,0,35.22,2.67,45.03,13.61,8.7,9.36,13.37,21.62,13.37,34.77,0,15.6-6.22,30.09-16.49,38.79-8.69,7.35-16.73,9.58-33.65,9.58h-50.83v51.94h0ZM341.05,284.79c-4.69,7.36-6.91,19.15-6.91,35,0,34.77,12.03,50.6,38.79,50.6s38.35-15.84,38.35-50.16-11.82-50.39-38.35-50.39c-14.5,0-25.87,5.35-31.89,14.94M431.79,267.62c9.15,12.03,14.27,31.64,14.27,54.62,0,26.07-8.26,47.48-22.97,59.29-11.14,8.91-28.08,13.82-48.15,13.82-28.54,0-51.05-9.37-62.65-26.08-8.7-12.26-12.93-28.54-12.93-48.38,0-28.51,7.81-50.15,22.53-61.75,11.57-9.35,29.86-14.49,50.82-14.49,26.53,0,47.72,8.26,59.08,22.98"></path></svg>