<svg xmlns="http://www.w3.org/2000/svg" id="Layer_1" data-name="Layer 1" viewBox="0 0 1200 640"><defs><style>      .cls-1 {        fill: #024ad8;      }      .cls-2 {        fill: #fff;      }      .cls-3 {        fill: #231f20;      }    </style></defs><g id="Layer_1-2" data-name="Layer 1-2"><g><path class="cls-3" d="M681.93,368.99l.5-49.61-.5-48.18c0-.78.35-1.15,1.15-1.15h35.24c23.1,0,36.81,10.51,36.81,31.24s-14.16,32.17-36.74,32.17h-18.94l.29,35.53c0,.79-.43,1.15-1.15,1.15h-15.52c-.79,0-1.15-.35-1.15-1.15h0ZM719.53,320.6c10.65,0,18.65-5.36,18.65-19.02,0-12.72-7.01-18.65-19.23-18.65h-19.37l-.29,37.67h20.24Z"></path><path class="cls-3" d="M755.41,333.46c0-23.23,13.23-38.68,36.39-38.68s36.17,15.08,36.17,38.39-12.94,38.68-36.17,38.68-36.39-15.08-36.39-38.39ZM810.39,333.46c0-17.58-6.16-27.1-18.65-27.1-12.72.14-18.8,9.58-18.8,27.24s6.29,26.67,18.88,26.67,18.59-8.94,18.59-26.81h-.02Z"></path><path class="cls-3" d="M834.61,368.99l.43-49.25-.5-48.54c0-.78.43-1.15,1.21-1.15h14.73c.79,0,1.22.35,1.22,1.15l-.5,48.47.5,49.32c0,.79-.43,1.15-1.22,1.15h-14.73c-.78,0-1.15-.35-1.15-1.15h.02Z"></path><path class="cls-3" d="M876.65,393.08l7.93-22.52-29.24-72.69c-.35-.78.08-1.36.93-1.36h16.86c.64,0,1.15.29,1.36.93l11.95,32.95,6.58,18.22,5.5-18.22,10.08-32.89c.21-.64.64-1.01,1.28-1.01h15.15c.78,0,1.22.5.93,1.36l-33.02,95.65c-.21.57-.72.93-1.36.93h-13.95c-.86,0-1.28-.5-.99-1.36Z"></path></g><g><circle class="cls-2" cx="443.63" cy="320" r="169.69"></circle><path class="cls-1" d="M443.62,477.14c-1.56,0-3.12-.03-4.67-.08l32.11-88.27h44.21c7.76,0,16.28-5.97,18.93-13.24l34.84-95.71c5.7-15.67-3.27-28.49-19.95-28.49h-61.31l-51.45,141.39h-.02l-29.18,80.15c-69.2-16.45-120.66-78.65-120.66-152.89s48.54-132.85,114.73-151.36l-30.11,82.71h0l-50.04,137.44h33.31l42.54-116.79h25.04l-42.54,116.79h33.3l39.65-108.96c5.7-15.67-3.27-28.49-19.93-28.49h-28l32.15-88.34c2.34-.11,4.69-.17,7.07-.17,86.79,0,157.15,70.36,157.15,157.15s-70.36,157.15-157.15,157.15h-.03ZM538.71,271.92h-25.02l-35.04,96.16h25.04l35.04-96.16h-.02Z"></path></g></g></svg>