<svg xmlns="http://www.w3.org/2000/svg" id="ae773f62-8b37-4fc5-a65f-2a5ad5453189" data-name="Layer 1" viewBox="0 0 1200 640"><path d="M391.65474,320.02094c0-20.23561.03915-40.4714-.05474-60.70657-.01048-2.26294.60383-2.80747,2.83424-2.8,33.39332.11111,66.787.10032,100.18045.18991a56.85321,56.85321,0,0,1,20.716,3.57674c11.83105,4.62367,17.465,13.83865,18.68986,25.99209a115.12645,115.12645,0,0,1,.30644,21.62312,28.65288,28.65288,0,0,1-8.72065,18.067c-1.31711,1.32133-1.32012,1.69422.32126,2.69863,4.90285,3.00024,6.89971,7.87627,6.99894,13.27315.24454,13.29621.08655,26.59939.18257,39.8991.01272,1.76212-.6925,1.96968-2.18225,1.95971-8.58667-.05745-17.17495-.09775-25.76033.02226-2.08022.02907-2.49711-.64907-2.48536-2.57657.08042-13.20491.04746-26.41054.03914-39.61594-.00321-5.12651-1.6491-6.88656-6.77733-7.56658a78.5343,78.5343,0,0,0-10.28608-.38547c-19.84567-.02168-39.69176.05447-59.53645-.08571-2.752-.01943-3.16039.8565-3.14253,3.2922.10818,14.72466-.00576,29.451.11493,44.17544.01919,2.34142-.71333,2.79024-2.87657,2.76067q-12.87816-.17605-25.75976.00377c-2.22475.03326-2.86891-.51431-2.858-2.80535C391.69511,360.68236,391.65471,340.35155,391.65474,320.02094Zm69.26275-34.9478-.00025-.21753c-11.63206,0-23.26471.06117-34.89565-.05291-2.25793-.02214-3.15676.3503-3.05693,2.86549.21437,5.40292.16655,10.82295.0136,16.23-.05705,2.01574.50619,2.48638,2.50344,2.47868,22.31034-.086,44.621-.0591,66.93163-.09451a32.89251,32.89251,0,0,0,5.11519-.40231c3.69455-.59,5.60657-2.8411,5.709-6.61073.0567-2.0871.0179-4.17693.01346-6.26551-.01154-5.41909-2.04859-7.8147-7.44425-7.88447C484.17874,284.969,472.54742,285.07314,460.91749,285.07314Z" fill="#242021"></path><path d="M902.31361,320.09653c0-20.14659.0381-40.29335-.05173-60.43954-.01042-2.336.32394-3.17374,3.00648-3.16653q59.98373.16113,119.968.0117c2.47785-.00548,2.95357.71046,2.9068,3.00449-.15121,7.40937-.20622,14.82827.02076,22.23379.08564,2.795-.93165,3.17222-3.37573,3.166-29.3-.07484-58.60026-.0069-87.9-.11586-2.76943-.01029-3.567.6568-3.43886,3.42877.24111,5.21567.16771,10.453.02048,15.67557-.05746,2.03737.59421,2.49865,2.55741,2.49182,20.13767-.0701,40.27583-.00363,60.41322-.09782,2.2559-.01055,2.84109.56886,2.79614,2.79534-.14778,7.31443-.16973,14.63645.01014,21.94946.05816,2.36249-.75178,2.71185-2.85787,2.704-19.94675-.07432-39.89421.01237-59.84048-.11348-2.59326-.01636-3.18307.67785-3.09065,3.1432.19916,5.31438.17246,10.64474.00671,15.96142-.06683,2.14565.52192,2.66751,2.67548,2.66192,29.77714-.07742,59.55477-.006,89.33163-.12685,2.85227-.01158,3.42823.778,3.36014,3.45136-.19336,7.59761-.111,15.20368-.03467,22.80542.01706,1.69456-.40406,2.286-2.22633,2.28375q-61.12931-.07687-122.2587.01824c-2.45842.00487-1.99473-1.35333-1.995-2.71619Q902.30952,350.6015,902.31361,320.09653Z" fill="#242021"></path><path d="M737.56805,320.02321c0-20.24233.03607-40.48482-.05131-60.72677-.00958-2.22338.54115-2.84685,2.82067-2.83919,32.83131.11019,65.663.08967,98.4944.17208,10.478.0263,20.18081,2.61691,28.34811,9.50417,7.195,6.06735,10.43256,14.28786,12.26706,23.18075a62.53909,62.53909,0,0,1,1.18611,12.73752q-.04133,39.48675.04138,78.97341c.00734,2.25789-.58736,2.83053-2.82508,2.79538-8.58785-.13491-17.18081-.15246-25.76783.00688-2.47359.04589-2.91848-.76728-2.91184-3.04053q.11892-40.62687.05131-81.25427a31.1004,31.1004,0,0,0-.593-7.361,8.65241,8.65241,0,0,0-7.52366-7.11473,22.24532,22.24532,0,0,0-3.69675-.305c-21.85654-.01777-43.71337.03019-65.56942-.07353-2.42473-.01151-2.93588.64941-2.92882,2.97517.09451,31.076.05173,62.15241.14792,93.22839.0072,2.3289-.4869,3.01825-2.92337,2.97091-8.5866-.16685-17.17977-.14243-25.76763-.012-2.23108.0339-2.86436-.52227-2.85367-2.80585C737.608,360.69811,737.56812,340.36057,737.56805,320.02321Z" fill="#252022"></path><path d="M101.913,256.56534c22.51688,0,45.03384.02668,67.55049-.04385,2.10844-.00661,2.91771.34787,2.86441,2.70912q-.26044,11.53686-.00217,23.08259c.04754,2.23571-.65561,2.59375-2.70694,2.58995-34.63389-.06416-69.268-.01834-103.9018-.10217-2.561-.0062-3.44368.54862-3.32349,3.24146.23274,5.21478.17982,10.45067.014,15.67053-.06806,2.14249.51828,2.6728,2.67528,2.66712,29.48164-.07755,58.96368-.01468,88.44517-.11608,2.65742-.00914,3.56764.456,3.4703,3.32273-.24167,7.117-.17318,14.2495-.024,21.37152.04652,2.22076-.54016,2.79442-2.78878,2.78825-29.3862-.08065-58.773.002-88.15877-.13517-3.11424-.01454-3.65807.92662-3.63053,3.76164.1412,14.53393.01865,29.07027.11529,43.60492.01462,2.19953-.50619,2.88315-2.809,2.8448-8.67993-.14456-17.36418-.10351-26.04573-.02063-1.78654.01706-2.43986-.34645-2.437-2.306q.08954-61.41835-.01423-122.83677c-.00449-2.25947,1.06939-2.10907,2.58443-2.10774Q67.8514,256.58144,101.913,256.56534Z" fill="#231f20"></path><path d="M609.15949,256.56431c18.608,0,37.21614.04432,55.82362-.057,2.28673-.01245,2.8146.62227,2.77559,2.81357-.13681,7.69392-.12479,15.39284-.00441,23.08731.03125,2.00147-.52346,2.507-2.521,2.49733-16.98536-.08222-33.97163.00536-50.95657-.106-2.41857-.01586-2.95.67124-2.94413,2.99069.079,30.97517.01807,61.95072.11727,92.92576.00815,2.5431-.625,3.1652-3.14609,3.11453q-12.73415-.256-25.47587.003c-2.54828.05388-2.86975-.83506-2.86451-3.06257.07274-30.88019.0043-61.76077.12416-92.64066.011-2.84153-.78625-3.4029-3.46445-3.33911-7.91581.18855-15.83951.02105-23.759.10414-1.69493.01779-2.2955-.34685-2.27141-2.17226.10528-7.98.123-15.96345-.00864-23.94268-.03359-2.03526.75765-2.25141,2.46531-2.24692Q581.10427,256.60729,609.15949,256.56431Z" fill="#242021"></path><path d="M1102.12043,256.56513c18.60287,0,37.20587.03279,55.80839-.04623,2.06114-.00876,2.77887.37653,2.73287,2.61425-.15785,7.691-.14387,15.38869-.00678,23.08049.03817,2.13934-.52479,2.70676-2.68527,2.6948-16.6944-.09247-33.38951-.051-50.0844-.05088-3.84782,0-3.8481.0003-3.8481,3.693q-.0001,46.16535.05628,92.33055c.00657,2.36486-.57709,2.99118-2.96336,2.94535-8.29663-.15939-16.60087-.17762-24.89652.00513-2.68456.05914-3.499-.51751-3.48821-3.35751.11618-30.58649.08088-61.17358.06312-91.76049-.00265-4.45371.619-3.82619-4.00049-3.84692-7.53632-.03383-15.07536-.11327-22.60826.0506-2.44534.05319-2.97461-.70816-2.92483-3.02325.15715-7.31092.24922-14.63462-.03286-21.93808-.11863-3.071.9364-3.46792,3.6425-3.451C1065.2959,256.62,1083.70834,256.56512,1102.12043,256.56513Z" fill="#241f21"></path><path d="M683.08209,320.26266c0-20.24214.05928-40.48467-.073-60.726-.01713-2.6141.74451-3.074,3.15518-3.03219,8.58716.149,17.17935.11693,25.7679.01411,1.97516-.02365,2.55629.49042,2.55336,2.51017q-.08976,61.154.00167,122.308c.00322,2.08768-.69921,2.49051-2.61382,2.47051-8.77975-.09174-17.56188-.10809-26.341.00989-2.05135.02757-2.50127-.58727-2.49442-2.5432C683.10956,360.93712,683.08209,340.59984,683.08209,320.26266Z" fill="#262122"></path><path d="M212.04249,303.00347c7.72243,0,15.44533.04664,23.1669-.03421,1.83757-.01923,2.721.2685,2.69689,2.42469-.10951,9.77657-.07964,19.55523-.01765,29.33263.01066,1.67939-.41464,2.30493-2.22969,2.29732q-23.73889-.09947-47.47829.00246c-1.8227.00812-2.217-.5873-2.20472-2.2805.07172-9.8722.08593-19.74566-.00949-29.61746-.01818-1.88074.699-2.16952,2.337-2.15547C196.216,303.04081,204.12939,303.00352,212.04249,303.00347Z" fill="#e7382d"></path><path d="M343.05788,303.00646c7.72126,0,15.44315.053,23.16332-.038,1.88623-.02223,2.6695.34567,2.6457,2.45689-.11018,9.77508-.08459,19.55232-.015,29.32813.01216,1.71091-.45611,2.274-2.23853,2.26672q-23.73536-.09628-47.47121-.01128c-1.516.00405-2.21114-.28729-2.199-2.00766q.10571-14.94846-.00666-29.89779c-.01674-1.90309.78628-2.1375,2.38591-2.125C327.23378,303.04,335.146,303.00649,343.05788,303.00646Z" fill="#e7362c"></path><path d="M277.37963,289.00524c-7.72826.00015-15.457-.041-23.18449.03249-1.68394.016-2.33194-.36878-2.31564-2.20177q.13187-14.8191-.00056-29.6398c-.01648-1.83222.62275-2.19655,2.3087-2.19047q23.18451.08358,46.36936-.00309c1.705-.00675,2.2977.36625,2.28091,2.18574q-.13683,14.819-.00207,29.63979c.01564,1.79281-.54309,2.23331-2.27182,2.21416C292.83672,288.95672,285.1079,289.00509,277.37963,289.00524Z" fill="#e7372c"></path><path d="M277.429,384.9131c-7.63286,0-15.26629-.05036-22.89816.03635-1.85068.021-2.68753-.26949-2.66156-2.423.118-9.78376.09091-19.57.01536-29.35463-.01346-1.74034.491-2.26811,2.25362-2.26113q23.18443.0918,46.36936.00566c1.637-.00532,2.35089.26734,2.3324,2.15058q-.1456,14.81885.00641,29.6395c.02429,2.07322-.8397,2.25027-2.51911,2.23568C292.69507,384.87581,285.06188,384.91307,277.429,384.9131Z" fill="#e7372c"></path><path d="M212.00156,350.996c7.81462.00006,15.62983.0504,23.44345-.03707,1.8409-.0206,2.47154.47353,2.45431,2.3845-.08815,9.77306-.07392,19.54756-.00905,29.321.01113,1.67571-.37748,2.30991-2.21156,2.2922-9.43384-.09111-18.869-.03464-28.30376-.0471-2.83718-.00374-5.08105-1.54078-7.20477-3.109-7.86546-5.808-11.61673-14.054-13.5801-23.294a32.63533,32.63533,0,0,1-.63154-5.35473c-.08188-1.84549.63937-2.20374,2.31355-2.18834C196.18134,351.03625,204.09164,350.996,212.00156,350.996Z" fill="#e7382d"></path><path d="M211.86774,289.00734q-11.725,0-23.45-.00169c-1.20951-.0005-2.59491.31884-2.4152-1.72622,1.11558-12.69483,5.48953-23.58819,17.02215-30.49264A13.159,13.159,0,0,1,210.11269,255q12.58119.14778,25.165-.00268c1.89993-.02072,2.65465.36506,2.631,2.4602q-.16377,14.52039-.0051,29.0435c.01989,2.0095-.5975,2.57507-2.5864,2.54871C227.50191,288.94619,219.68441,289.00736,211.86774,289.00734Z" fill="#e7382d"></path><path d="M342.867,350.998c7.81714,0,15.63521.06606,23.45078-.04507,2.02887-.02886,2.66034.59419,2.51769,2.56963-.76827,10.64164-4.51088,19.90836-12.6167,27.12727a16.002,16.002,0,0,1-11.67309,4.343c-8.37957-.28163-16.776-.12463-25.16433-.04379-1.79394.01729-2.47668-.37646-2.45671-2.33189q.14985-14.664-.00479-29.32994c-.02319-2.02326.75316-2.33415,2.496-2.3189C327.23239,351.03663,335.04987,350.99805,342.867,350.998Z" fill="#e7372c"></path><path d="M342.76609,289.004c-7.72436,0-15.44929-.04968-23.1727.03607-1.85947.02064-2.69383-.29457-2.6689-2.43809.11372-9.77894.08645-19.56018.01569-29.33992-.01239-1.71115.447-2.2789,2.233-2.26181,8.96326.08577,17.92781.027,26.89188.04589a13.9123,13.9123,0,0,1,8.35758,3.28512c9.45645,7.14745,13.49221,17.05981,14.41222,28.526.14856,1.85175-.66991,2.19186-2.32374,2.17752C358.59659,288.9661,350.6812,289.00394,342.76609,289.004Z" fill="#e7362c"></path><path d="M1168.79431,368.26317a15.49769,15.49769,0,1,1-30.99275-.39621,15.49786,15.49786,0,0,1,30.99275.39621ZM1153.407,354.70673a13.44409,13.44409,0,0,0-.26432,26.88687,13.44622,13.44622,0,1,0,.26432-26.88687Z" fill="#393435"></path><path d="M1147.51394,367.65937c-.00014-2.2761.06166-4.55452-.02467-6.82738-.04733-1.2461.37435-1.66121,1.61883-1.61522,2.378.08788,4.76514-.04163,7.14079.075,3.83111.188,5.81625,4.00708,3.591,7.08874-.81386,1.12712-.78981,1.57266-.03,2.73775,1.20541,1.84845.5185,4.259,1.128,6.35367.19218.66036-.27347.814-.78456.81835-.64392.00541-1.397.16973-1.65994-.69484a5.785,5.785,0,0,1-.15233-1.12346c-.58512-6.07125-.11521-5.42251-6.96686-5.50708-1.27013-.01566-1.6735.38389-1.59136,1.61641.09438,1.4163.01825,2.84368.02195,4.26623.002.80073-.01307,1.49974-1.17045,1.46608-1.15276-.03352-1.11956-.76331-1.11991-1.54141Q1147.51317,371.21578,1147.51394,367.65937Zm5.46554-.85407c.94444,0,1.89133.04443,2.83277-.009,2.14236-.12159,2.62514-1.5873,2.479-3.34139a2.27509,2.27509,0,0,0-2.2754-2.12921c-2.03332-.16554-4.09012-.55249-6.092.22226-.04873.01885-.03048.17848-.06788.26156C1148.6479,364.49417,1150.11231,366.86569,1152.97948,366.8053Z" fill="#342f30"></path></svg>