<svg xmlns="http://www.w3.org/2000/svg" id="Layer_1" data-name="Layer 1" viewBox="0 0 1200 640"><title>Intel</title><g id="g12"><path id="path18" d="M431.91,389.86,415.8,417.75H370.75L391.41,385,371.09,275.67H415l5.93,61.39h.44l30.74-61.39h45.23L431.91,389.86"></path><path id="path20" d="M834.91,318.29c10.94-42.41,27.31-46.68,59.23-46.66,36.9,0,48.86,9.3,48.86,29.62a96.71,96.71,0,0,1-2.59,19.9c-5.11,23.58-14.19,63.19-19.06,84a67.65,67.65,0,0,0-1.46,12.65H856.65c-31.74,0-47.11-11.57-40.09-44.53,6.77-31.81,33.73-36.63,52.47-39.62,12.1-1.94,29.86-5.06,33-17.48,1.32-5.21,1.84-12.36-11-12.37-7.88,0-13.76,3.84-17,14.54Zm36.31,70.86c5.42,0,12.91-.08,12.91-.08l7.51-31.36c-22.46,3.89-33.4,9.42-34.46,20.38-.84,8.69,4.08,11.05,14,11.06"></path><path id="path22" d="M496.19,318.29c10.94-42.41,27.31-46.68,59.23-46.66,36.91,0,48.86,9.3,48.86,29.62a96.11,96.11,0,0,1-2.6,19.9c-5.1,23.58-14.18,63.19-19,84a68.5,68.5,0,0,0-1.46,12.65H517.93c-31.74,0-47.11-11.57-40.09-44.53,6.77-31.81,33.74-36.63,52.47-39.62,12.1-1.94,29.86-5.06,33-17.48,1.33-5.21,1.85-12.36-11-12.37-7.88,0-13.76,3.84-17,14.54Zm36.3,70.86c5.43,0,12.93-.08,12.93-.08l7.5-31.36c-22.46,3.89-33.4,9.42-34.46,20.38-.84,8.69,4.09,11.05,14,11.06"></path><path id="path24" d="M635.17,275.44H759.84c37.21,0,61.56,3.72,51.56,48.07-1.44,6.42-21.22,94.24-21.22,94.24H746.71s21.3-93.88,22.16-97.9c1.93-9.07-4-13.64-11-13.64H743.47L718.38,417.75H674.91s21.38-94.7,22.21-98.45c2-8.88-3.18-13.09-10.21-13.09H671.68l-25.1,111.54H603.11l32.06-142.31"></path><path id="path26" d="M250.44,275.67h43.48L261.87,417.75H218.4l32-142.08"></path><path id="path28" d="M319.6,275.69h43.47L331,417.75H287.55L319.6,275.69"></path><path id="path30" d="M354.93,207.33A36.16,36.16,0,0,0,333,215.16l-21.17,16.46c-.22-13.58-10.41-24.29-25.38-24.29-16.15,0-31.75,12.49-35.49,28.43-3.93,16.8,7.06,31.49,24.59,31.49a36.1,36.1,0,0,0,21.89-7.83L318.65,243c.22,13.59,10.41,24.29,25.38,24.29,16.15,0,31.75-12.49,35.49-28.42C383.46,222,372.46,207.33,354.93,207.33Zm-57.58,30c-2.09,8.91-11.09,16.14-20.09,16.14s-14.62-7.23-12.53-16.15,11.09-16.14,20.1-16.14S299.45,228.37,297.35,237.3Zm68.44,0c-2.09,8.92-11.1,16.15-20.1,16.15s-14.62-7.23-12.52-16.15,11.09-16.15,20.09-16.15,14.62,7.23,12.53,16.15"></path></g></svg>