<svg xmlns="http://www.w3.org/2000/svg" id="Layer_1" data-name="Layer 1" viewBox="0 0 1200 640"><defs><style>.cls-1{fill:#ffd100;}.cls-2{fill:#212721;}</style></defs><title>Jabra</title><path class="cls-1" d="M421.61,315.71c-21.22,0-21.22,5-21.22,7.33v4c0,2.12,0,7.13,21.22,7.13s21.22-5,21.22-7.13v-4C442.64,320.72,442.64,315.71,421.61,315.71Z"></path><path class="cls-1" d="M550.84,326.89v-32.4c0-2.12,0-7.14-21.22-7.14s-21.21,5-21.21,7.14v32.4c0,2.13,0,7.14,21.21,7.14S550.84,329,550.84,326.89Z"></path><path class="cls-1" d="M691.84,334.22c21.22,0,21.22-5,21.22-7.13v-4c0-2.12,0-7.33-21.22-7.33s-21.22,5-21.22,7.33v4C670.62,329.21,670.62,334.22,691.84,334.22Z"></path><path class="cls-1" d="M1036.52,169.7H163.73a19.43,19.43,0,0,0-19.48,19.48V460.76a19.43,19.43,0,0,0,19.48,19.48h872.79A19.43,19.43,0,0,0,1056,460.76V189.18A19.67,19.67,0,0,0,1036.52,169.7ZM647.67,319.18c0-5,0-14.85,44-14.85a206.65,206.65,0,0,1,21.21,1v-10.8c0-2.12,0-7.14-21.21-7.14-19.49,0-19.49,5-19.49,7.14a2.63,2.63,0,0,1-2.7,2.7H651.91a2.64,2.64,0,0,1-2.7-2.7v-3.66c0-5,0-14.86,42.44-14.86,44,0,44,9.84,44,14.86v39.92c0,5,0,14.85-44,14.85s-44-9.83-44-14.85ZM280,401a1.52,1.52,0,0,1-1.55,1.54h-6.56a1.52,1.52,0,0,1-1.54-1.54v-16.2a1.52,1.52,0,0,1,1.54-1.54h6.56a1.52,1.52,0,0,1,1.55,1.54Zm32.59-.19a1.72,1.72,0,0,1-1.73,1.73h-7.53a1.72,1.72,0,0,1-1.73-1.73v-16a1.73,1.73,0,0,1,1.73-1.74h7.53a1.73,1.73,0,0,1,1.73,1.74Zm32.79,0a1.72,1.72,0,0,1-1.73,1.73H335a1.73,1.73,0,0,1-1.74-1.73V385a1.73,1.73,0,0,1,1.74-1.73h8.68a1.72,1.72,0,0,1,1.73,1.73Zm12.93-70c0,5,0,14.85-44,14.85s-44-9.83-44-14.85V324a2.64,2.64,0,0,1,2.7-2.7h17.55a2.63,2.63,0,0,1,2.7,2.7v3.47c0,2.32.78,6.95,21.22,6.95,21.22,0,21.22-5,21.22-7.14v-77a2.64,2.64,0,0,1,2.7-2.7H356a2.64,2.64,0,0,1,2.7,2.7Zm19.86,69.83a1.72,1.72,0,0,1-1.73,1.73h-9.65a1.72,1.72,0,0,1-1.73-1.73V384.76a1.73,1.73,0,0,1,1.73-1.74h9.65a1.73,1.73,0,0,1,1.73,1.74Zm32.6,0a1.93,1.93,0,0,1-1.93,1.92h-10.8a1.93,1.93,0,0,1-1.93-1.92V385a1.94,1.94,0,0,1,1.93-1.93h10.8a1.94,1.94,0,0,1,1.93,1.93Zm-33.37-69.83V319.18c0-5,0-14.85,44-14.85a207,207,0,0,1,21.22,1v-10.8c0-2.12,0-7.14-21.22-7.14-19.68,0-19.68,5-19.68,7.14a2.63,2.63,0,0,1-2.7,2.7H381.49a2.64,2.64,0,0,1-2.7-2.7v-3.66c0-5,0-14.86,42.44-14.86,44,0,44,9.84,44,14.86v39.92c0,5,0,14.85-44,14.85C377.44,345.6,377.44,335.77,377.44,330.75Zm66.16,69.83a1.93,1.93,0,0,1-1.93,1.92H429.9a1.93,1.93,0,0,1-1.92-1.92V385.15a1.93,1.93,0,0,1,1.92-1.93h11.77a1.93,1.93,0,0,1,1.93,1.93Zm32.79-.2a2.13,2.13,0,0,1-2.12,2.12H461.34a2.14,2.14,0,0,1-2.12-2.12V385.15a2.15,2.15,0,0,1,2.12-2.13h12.93a2.14,2.14,0,0,1,2.12,2.13Zm9.26-69.82V250.13a2.63,2.63,0,0,1,2.7-2.7H505.9a2.63,2.63,0,0,1,2.7,2.7v26.62a206.46,206.46,0,0,1,21.22-1c44,0,44,9.84,44,14.85v39.93c0,5,0,14.85-44,14.85C485.65,345.6,485.65,335.57,485.65,330.56ZM509,400.38a2.14,2.14,0,0,1-2.13,2.12H493a2.13,2.13,0,0,1-2.12-2.12V385.15A2.14,2.14,0,0,1,493,383h13.88a2.15,2.15,0,0,1,2.13,2.13Zm32.79-.19a2.14,2.14,0,0,1-2.13,2.12h-15a2.13,2.13,0,0,1-2.12-2.12v-15a2.14,2.14,0,0,1,2.12-2.13h15a2.15,2.15,0,0,1,2.13,2.13Zm32.79,0a2.23,2.23,0,0,1-2.32,2.31h-16a2.22,2.22,0,0,1-2.31-2.31V385.34a2.23,2.23,0,0,1,2.31-2.32h16a2.24,2.24,0,0,1,2.32,2.32Zm32.79,0A2.23,2.23,0,0,1,605,402.5H587.88a2.23,2.23,0,0,1-2.32-2.31V385.53a2.23,2.23,0,0,1,2.32-2.31h17a2.22,2.22,0,0,1,2.31,2.31v14.66Zm9.25-58.83a2.63,2.63,0,0,1-2.7,2.7H596.36a2.64,2.64,0,0,1-2.7-2.7V290.83c0-5,0-14.86,44-14.86a2.64,2.64,0,0,1,2.7,2.7v6a2.63,2.63,0,0,1-2.7,2.7c-21.22,0-21.22,5-21.22,7.14v46.87ZM851,398.26a4.28,4.28,0,0,1-4.25,4.24H621.24a4.27,4.27,0,0,1-4.24-4.24v-10.8a4.28,4.28,0,0,1,4.24-4.24H846.72a4.28,4.28,0,0,1,4.25,4.24v10.8Zm.19-89.5a5.6,5.6,0,0,1-5.59,5.6H817.4a33.64,33.64,0,0,1-33.56-35.3c.77-17.94,16-32,34.14-32h27.59a5.65,5.65,0,0,1,5.59,5.79,5.77,5.77,0,0,1-5.79,5.59h-28A22.43,22.43,0,0,0,795,279.64c-.77,12.92,9.84,23.72,22.76,23.72h20.64a1.32,1.32,0,0,0,1.35-1.35h0V287.93a1.32,1.32,0,0,0-1.35-1.35h-9.84A5.64,5.64,0,0,1,823,280.8a5.77,5.77,0,0,1,5.78-5.6h16.59a5.6,5.6,0,0,1,5.6,5.6v28Zm78.31-.19a5.85,5.85,0,0,1-2.7,5,5.67,5.67,0,0,1-6.94-1l-44.56-44.55a1,1,0,0,0-1.74.77v39.73a5.69,5.69,0,1,1-11.38.19V252.83a5.5,5.5,0,0,1,2.7-4.82,5.78,5.78,0,0,1,6.95.77l44.75,44.75a1,1,0,0,0,1.73-.78V252.83a5.6,5.6,0,1,1,11.19-.19Z"></path><path class="cls-2" d="M637.83,287.35a2.63,2.63,0,0,0,2.7-2.7v-6a2.64,2.64,0,0,0-2.7-2.7c-44,0-44,9.84-44,14.86v50.53a2.64,2.64,0,0,0,2.7,2.7h17.56a2.64,2.64,0,0,0,2.7-2.7V294.49C616.61,292.37,616.61,287.35,637.83,287.35Z"></path><path class="cls-2" d="M465.59,330.75V290.83c0-5,0-14.86-44-14.86-42.43,0-42.43,9.84-42.43,14.86v3.66a2.63,2.63,0,0,0,2.7,2.7h17.55a2.64,2.64,0,0,0,2.7-2.7c0-2.12,0-7.14,19.67-7.14,21.22,0,21.22,5,21.22,7.14v10.8a206.86,206.86,0,0,0-21.22-1c-44,0-44,9.83-44,14.85v11.57c0,5,0,14.85,44,14.85C465.59,345.6,465.59,335.77,465.59,330.75Zm-22.95-3.86c0,2.13,0,7.14-21.22,7.14s-21.22-5-21.22-7.14v-4.05c0-2.12,0-7.33,21.22-7.33s21.22,5,21.22,7.33Z"></path><path class="cls-2" d="M573.6,330.56V290.83c0-5,0-14.86-44-14.86a206.39,206.39,0,0,0-21.21,1V250.13a2.63,2.63,0,0,0-2.7-2.7H488.16a2.64,2.64,0,0,0-2.71,2.7v80.43c0,5,0,14.85,44,14.85C573.6,345.6,573.6,335.57,573.6,330.56Zm-65-3.67v-32.4c0-2.12,0-7.14,21.22-7.14s21.21,5,21.21,7.14v32.4c0,2.13,0,7.14-21.21,7.14S508.6,329,508.6,326.89Z"></path><path class="cls-2" d="M691.84,345.6c44,0,44-9.83,44-14.85V290.83c0-5,0-14.86-44-14.86-42.44,0-42.44,9.84-42.44,14.86v3.66a2.64,2.64,0,0,0,2.71,2.7h17.55a2.64,2.64,0,0,0,2.7-2.7c0-2.12,0-7.14,19.48-7.14,21.22,0,21.22,5,21.22,7.14v10.8a207,207,0,0,0-21.22-1c-44,0-44,9.83-44,14.85v11.57C647.67,335.77,647.67,345.6,691.84,345.6Zm-21.22-22.76c0-2.12,0-7.33,21.22-7.33s21.22,5,21.22,7.33v4.05c0,2.13,0,7.14-21.22,7.14s-21.22-5-21.22-7.14Z"></path><path class="cls-2" d="M355.45,247.62H337.9a2.64,2.64,0,0,0-2.7,2.7v76.77c0,2.12,0,7.13-21.22,7.13-20.25,0-21-4.62-21.21-6.94v-3.47a2.64,2.64,0,0,0-2.7-2.7H272.51a2.64,2.64,0,0,0-2.7,2.7v6.75c0,5,0,14.85,44,14.85s44-9.84,44-14.85V250.13C358.35,248.78,357,247.62,355.45,247.62Z"></path><path class="cls-2" d="M278.3,383h-6.56a1.53,1.53,0,0,0-1.54,1.55v16.2a1.52,1.52,0,0,0,1.54,1.54h6.56a1.52,1.52,0,0,0,1.54-1.54v-16.2C280,383.8,279.26,383,278.3,383Z"></path><path class="cls-2" d="M311.09,383h-7.52a1.73,1.73,0,0,0-1.74,1.74v16a1.73,1.73,0,0,0,1.74,1.73h7.52a1.73,1.73,0,0,0,1.74-1.73v-16A2.06,2.06,0,0,0,311.09,383Z"></path><path class="cls-2" d="M343.69,383H335a1.73,1.73,0,0,0-1.74,1.74v15.82a1.73,1.73,0,0,0,1.74,1.73h8.68a1.72,1.72,0,0,0,1.73-1.73V384.76A1.73,1.73,0,0,0,343.69,383Z"></path><path class="cls-2" d="M376.28,383h-9.64a1.74,1.74,0,0,0-1.74,1.74v15.82a1.73,1.73,0,0,0,1.74,1.73h9.64a1.73,1.73,0,0,0,1.74-1.73V384.76C378.21,383.8,377.25,383,376.28,383Z"></path><path class="cls-2" d="M409.07,383h-10.8a1.94,1.94,0,0,0-1.93,1.93v15.63a1.93,1.93,0,0,0,1.93,1.92h10.8a1.93,1.93,0,0,0,1.93-1.92V385A2.25,2.25,0,0,0,409.07,383Z"></path><path class="cls-2" d="M441.67,383H429.9A1.93,1.93,0,0,0,428,385v15.43a1.93,1.93,0,0,0,1.92,1.93h11.77a1.93,1.93,0,0,0,1.93-1.93V385A2.08,2.08,0,0,0,441.67,383Z"></path><path class="cls-2" d="M474.27,383H461.34a2.15,2.15,0,0,0-2.12,2.13v15.23a2.14,2.14,0,0,0,2.12,2.12h12.93a2.13,2.13,0,0,0,2.12-2.12V385.15A2.14,2.14,0,0,0,474.27,383Z"></path><path class="cls-2" d="M506.86,383H493a2.14,2.14,0,0,0-2.12,2.13v15.23A2.13,2.13,0,0,0,493,402.5h13.88a2.14,2.14,0,0,0,2.13-2.12V385.15A2,2,0,0,0,506.86,383Z"></path><path class="cls-2" d="M539.65,383h-15a2.14,2.14,0,0,0-2.12,2.13v15a2.13,2.13,0,0,0,2.12,2.12h15a2.14,2.14,0,0,0,2.13-2.12v-15A2.15,2.15,0,0,0,539.65,383Z"></path><path class="cls-2" d="M572.25,383h-16a2.23,2.23,0,0,0-2.31,2.32v14.85a2.22,2.22,0,0,0,2.31,2.31h16a2.23,2.23,0,0,0,2.32-2.31V385.34A2.35,2.35,0,0,0,572.25,383Z"></path><path class="cls-2" d="M604.85,383h-17a2.24,2.24,0,0,0-2.32,2.32V400a2.23,2.23,0,0,0,2.32,2.31h17a2.22,2.22,0,0,0,2.31-2.31V385.34A2.22,2.22,0,0,0,604.85,383Z"></path><path class="cls-2" d="M846.72,383H621.24a4.28,4.28,0,0,0-4.24,4.25v10.8a4.28,4.28,0,0,0,4.24,4.24H846.72a4.28,4.28,0,0,0,4.25-4.24v-10.8A4.29,4.29,0,0,0,846.72,383Z"></path><path class="cls-2" d="M923.88,247a5.6,5.6,0,0,0-5.4,5.79v39.73a1,1,0,0,1-1.74.77L871.8,248.78a5.78,5.78,0,0,0-6.95-.77,5.5,5.5,0,0,0-2.7,4.82v55.93a5.65,5.65,0,0,0,5.79,5.6,5.76,5.76,0,0,0,5.59-5.79V268.84a1,1,0,0,1,1.74-.77L920,312.81a5.55,5.55,0,0,0,4.05,1.74,5.42,5.42,0,0,0,2.89-.77,5.59,5.59,0,0,0,2.7-5V252.64A5.9,5.9,0,0,0,923.88,247Z"></path><path class="cls-2" d="M845.37,275.2H828.78a5.69,5.69,0,0,0-.19,11.38h9.84a1.32,1.32,0,0,1,1.35,1.35V302h0a1.32,1.32,0,0,1-1.35,1.35H817.79a22.47,22.47,0,1,1-.39-44.94h27.78a5.69,5.69,0,1,0,.19-11.38H817.79c-17.94,0-33.18,14.08-34.14,32a33.64,33.64,0,0,0,33.56,35.3h28a5.6,5.6,0,0,0,5.59-5.6v-28C851.16,277.71,848.65,275.2,845.37,275.2Z"></path></svg>