<svg xmlns="http://www.w3.org/2000/svg" id="Layer_1" data-name="Layer 1" viewBox="0 0 1200 640"><defs><style>.cls-1{fill:#e1251b;}.cls-2{fill:#fff;}</style></defs><title>Lenovo</title><g id="Layer_2" data-name="Layer 2"><g id="Layer_1-2" data-name="Layer 1-2"><rect class="cls-1" x="159.67" y="171" width="870.17" height="290.05"></rect><path class="cls-2" d="M538.76,268.76c-12.85,0-27.47,5.95-36.4,17.88v-16H471.7V382.27h30.66V318.74c0-11.42,8.86-23.58,25.27-23.58,12.68,0,25.81,8.82,25.81,23.58v63.53h30.65V313.06c0-25.67-18.36-44.3-45.33-44.3"></path><polygon class="cls-2" points="801.97 270.63 774.25 346.68 746.54 270.63 711.52 270.63 757.46 382.23 791.05 382.23 836.98 270.63 801.97 270.63"></polygon><path class="cls-2" d="M439.08,347.94c-12.9,9.55-20.27,11.83-32,11.83-10.59,0-18.87-3.29-24.72-9l78.37-32.52c-1.71-12.11-6.3-22.93-13.39-31.16-10.29-12-25.53-18.29-44.09-18.29-33.71,0-59.12,24.87-59.12,57.71,0,33.69,25.5,57.73,62.49,57.73,20.74,0,41.95-9.83,51.87-21.32Zm-58.89-43.7c5.22-7,13.53-11.12,23.58-11.12,11.05,0,19.43,6.31,23.76,15.62L374,331C372.51,319.58,375.42,310.66,380.19,304.24Z"></path><polygon class="cls-2" points="341.17 354.12 271.49 354.12 271.49 237.25 240.42 237.25 240.42 382.26 341.17 382.26 341.17 354.12"></polygon><path class="cls-2" d="M892,384.15c-33.52,0-59.79-25-59.79-57.7,0-32.35,26.45-57.7,60.21-57.7,33.52,0,59.78,25,59.78,57.7,0,32.35-26.44,57.7-60.2,57.7M892,295c-17.12,0-29.54,13-29.54,31.43,0,17.62,13.16,31.43,30,31.43,17.12,0,29.55-13.33,29.55-31.43,0-17.63-13.17-31.43-30-31.43"></path><path class="cls-2" d="M656,384.15c-33.52,0-59.79-25-59.79-57.7,0-32.35,26.45-57.7,60.21-57.7,33.52,0,59.78,25,59.78,57.7,0,32.35-26.44,57.7-60.2,57.7M656,295c-17.12,0-29.54,13-29.54,31.43,0,17.62,13.16,31.43,30,31.43,17.12,0,29.55-13.33,29.55-31.43,0-17.63-13.17-31.43-30-31.43"></path><path class="cls-2" d="M956.41,369h-4.95v-2.82h13V369h-5v13.26h-3.08Zm11.48-2.82h3.27L976,373.8l4.85-7.61h3.19v16.08h-3V370.84l-5,7.73h-.32l-4.95-7.73v11.43h-3Z"></path></g></g></svg>