<svg xmlns="http://www.w3.org/2000/svg" id="Layer_1" data-name="Layer 1" viewBox="0 0 1200 640"><title>Logitech</title><g id="layer1"><path id="path3008" d="M205.37,373.44V205.71h29.46V373.44Z"></path><path id="path3010" d="M310.25,251.76c-37.78,0-63.92,29-63.92,62.29,0,37.1,28.44,62.66,64.21,62.66,33.95,0,63.41-25.09,63.41-62.74,0-31.67-24.41-62.21-63.7-62.21Zm-.35,28.42c19.77,0,34.32,15.39,34.32,34a33.94,33.94,0,0,1-33.78,34.08c-21,0-34.16-16.61-34.16-34C276.28,295.12,291.17,280.18,309.9,280.18Z"></path><path id="path3012" d="M448,251.76c-37.78,0-63.92,29-63.92,62.29,0,37.1,28.44,62.66,64.21,62.66,34,0,63.41-25.09,63.41-62.74,0-22.18-9.6-32-9.6-32l8.16-2.8V255.24H468.4A63.2,63.2,0,0,0,448,251.76Zm-.35,28.42c19.77,0,34.32,15.39,34.32,34a33.94,33.94,0,0,1-33.79,34.08c-21,0-34.16-16.61-34.16-34,0-19.09,14.9-34,33.63-34Z"></path><path id="path3014" d="M481.74,381.63A34,34,0,0,1,448,415.82c-21,0-34.22-16.78-34.22-34.19H383.85c0,37.11,28.44,62.67,64.21,62.67,33.95,0,63.41-25,63.41-62.67Z"></path><path id="path3016" d="M523.48,373.44V255.24h29.46v118.2Z"></path><path id="path3018" d="M581.55,373.44V281.72h-15.8V255.24h15.8V219H611v36.29h16.22v26.48H611v91.72Z"></path><path id="path3020" d="M557.66,221.67a19.51,19.51,0,1,1-19.51-19.51A19.5,19.5,0,0,1,557.66,221.67Z"></path><path id="path3022" d="M693.48,251.68c-38,0-62.42,29.06-62.42,63.43,0,35.53,24.55,61.68,63,61.68,35.91,0,53.57-22.42,53.57-22.42L728,334.65s-14.87,16-33.49,16c-15.53,0-27.94-8.67-32.27-24.55H754V318C754,285.65,735.27,251.68,693.48,251.68Zm-.93,25.94c13.57,0,27.45,7.26,30.55,24.6H661.4c2.45-12.19,13.11-24.6,31.15-24.6Z"></path><path id="path3024" d="M827.7,376.8c-38.06,0-64-29-64-63.17,0-35.27,29.31-62,63.87-62,33.41,0,50.52,23.58,50.52,23.58L857.54,295.7s-11.9-15.38-30.1-15.38c-20.17,0-34,15.43-34,33.77,0,19.36,14.67,34.22,33.73,34.22,18.49,0,30.3-15.36,30.3-15.36l20.76,20.45s-16.93,23.4-50.57,23.4Z"></path><path id="path3026" d="M889,373.52V205.28h29.46v61.81s11.29-15.43,35.83-15.43c30.85,0,48.72,22.93,48.72,52.26v69.6H973.54V308.37c0-19.7-12.27-27.88-25.86-27.88-15.49,0-29.23,8.82-29.23,29.41v63.62Z"></path></g></svg>