<svg xmlns="http://www.w3.org/2000/svg" id="Layer_1" data-name="Layer 1" viewBox="0 0 598.32 340.26"><defs><style>      .cls-1 {        fill: #25618e;      }      .cls-2 {        fill: #58595b;      }    </style></defs><g><polygon class="cls-1" points="191.41 204.55 186.23 207.32 177.48 207.97 186.47 209.22 191.41 204.55"></polygon><polygon class="cls-1" points="216.5 158.35 217.87 166.99 215.32 176.95 220.92 173.9 219.64 162.99 216.5 158.35"></polygon><polygon class="cls-1" points="194.9 185.1 200.63 180.17 200.21 176.2 194.9 185.1"></polygon><polygon class="cls-1" points="224.95 188.57 225.22 181.74 223.9 184.4 224.95 188.57"></polygon><polygon class="cls-1" points="167.72 221.17 172.61 216.65 177.48 207.97 169.82 206.37 181.88 195.88 184.22 191.17 188.17 185.86 192.17 178.38 195.98 174.08 202.57 171.44 211.42 153.75 217.02 157.2 220.67 161.57 222.76 172.68 226.95 167.83 229.47 168.96 230 171.98 228.32 181.8 225.25 189.83 227.77 202.92 225.7 202.46 227.78 209.33 226.22 209.19 228.86 217.68 226.17 216.68 229.48 224.45 230.15 226.67 274.42 226.67 205.9 113.2 137.43 226.67 164.25 226.67 169.62 221.01 167.72 221.17"></polygon></g><g><g><path class="cls-2" d="M411.93,180.86h28.13v7.11h-20.28v12.33h16.91v7.01h-17.03v19.11h-7.74v-45.56Z"></path><path class="cls-2" d="M385.04,180.86h7.67v38.33h15.92v7.17h-23.59v-45.5Z"></path></g><path class="cls-2" d="M378.61,197.94c0-10.22-6.19-16.79-16.24-17.43v-.02h-.26s-.08,0-.12-.01c0,0,0,0-.01,0h0s-1.3.01-1.3.01h0s0-.01-.01-.01c-10.28.49-16.62,7.11-16.62,17.46,0,4.89-.19,9.82.31,14.66,1,9.58,8.23,14.23,16.23,14.28h0s.04,0,.04,0c.02,0,.04,0,.05,0h0s1.3,0,1.3,0h0s.04,0,.05,0h.34c7.88-.18,14.94-4.83,15.93-14.28.51-4.85.32-9.77.31-14.66ZM370.48,210.7c-.16,3.49-1.69,6.43-5.07,7.93-1.13.5-2.26.78-3.38.86h-1.43c-1.12-.08-2.25-.36-3.38-.86-3.38-1.49-4.91-4.44-5.07-7.93-.21-4.7-.21-9.42-.02-14.12.2-4.98,3.71-8.31,8.45-8.56h1.47c4.74.25,8.25,3.59,8.45,8.56.19,4.7.19,9.42-.02,14.12Z"></path><path class="cls-2" d="M332.64,180.85c-1.18,4.6-5.55,21.63-7.56,29.72-.05.22-.11.43-.3,1.13-.4-1.16-.66-1.85-.87-2.56-2.53-8.48-5.75-19.5-8.29-28.25h-6.6c-2.54,8.76-5.76,19.77-8.29,28.25-.21.71-.48,1.41-.87,2.56-.19-.7-.25-.91-.3-1.13-2.01-8.09-6.38-25.12-7.56-29.72h-9.01c4.26,15.03,8.46,30.96,12.61,45.61h7.61c2.99-10.1,5.97-19.43,9.1-30.01,3.13,10.58,6.11,19.91,9.1,30.01h7.61c4.15-14.65,8.35-30.58,12.61-45.61h-9.01Z"></path></g><g><g><g><path class="cls-2" d="M452.27,154.5c2.42,1.02,4.86,2.04,7.27,3.06-1.82,5.97-7.12,10.2-13.9,10.5-3.16.14-6.54-.25-9.5-1.31-5.66-2.03-8.73-6.69-9.15-12.51-.45-6.12-.49-12.34,0-18.45.69-8.6,8.26-14.45,17.23-13.98,7.59.4,13.07,4.15,15.25,10.66-2.4.95-4.82,1.91-7.32,2.9-1.73-4.32-4.89-6.28-9.3-5.98-4.32.3-7.53,2.89-7.87,7.18-.44,5.48-.42,11.05-.03,16.53.31,4.29,3.38,7.04,7.16,7.5,4.68.56,7.8-1.21,9.73-5.53.07-.17.22-.3.42-.56Z"></path><path class="cls-2" d="M370.42,132.45c-2.47.98-4.86,1.92-7.33,2.9-1.82-4.43-5.09-6.42-9.66-5.93-4.43.48-7.35,3.19-7.7,7.85-.38,5.11-.36,10.31.04,15.42.36,4.58,3.35,7.42,7.23,7.9,4.73.59,7.78-1.18,9.83-5.67.05-.11.18-.17.4-.39,2.35.98,4.78,2,7.19,3.01-1.66,5.86-7.06,10.2-13.84,10.51-3.16.15-6.54-.24-9.5-1.29-5.59-1.98-8.7-6.57-9.15-12.31-.49-6.25-.54-12.59,0-18.83.73-8.52,8.28-14.26,17.18-13.83,6.77.32,11.94,3.12,14.89,9.45.15.33.24.69.41,1.21Z"></path><path class="cls-2" d="M406.17,129.22h-12.56v38.51h-7.93v-38.47h-12.58v-7.07h33.08v7.03Z"></path><path class="cls-2" d="M412.43,122.19h7.74v45.54h-7.74v-45.54Z"></path></g><path class="cls-2" d="M256.72,162.6c-.63,1.66-1.21,3.33-1.88,5.18h8.36c1.05-3.03,3.52-10.1,3.52-10.1,0,0,1.15,0,6.09.09,3.06.06,6.12,0,9.18-.08,1.41-.04,1.8.09,1.8.09,0,0,2.37,6.84,3.5,9.99h8.36c-.41-1.17-.7-2.06-1.03-2.92-4.54-12.03-11.35-30.1-16.14-42.82h-6.45c-4.75,12.68-10.64,28.23-15.3,40.57ZM281.33,150.91h-12.21c1.98-6.13,3.92-12.17,5.87-18.22h.44c1.96,6.03,3.91,12.07,5.91,18.22Z"></path></g><path class="cls-2" d="M306.98,167.72v-.04h-7.83v.04h7.83Z"></path><path class="cls-2" d="M324.69,147.2c5.58-2.64,8.57-8.13,7.64-14.01-.94-5.94-5.15-10.27-11.39-10.77-6.01-.48-12.07-.25-18.11-.33-1.19-.02-2.38,0-3.67,0v45.6h7.83v-18.57h8.56c2.11,5.13,5.91,13.98,7.9,18.57h8.83c-2.87-6.4-6.13-13.64-8.91-19.85.54-.25.94-.43,1.34-.62ZM318.07,141.8c-3.61.17-7.23.04-11.04.04v-12.39c4.3,0,8.55-.31,12.73.1,3.18.31,4.78,3.01,4.53,6.24-.26,3.4-2.64,5.85-6.23,6.02Z"></path></g></svg>