<svg xmlns="http://www.w3.org/2000/svg" id="Layer_1" data-name="Layer 1" viewBox="0 0 1200 640"><defs><style>.cls-1{fill:#737373;}.cls-2{fill:#f25022;}.cls-3{fill:#7fba00;}.cls-4{fill:#00a4ef;}.cls-5{fill:#ffb900;}</style></defs><title>Microsoft</title><path class="cls-1" d="M462.51,331.87,457,347.44h-.46a111.49,111.49,0,0,0-5.35-15.27L421.73,258.1H392.87v118H412V303.31c0-4.58,0-9.78-.16-16.19-.15-3.21-.45-5.65-.61-7.48h.46a72.48,72.48,0,0,0,2.75,10.08l35.43,86.13h13.44L498.39,289a89.37,89.37,0,0,0,2.29-9.31h.46c-.46,8.7-.76,16.49-.91,21.22v74.83h20.31V257.8h-27.8Zm77.27-40.78h19.85v84.6H539.78Zm10.08-35.73a11.89,11.89,0,0,0-8.4,3.36,11.26,11.26,0,0,0,0,16.34,11.8,11.8,0,0,0,8.4,3.2,12.2,12.2,0,0,0,8.4-3.2,10.75,10.75,0,0,0,3.51-8.1,11.32,11.32,0,0,0-3.51-8.24,11.15,11.15,0,0,0-8.4-3.36m80.17,35a54.83,54.83,0,0,0-11.14-1.22c-9,0-17.26,2-24.13,5.95a39.91,39.91,0,0,0-15.89,16.34c-3.66,7-5.49,15.12-5.49,24.44a45.31,45.31,0,0,0,5.34,21.83,36.53,36.53,0,0,0,15,15.12,44,44,0,0,0,21.84,5.35c9.46,0,17.56-2,24-5.65l.15-.15V354l-.76.61a34.07,34.07,0,0,1-9.62,5,29.46,29.46,0,0,1-9.47,1.83c-7.94,0-14.2-2.29-18.63-7.33-4.58-4.88-6.87-11.6-6.87-20,0-8.71,2.29-15.58,7-20.62s11-7.64,18.63-7.64a32.48,32.48,0,0,1,18.94,6.42l.76.61v-19.4l-.15-.15a45.69,45.69,0,0,0-9.47-3.05m65.52-.61a20.92,20.92,0,0,0-13.44,4.73c-3.36,2.75-5.65,6.72-7.64,11.45h-.15V291.09H654.47v84.6h19.85V332.48c0-7.33,1.53-13.44,4.89-17.87q5-6.87,12.83-6.87a48,48,0,0,1,6,.76,15.51,15.51,0,0,1,4.74,2l.76.61V291.24l-.46-.15c-1.37-.92-4.12-1.37-7.48-1.37m54.06-.46c-13.9,0-25.05,4.12-32.83,12.22-7.95,8.09-11.76,19.24-11.76,33.29,0,13.13,4,23.82,11.6,31.61,7.64,7.64,18,11.61,31,11.61,13.6,0,24.44-4.13,32.23-12.37s11.76-19.25,11.76-32.84c0-13.44-3.67-24.13-11.15-31.92-7.18-7.78-17.72-11.6-30.85-11.6m15.88,65.05c-3.66,4.74-9.47,7-16.64,7s-13-2.29-17.11-7.33c-4.12-4.73-6.11-11.61-6.11-20.31,0-9,2.14-15.88,6.11-20.77s9.78-7.33,17-7.33,12.53,2.29,16.5,7,6.1,11.61,6.1,20.62c-.3,9.16-2,16.34-5.8,21.07m70.4-28.09c-6.26-2.6-10.23-4.59-12.06-6.27a8.64,8.64,0,0,1-2.29-6.41,7.1,7.1,0,0,1,3.2-6.11,14.73,14.73,0,0,1,8.71-2.29,39.36,39.36,0,0,1,10.23,1.53,26.24,26.24,0,0,1,8.86,4.12l.76.61V292.77l-.46-.15a55.17,55.17,0,0,0-9-2.6,61.13,61.13,0,0,0-9.77-.91c-9.47,0-17.26,2.29-23.37,7.33a22.58,22.58,0,0,0-9,18.63,24.29,24.29,0,0,0,2,10.38,23.09,23.09,0,0,0,6.11,7.94A53.47,53.47,0,0,0,822,340.27c4.58,2,8.09,3.51,10.23,4.73a20.9,20.9,0,0,1,4.58,3.66A8.74,8.74,0,0,1,838,353.4c0,5.65-4.28,8.4-13,8.4a34.19,34.19,0,0,1-11-2,42.26,42.26,0,0,1-11.14-5.65l-.77-.61V373l.46.15a59.79,59.79,0,0,0,10.69,3.36,68.52,68.52,0,0,0,11.45,1.37c10.24,0,18.64-2.29,24.59-7.33a23.38,23.38,0,0,0,9.32-19.24c0-5.65-1.53-10.69-4.89-14.51a62,62,0,0,0-17.87-10.53m75.14-37c-13.9,0-25,4.12-32.84,12.22s-11.75,19.24-11.75,33.29c0,13.13,4,23.82,11.6,31.61,7.64,7.64,18,11.61,31,11.61,13.59,0,24.44-4.13,32.23-12.37,7.94-8.25,11.75-19.25,11.75-32.84,0-13.44-3.66-24.13-11.14-31.92-7.18-7.78-17.72-11.6-30.85-11.6m15.73,65.05c-3.67,4.74-9.47,7-16.65,7-7.33,0-13-2.29-17.1-7.33-4.13-4.73-6.11-11.61-6.11-20.31,0-9,2.14-15.88,6.11-20.77s9.77-7.33,17-7.33c6.87,0,12.52,2.29,16.49,7s6.11,11.61,6.11,20.62-2,16.34-5.8,21.07m132.4-46.88V291.09h-20v-25l-.61.15-18.94,5.65-.46.15v19.09H989.22V280.4c0-4.89,1.22-8.7,3.36-11.15s5.34-3.66,9.31-3.66a22.36,22.36,0,0,1,8.86,2l.76.46V250.77l-.45-.15a38.13,38.13,0,0,0-27,2.14,26.54,26.54,0,0,0-10.85,10.84,31.32,31.32,0,0,0-4,15.73v11.76H955.32v16.19h13.89v68.41h20V307.43h29.93V351c0,17.86,8.4,26.87,25.2,26.87a53.27,53.27,0,0,0,8.4-.91,27.42,27.42,0,0,0,6.26-2l.15-.15V358.44l-.76.61a13,13,0,0,1-4.13,1.83,13.87,13.87,0,0,1-4,.61c-4,0-6.72-.91-8.7-3.2-1.83-2.14-2.75-5.66-2.75-10.85v-40Z"></path><path class="cls-2" d="M136.92,218.4h93.61V312H136.92Z"></path><path class="cls-3" d="M240.31,218.4h93.61V312H240.31Z"></path><path class="cls-4" d="M136.92,321.79h93.61V415.4H136.92Z"></path><path class="cls-5" d="M240.31,321.79h93.61V415.4H240.31Z"></path></svg>