<svg xmlns="http://www.w3.org/2000/svg" id="uuid-64405006-dc1e-4007-a400-a355d1d6a5b7" viewBox="0 0 1200 640"><path d="m377.05544,280.41951c20.88282,0,41.76567.01544,62.64845-.01028,5.58883-.00689,11.07177.65517,16.41601,2.29755,11.53284,3.54431,18.87523,11.21374,22.23751,22.74071,1.56484,5.36461,2.15503,10.89161,2.16661,16.44149.06208,29.71137.02956,59.42296.02956,89.13446,0,.37609.00627.75248-.00531,1.12826-.08578,2.78191-.38398,3.18062-3.07367,3.19151-9.97089.04029-19.94213.03877-29.91303.00317-2.73723-.00978-3.07174-.40818-3.15056-3.11217-.03562-1.2213-.0113-2.44443-.0113-3.66673-.00034-28.95933-.00007-57.91866-.00131-86.87799-.00007-1.03417.0184-2.06982-.02846-3.10224-.20119-4.43238-2.43469-6.66931-6.92892-6.83458-2.44255-.0898-4.89081-.03101-7.33646-.03225-4.98555-.00253-9.97114-.01154-14.95665.00382-3.34937.01033-3.41665.07324-3.41892,3.53245-.00958,14.38564-.00448,28.77127-.00458,43.15691-.0001,17.3944.00152,34.78882-.00107,52.1832q-.00069,4.75718-4.62548,4.76868c-9.12447.00596-18.24897.00933-27.37344-.0022-3.97941-.00506-4.1436-.16387-4.14443-4.11674-.00658-31.59199-.00775-63.18398-.00048-94.77597.00121-5.18029.06208-4.74437-4.78257-4.74888-7.99569-.00744-15.99135-.00296-23.98704-.00021-.75228.00026-1.50497.01186-2.25669.03962-1.00042.03691-1.57983.55807-1.62833,1.56569-.04975,1.03222-.05774,2.06722-.05784,3.101-.00276,31.30991-.00165,62.61984-.00286,93.92974q-.00017,5.0029-4.95093,5.00893c-8.65413.00331-17.30829.001-25.96241.0009-.47034,0-.94078.00544-1.41095-.00306-3.29431-.05947-3.48096-.22406-3.48196-3.5638-.00785-26.51471-.00489-53.02941-.0051-79.54413-.0001-15.89002-.00238-31.78003.00193-47.67005q.00114-4.15605,4.24802-4.16593c21.91754-.00334,43.83512-.00157,65.75267-.00086Z" fill="#1b1c39"></path><path d="m113.5465,280.41978c20.87932,0,41.75866.01112,62.63796-.0067,6.35596-.00542,12.57274.81937,18.53872,3.06407,11.46828,4.31489,17.94936,12.85922,20.64267,24.561,1.14445,4.97255,1.51864,10.04796,1.53111,15.1134.07207,29.33032.03793,58.66092.03224,87.99141-.00079,4.09477-.13184,4.21743-4.32246,4.22149-9.12295.00878-18.24587.00823-27.36882.00038-4.36928-.00375-4.4511-.0833-4.45168-4.37517-.00393-29.70653-.00134-59.41306-.005-89.11959-.00017-1.31563.02883-2.63678-.07555-3.94581-.28424-3.5636-2.29807-5.67021-5.86653-6.10284-1.20743-.14636-2.44131-.09659-3.66317-.098-6.58357-.00761-13.16717-.0152-19.7507.00232-3.20016.00851-3.30799.10862-3.30968,3.36867-.01109,21.15179-.00627,42.3036-.00658,63.45539-.00014,10.62292,0,21.24581-.00014,31.86874-.00003.47002.0051.94018-.00331,1.41007-.05763,3.21671-.32066,3.51966-3.59826,3.52768-9.68717.02369-19.37451.02572-29.06166-.0021-3.1899-.00916-3.47855-.32296-3.48258-3.63594-.01693-13.91319-.00835-27.82635-.0086-41.73954-.00033-18.04933.00184-36.09868-.00174-54.14801q-.00083-4.09929-3.98875-4.10932c-8.27649-.00518-16.55296-.00274-24.82945.0005-.75198.00029-1.505.00956-2.25571.0491-1.0157.05349-1.53075.64059-1.57157,1.62852-.04268,1.03255-.05552,2.06695-.0556,3.10055-.00272,31.30466-.00153,62.60933-.00298,93.91399q-.00022,4.94743-5.00713,4.95259c-8.6527.00282-17.30538.00127-25.95807.00003-.75235-.00014-1.50719.02569-2.25654-.02493-2.15999-.14583-2.41876-.40849-2.52571-2.50796-.03343-.65648-.01338-1.31582-.01338-1.97385-.00043-41.92756-.00083-83.85515.00026-125.78271q.00012-4.65276,4.59892-4.65777c21.81983-.00176,43.63964-.00077,65.45947.00034Z" fill="#1b1c39"></path><path d="m581.57174,361.38968c-11.84785,0-23.6957-.00017-35.54355.00045-.75224.00003-1.50648-.02815-2.25624.01649-1.83162.10912-2.08469.36679-2.24178,2.14666-.00827.09345-.00854.18782-.00834.28177.01013,4.41721-.07441,8.83725.05794,13.25083.13222,4.40981,2.2641,6.44838,6.70149,6.68763,1.31322.07078,2.63195.05342,3.94813.0536,21.62707.00294,43.25406-.00017,64.88113.00427,4.60743.00095,4.62038.01815,4.62362,4.48109.00544,7.61299.00289,15.22598-.00103,22.83897-.00034.75135-.02611,1.50297-.05457,2.25394-.04237,1.11452-.65558,1.73802-1.73702,1.85013-.83926.08698-1.68851.10709-2.53329.1073-22.66138.0052-45.32311.07916-67.98373-.05258-5.23889-.03051-10.51224-.17458-15.69856-1.3422-15.55738-3.50265-24.79616-13.2023-27.29617-28.88903-.69547-4.36334-1.04127-8.7626-1.03941-13.18687.00675-15.97789-.00131-31.95579.00517-47.93368.00179-4.42064.24466-8.83532,1.00772-13.18828,1.27043-7.2478,3.80841-13.92245,9.02284-19.378,6.01918-6.29755,13.62552-9.12431,22.00601-10.38602,3.36001-.50587,6.73401-.59891,10.12206-.59374,11.2837.0172,22.56733.02385,33.85104.00034,4.53743-.00947,9.00238.52441,13.40359,1.59475,13.53016,3.29047,21.95179,11.71076,25.25323,25.22706,1.07373,4.39612,1.64428,8.86948,1.65565,13.39427.03121,12.40627.01488,24.81268.01557,37.21902.00007.46973-.02239.93943-.02818,1.40921-.01674,1.3527-.62981,2.11498-2.05161,2.1072-.84601-.00461-1.69223.02397-2.53832.02409-11.84778.00179-23.69563.00122-35.54341.00134Zm-17.87419-28.33527c4.13106,0,8.26206.00213,12.39312-.00081,2.53487-.00181,5.06981-.01792,7.60469-.01481,1.32342.00162,2.17894-.4828,2.16089-1.95411-.05298-4.31305.33843-8.64466-.19747-12.93506-.54713-4.38023-2.73062-6.35283-7.1073-6.389-9.95133-.08228-19.90424-.08414-29.85557-.00415-4.76404.03829-7.01243,2.3668-7.14258,7.1659-.09164,3.37605-.04361,6.7562-.03851,10.1345.00593,3.9292.0585,3.98703,3.87469,3.99407,6.10268.01126,12.20537.00301,18.30805.00346Z" fill="#1b1c39"></path><path d="m883.09593,364.94193c0,15.41447.00338,30.82892-.00234,46.24339-.00145,4.02567-.12905,4.17408-4.06685,4.176-21.34561.01057-42.69191.09263-64.03649-.05647-5.42492-.03791-10.88622-.17382-16.25954-1.39027-14.89568-3.37215-23.8623-12.43659-26.64583-27.46938-1.66178-8.97454-1.62816-17.95216.62795-26.83538,3.39046-13.34921,12.08996-21.27775,25.3448-24.39994,4.95737-1.16772,10.0112-1.62473,15.10341-1.62671,9.96759-.00387,19.93511.00007,29.90269-.00348.84581-.00031,1.69251-.01395,2.53722-.05459.99449-.04786,1.60714-.5714,1.60115-1.58602-.02825-4.78762.44164-9.59998-.23846-14.35559-.53638-3.75018-2.72703-5.53745-6.50209-5.81671-1.02949-.07615-2.06767-.04535-3.10184-.04547-18.33657-.00226-36.67308-.00028-55.00965-.00281q-4.44566-.0006-4.45193-4.56586c-.00344-7.51924-.00324-15.0385.00276-22.55774.00069-.8448.01406-1.69253.08454-2.53361.08199-.97871.64607-1.53523,1.64263-1.58608.7508-.03831,1.50345-.05403,2.25528-.05411,20.31123-.0021,40.62252-.00498,60.93375.00213,6.54453.00229,12.9388.93776,19.03921,3.38504,11.6406,4.66979,17.71269,13.73527,20.07352,25.66855.85959,4.34506,1.19113,8.73622,1.17949,13.16938-.03693,14.09849-.01364,28.19714-.01337,42.29573Zm-54.10335,18.88206c5.16614,0,10.33255.03011,15.49827-.013,2.50194-.02087,2.72097-.26375,2.74522-2.77978.03714-3.84902.01323-7.69864.01123-11.54801-.00096-1.87766-.02639-3.75543-.01158-5.63294.01013-1.28893-.59619-1.9065-1.88253-1.87988-.4692.00973-.9391-.01517-1.40865-.0152-9.58086-.00072-19.16164-.00599-28.7425.00952-.93386.0015-1.88956.02948-2.79745.22249-3.27485.69629-5.24068,2.73794-5.41335,5.96867-.17004,3.182-.17886,6.38933.01254,9.56925.19788,3.28876,2.11307,5.36821,5.09352,5.88751,1.10197.192,2.24488.19882,3.36945.20412,4.50849.02126,9.01719.00878,13.52582.00725Z" fill="#1b1c39"></path><path d="m973.56218,280.41872c9.03042,0,18.06084-.00124,27.09126.00201.84622.00031,1.69292.0168,2.53859.04723,1.13167.04068,1.71318.6564,1.76692,1.7726.03169.65703.05002,1.31537.0503,1.97313.00317,7.8981.00303,15.79622-.00014,23.69432-.00028.65776-.01778,1.31611-.04933,1.97313-.05347,1.11499-.63856,1.73593-1.76403,1.78323-.9393.03946-1.88026.05286-2.82053.05305-15.05091.0031-30.10174.00212-45.15265.00255-.94068.00003-1.88178-.01255-2.82198.00928-5.16614.11993-7.82489,2.5542-8.25379,7.67564-.11678,1.395-.10459,2.83508.1017,4.21667.75741,5.07165,3.11528,7.3614,8.1955,8.20215,9.0885,1.50412,18.18148,2.98311,27.2582,4.55553,4.83907.83831,9.52298,2.25192,13.88802,4.5517,9.91557,5.22409,15.23742,13.6544,16.96307,24.53626,1.13201,7.13851.81246,14.25964-.69065,21.30013-3.35691,15.72298-12.92736,24.77523-28.94548,27.60976-4.74833.84026-9.55798.90327-14.33497.93805-17.87192.13016-35.74542.05472-53.6183.05034q-4.63127-.00114-4.63789-4.75649c-.00372-7.33397-.00103-14.66791-.0009-22.00188.00007-.47013-.00634-.94042.00441-1.41033.06952-3.01983.35332-3.29532,3.48727-3.362.75217-.01601,1.50504-.00542,2.25755-.00542,16.93227-.00028,33.86447.00253,50.79674-.00565,1.40982-.00067,2.82687.00167,4.22793-.13106,2.92622-.27719,4.88337-1.8642,5.72312-4.67781.99732-3.34136.89087-6.69879-.29799-9.97233-1.0164-2.79848-3.09185-4.42148-6.02228-4.92461-5.37283-.92248-10.75139-1.81196-16.12222-2.74529-5.27789-.91715-10.59905-1.59548-15.82182-2.81891-5.74296-1.34526-11.13205-3.5239-15.78758-7.20159-6.07733-4.80072-9.7232-11.13907-11.2764-18.68398-1.95378-9.49062-1.45474-18.90994,1.33375-28.15186,3.59537-11.91604,11.76-19.17043,23.66641-22.32974,4.4655-1.18489,9.0329-1.77625,13.66975-1.7677,8.46613.0156,16.93227.00444,25.3984.00444v-.00456Z" fill="#1b1c39"></path><path d="m1032.56386,308.96233c0-21.6249-.00193-43.24977.00152-64.87467q.00083-4.82438,4.83356-4.82888c8.9361-.00241,17.87219-.00077,26.80829-.00042.56442.00002,1.1294-.0137,1.69299.00834,2.38943.09348,2.67109.3803,2.77113,2.85719.03032.75104.01061,1.50416.01075,2.25632.00055,10.53038.00014,21.06075.00124,31.59113.00014.75212-.0299,1.50712.02384,2.25578.13008,1.81019.38597,2.11634,2.20946,2.16414,2.63209.06899,5.26721.02653,7.90095.02686,9.68861.00126,19.37723-.0006,29.06584.00255.84622.00028,1.69285.01691,2.53852.04652,1.12733.0395,1.71945.6423,1.77733,1.76281.02894.56305.04919,1.12728.04933,1.69098.00317,8.08583.01364,16.17167-.00317,24.25747-.00689,3.35565-.17445,3.52978-3.48933,3.53411-11.75807.01536-23.51601.00653-35.27408.00737-.75252.00005-1.506-.02059-2.25728.01104-2.17859.0917-2.41395.31993-2.52736,2.44608-.035.65645-.01433,1.31599-.01433,1.97413-.00055,19.36837-.00289,38.73675.00496,58.10512.00055,1.31491-.01488,2.64092.13973,3.94247.37688,3.17353,2.30124,5.09217,5.49127,5.47642,1.30192.15683,2.62851.14631,3.94393.14765,10.62923.01081,21.25845.00375,31.88768.0077q4.771.00177,4.77789,4.90273c.004,7.23962.00124,14.47928.00041,21.7189,0,.65813.01654,1.31734-.01392,1.97423-.11616,2.51051-.44909,2.82613-3.05734,2.93081-.46962.01887-.94047.00974-1.41078.00974-11.19365.00034-22.38909.11918-33.58012-.05107-5.43422-.08264-10.8938-.17692-16.2634-1.40473-15.33367-3.50616-24.54881-13.28029-27.01196-28.85634-.69051-4.36694-1.02687-8.76857-1.02715-13.19226-.00165-20.96674-.00069-41.93347-.00041-62.90021Z" fill="#1b1c39"></path><path d="m714.90566,280.41878c10.43851,0,20.87696-.00145,31.31547.00275.84567.00034,1.69299.01302,2.53646.06796.86599.0564,1.37123.56969,1.49422,1.41384.08096.55542.11713,1.12211.11761,1.6838.00668,8.36577.00544,16.73155.00014,25.09731-.00034.46858-.02784.94022-.08571,1.40507-.12112.9724-.67266,1.53078-1.66798,1.57246-.93903.03934-1.87964.05518-2.81956.05535-18.33788.00319-36.67632.08452-55.01337-.04072-6.63286-.04531-9.18992,2.59256-9.1667,9.15168.06387,18.04728.02329,36.09495.01936,54.14247-.00028,1.41317.07923,2.80214.43813,4.18862.70057,2.70616,2.48981,4.1508,5.15801,4.49884,1.48416.19359,3.00277.16366,4.50587.16449,17.96169.00983,35.92346.00448,53.88515.00801q4.74557.00093,4.75391,4.63921c.00469,7.42581.00289,14.85158-.00076,22.27738-.00041.84556-.01991,1.69143-.04795,2.53661-.04065,1.22647-.6739,1.91969-1.90665,2.00075-.84346.0554-1.69051.07906-2.53591.07927-18.52598.0043-37.05258.09146-55.57745-.05076-5.52372-.04235-11.08107-.13137-16.5445-1.37133-14.88644-3.37841-23.76666-12.55887-26.78342-27.45731-.78421-3.87314-1.2036-7.79024-1.19864-11.75637.02253-17.95349.01867-35.90701.00317-53.86053-.00344-3.96386.43889-7.88083,1.18672-11.75842,2.86835-14.87045,12.5294-24.55651,27.39779-27.49911,3.97184-.78607,7.9784-1.22357,12.04242-1.20453,9.4979.04449,18.99608.0142,28.49419.01319Z" fill="#1b1c39"></path><path d="m277.51082,347.86425c0,21.06116.00121,42.12232-.00103,63.18347q-.00045,4.30675-4.41338,4.31787c-8.93627.00578-17.87257.00179-26.80884.00131-.47031,0-.94113.00816-1.41088-.00926-2.8711-.10633-3.19879-.39988-3.2032-3.33788-.0196-13.16321-.01051-26.32643-.01068-39.48964-.00034-29.14713-.00072-58.29427.00076-87.4414q.00024-4.66469,4.61077-4.66932c8.93627-.00246,17.87254-.00126,26.80881.00031.75241.00014,1.50841-.02973,2.25652.03085,1.78494.14461,2.02788.39923,2.14752,2.2564.05436.84299.02305,1.69181.02308,2.53797.00083,20.87312.00062,41.74622.00055,62.61934Z" fill="#1b1c39"></path><path d="m259.7049,259.28982c-5.16434,0-10.32886.0215-15.49303-.00864-2.78773-.01625-3.05723-.2664-3.06581-3.07715-.02897-9.47922-.02797-18.95861-.00193-28.43784.00796-2.906.27635-3.15299,3.29583-3.15881,10.14087-.01952,20.28188-.0213,30.42271.00268,2.95747.00699,3.17994.24179,3.18656,3.24601.0207,9.38542.02074,18.77095.0001,28.15635-.00686,3.12085-.16994,3.26123-3.41479,3.27396-4.97646.01951-9.95308.00513-14.92964.00344Z" fill="#1b1c39"></path><path d="m1156.51811,291.21474c0,5.27833-4.14349,9.42138-9.5353,9.42138-5.33463,0-9.59161-4.14305-9.59161-9.42138,0-5.16485,4.25697-9.3079,9.59161-9.3079,5.39181,0,9.5353,4.14305,9.5353,9.3079Zm-16.74286,0c0,4.14305,3.06495,7.43497,7.26474,7.43497,4.08631,0,7.09408-3.29192,7.09408-7.37823,0-4.14349-3.00777-7.49171-7.15126-7.49171-4.14261,0-7.20756,3.34822-7.20756,7.43497Zm5.73227,4.8807h-2.15708v-9.3079c.85157-.17023,2.04359-.28371,3.57607-.28371,1.75944,0,2.55383.28371,3.23474.6809.51112.39763.90787,1.13528.90787,2.04359,0,1.02136-.79439,1.81619-1.92923,2.15664v.11348c.90787.34045,1.41899,1.02136,1.70226,2.27012.28415,1.41899.45394,1.98641.68178,2.32686h-2.32774c-.28327-.34045-.45394-1.19158-.73721-2.27012-.17067-1.02136-.73809-1.47573-1.93011-1.47573h-1.02136v3.74586Zm.0563-5.27833h1.02224c1.19202,0,2.1562-.39719,2.1562-1.36181,0-.85157-.62372-1.41899-1.98641-1.41899-.56742,0-.96505.05674-1.19202.11348v2.66732Z" fill="#1b1c39"></path></svg>