<svg xmlns="http://www.w3.org/2000/svg" id="Layer_1" data-name="Layer 1" viewBox="0 0 1200 640"><defs><style>.cls-1{fill:#0077c0;}</style></defs><title>netapp</title><g id="layer1"><path id="path25478" d="M390.38,471.6v81.07h17.54v-51.2l38.87,51.2h15V471.6H444.42v50.1l-37.77-50.1Zm221.08,0L577.8,552.67h18l7.43-18h31.92l7.43,18h18.33l-33.5-81.07Zm-69.85,3.79V491h-7.27v15h7.27v29.08c0,14.25,7.34,18.49,18,18.49a25.53,25.53,0,0,0,13.75-3.48V536.08a17.94,17.94,0,0,1-8.69,2.21c-3.9,0-5.53-2-5.53-6V506.05h14.38V491H559.15V475.39Zm-40.77,14.54c-17.93,0-30.5,14.51-30.5,32.08v.16c0,18.84,13.73,31.92,32.23,31.92,11.14,0,19.4-4.41,25.13-11.53l-10-8.85c-4.83,4.48-9.16,6.32-15,6.32-7.82,0-13.27-4.09-15-12h42.83c.13-1.61.15-3.37.15-4.74C530.7,505.82,521.39,489.93,500.84,489.93Zm201.17,0c-9.08,0-15,4.22-19.28,10V491H665.34v80h17.39V544.61c4.13,4.94,10,9.17,19.28,9.17,14.59,0,28-11.2,28-31.77v-.31C730,501.13,716.37,489.93,702,489.93Zm71.74,0c-9.07,0-14.87,4.22-19.12,10V491H737.09v80h17.54V544.61c4.13,4.94,9.81,9.17,19.12,9.17,14.59,0,28-11.2,28-31.77v-.31C801.72,501.13,788.11,489.93,773.75,489.93ZM800,491v1.89h3.79v11.86h2.06V492.93h3.95V491Zm12.33,0v13.75h2.05V493.41l4.11,11.38h1.27l4.1-11.38v11.38h2.06V491h-3.16l-3.64,10.43L815.47,491ZM619.2,492.93,629.79,519H608.45ZM500.84,504c7.34,0,11.92,5.13,12.95,13H487.4C488.78,509,493.59,504,500.84,504Zm196.58.79c8.15,0,15,6.68,15,16.91V522c0,10.34-6.86,16.91-15,16.91s-14.85-6.68-14.85-16.91v-.31C682.57,511.47,689.27,504.79,697.42,504.79Zm71.9,0c8.17,0,15,6.68,15,16.91V522c0,10.34-6.85,16.91-15,16.91s-15-6.68-15-16.91v-.31C754.31,511.47,761.18,504.79,769.32,504.79Z"></path><path id="path25522" class="cls-1" d="M390.38,69.58V410.91H549.67V206.11h91v204.8H800V69.58Z"></path></g></svg>