<svg xmlns="http://www.w3.org/2000/svg" id="Layer_1" data-name="Layer 1" viewBox="0 0 1200 640"><defs><style>.cls-1{fill:#0b5ed7;}</style></defs><title>Philips</title><g id="layer1"><g id="g2851"><g id="g2853"><path id="path2859" class="cls-1" d="M481.15,252.82H439.91v53.7H397v-53.7H355.73V387.93H397V334.79h42.93v53.14h41.24Zm143.46,108v-108H583.37V387.93h74.57l6.2-27.15Zm-71.73-108H511.64V387.93h41.24Zm167.19,0H678.84V387.93h41.23ZM923.39,287.3c0-7.35,7.35-10.75,19.2-10.75,13,0,27.13,2.84,36.73,6.82L975.94,254a161,161,0,0,0-37.84-4c-33.33,0-55.93,13.15-55.93,40.7,0,47.48,64.41,37.88,64.41,59.93,0,8.46-6.24,13-21.48,13-13.54,0-34.46-4.51-46.89-10.73l4.53,31.1c12.43,4.54,29.36,6.78,42.93,6.78,34.45,0,62.69-11.31,62.69-45.23,0-45.2-65-36.73-65-58.22M807.06,355.71c38.38,0,62.69-19.79,62.69-54.27,0-37.87-26-51.44-68.35-51.44a465.55,465.55,0,0,0-50.27,2.82V387.93h41.24V355.71Zm22-53.7c0,17.51-8.47,29.4-30,29.4h-6.76V275.57c2.4-.13,4.65-.13,6.76-.13,20.33,0,30,9.6,30,26.57m-552.41,53.7c38.4,0,62.69-19.79,62.69-54.27,0-37.87-26-51.44-68.33-51.44a465.94,465.94,0,0,0-50.29,2.82V387.93H262V355.71Zm22-53.7c0,17.51-8.48,29.4-29.95,29.4H262V275.57c2.4-.13,4.67-.13,6.78-.13,20.33,0,29.95,9.6,29.95,26.57"></path></g></g></g></svg>