<svg xmlns="http://www.w3.org/2000/svg" id="Layer_1" data-name="Layer 1" viewBox="0 0 1200 640"><title>Samsung</title><path id="S" d="M245,343c1.15,2.89.78,6.6.22,8.85-1,4-3.68,8.07-11.66,8.07-7.48,0-12-4.33-12-10.85V337.48H189.36v9.22c0,26.7,21,34.77,43.51,34.77,21.64,0,39.46-7.36,42.3-27.35,1.47-10.34.4-17.12-.11-19.62C270,309.43,224.58,302,221.18,287.92a15.32,15.32,0,0,1-.12-6.29c.85-3.85,3.46-8,10.94-8,7,0,11.1,4.33,11.1,10.85v7.42H273v-8.43c0-26.09-23.41-30.16-40.34-30.16-21.3,0-38.7,7-41.88,26.59A41.89,41.89,0,0,0,191,296c5.2,24.46,47.73,31.54,53.92,47"></path><path d="M317.53,257.09,295.33,376.8h32.35l16.39-108.64h.67L360.68,376.8h32.19L370.8,257.06Zm180.88,0-14.75,91.52H483l-14.73-91.52H419.4L416.76,376.8h30l.73-107.62h.68l20,107.62H498.5l20-107.6h.65l.76,107.6h29.93l-2.64-119.74Z"></path><path id="S-2" data-name="S" d="M634.18,342.79a15.64,15.64,0,0,1,.22,8.86c-1,4-3.68,8.06-11.66,8.06-7.48,0-12-4.32-12-10.85V337.25H578.58v9.22c0,26.71,21,34.78,43.51,34.78,21.65,0,39.47-7.37,42.31-27.35,1.46-10.35.39-17.12-.12-19.62-5.06-25.08-50.48-32.55-53.88-46.58a15.37,15.37,0,0,1-.11-6.3c.84-3.85,3.45-8,10.93-8,7,0,11.1,4.33,11.1,10.85v7.42H662.2V283.2c0-26.08-23.41-30.16-40.33-30.16-21.31,0-38.71,7.06-41.88,26.59a41.56,41.56,0,0,0,.28,16.14c5.2,24.45,47.73,31.53,53.91,47"></path><path d="M734.67,358.87c8.32,0,10.88-5.73,11.47-8.66a26.45,26.45,0,0,0,.28-4.58V257.09h30.3V342.9q0,3.94-.28,7.88c-2.11,22.34-19.76,29.59-41.77,29.59s-39.69-7.25-41.8-29.59c-.08-1.19-.31-5.68-.28-7.88V257.06h30.3V345.6a23.94,23.94,0,0,0,.28,4.61c.56,2.93,3.15,8.66,11.5,8.66M881.06,257.09l1.63,94H882l-27.54-94H810.08V375.54h29.43l-1.63-97.23h.65l29.54,97.23h42.64V257.09Zm103.3,100.54c8.66,0,11.69-5.48,12.23-8.71a26.09,26.09,0,0,0,.28-4.5V327H984.58V309.57H1027v32.1a75.5,75.5,0,0,1-.42,7.87c-2,21.81-20.89,29.6-42.11,29.6s-40.11-7.79-42.11-29.6c-.33-4-.42-5.62-.42-7.87V291.3c0-2.14.28-5.91.51-7.87,2.67-22.41,20.8-29.6,42-29.6s39.83,7.14,42,29.57a69.24,69.24,0,0,1,.29,7.87v4H996.59v-6.72a28,28,0,0,0-.37-4.55c-.56-2.65-2.81-8.72-12-8.72-8.72,0-11.28,5.77-11.92,8.72a26.72,26.72,0,0,0-.51,5.65v54.72a30.27,30.27,0,0,0,.28,4.56c.57,3.2,3.6,8.68,12.26,8.68"></path></svg>