<svg xmlns="http://www.w3.org/2000/svg" id="Layer_1" data-name="Layer 1" viewBox="0 0 599 99.3"><defs><style>      .cls-1 {        fill: #004fb5;      }    </style></defs><path class="cls-1" d="M188.66,15.14c6.03,7.93,9.41,20.85,9.41,35.99,0,17.18-5.44,31.28-15.14,39.07-7.34,5.87-18.5,9.11-31.73,9.11-18.8,0-33.64-6.18-41.28-17.18-5.73-8.08-8.52-18.8-8.52-31.88,0-18.79,5.14-33.05,14.85-40.69,7.62-6.16,19.68-9.55,33.48-9.55,17.48,0,31.44,5.44,38.93,15.14M128.87,26.45c-3.09,4.85-4.55,12.62-4.55,23.07,0,22.91,7.93,33.34,25.56,33.34s25.27-10.43,25.27-33.05-7.79-33.2-25.27-33.2c-9.55,0-17.05,3.53-21.01,9.85M230.61,98.69h-20.87V.71h48.92c17.18,0,23.21,1.76,29.67,8.97,5.73,6.17,8.81,14.24,8.81,22.91,0,10.28-4.1,19.83-10.86,25.56-5.72,4.84-11.02,6.31-22.18,6.31h-33.49v34.22ZM258.95,46.99c5.58,0,8.81-.74,11.01-2.8,2.64-2.2,4.25-6.9,4.25-12.34,0-6.46-2.64-11.16-7.19-12.78-1.62-.59-4.26-.89-7.65-.89h-28.78v28.8h28.35ZM388.78.72h-20.86v40.1h-37.74V.72h-20.86v97.97h20.86v-40.39h37.74v40.39h20.86V.72ZM488,15.14c6.03,7.93,9.41,20.85,9.41,35.99,0,17.18-5.43,31.28-15.13,39.07-7.34,5.87-18.5,9.11-31.73,9.11-18.8,0-33.63-6.18-41.26-17.18-5.73-8.08-8.53-18.8-8.53-31.88,0-18.79,5.14-33.05,14.84-40.69,7.64-6.16,19.69-9.55,33.5-9.55,17.47,0,31.43,5.44,38.91,15.14M428.23,26.45c-3.09,4.85-4.55,12.62-4.55,23.07,0,22.91,7.92,33.34,25.55,33.34s25.27-10.43,25.27-33.05-7.78-33.2-25.27-33.2c-9.54,0-17.04,3.53-20.99,9.85M2.13,98.69h52.82c14.82,0,21.11-.9,26.05-4.04,7.78-4.78,12.72-14.17,12.72-24.81,0-8.68-3-17.09-7.48-21.59-5.84-5.99-13.77-8.23-28.45-8.23h-16.02c-7.19,0-12.48-.3-15.47-1.64-3.59-1.65-5.69-4.83-5.69-9.31,0-5.24,2.54-8.67,6.73-9.73,3.15-.74,6.79-.74,16.22-.89h47.29V.64h-52.07c-11.68,0-16.92.44-21.41,2.1C7.04,6.32,0,16.94,0,29.66c0,8.69,3.46,16.36,9.44,21.6,5.24,4.49,13.03,6.59,25,6.59h21.31c4.79,0,8.68.6,10.78,1.79,4.03,1.95,6.43,5.56,6.43,10.21,0,3.89-1.79,6.69-4.94,8.63-2.54,1.66-6.89,2.4-14.82,2.4H2.13v17.81ZM507.41,98.69h52.82c14.82,0,21.11-.9,26.05-4.04,7.78-4.78,12.72-14.17,12.72-24.81,0-8.68-3-17.09-7.48-21.59-5.84-5.99-13.77-8.23-28.45-8.23h-16.02c-7.19,0-12.48-.3-15.47-1.64-3.59-1.65-5.69-4.83-5.69-9.31,0-5.24,2.54-8.67,6.73-9.73,3.15-.74,6.79-.74,16.22-.89h47.29V.64h-52.07c-11.68,0-16.92.44-21.41,2.1-10.33,3.59-17.37,14.2-17.37,26.93,0,8.69,3.46,16.36,9.44,21.6,5.24,4.49,13.03,6.59,25,6.59h21.31c4.79,0,8.68.6,10.78,1.79,4.03,1.95,6.43,5.56,6.43,10.21,0,3.89-1.79,6.69-4.94,8.63-2.54,1.66-6.89,2.4-14.82,2.4h-51.08v17.81Z"></path></svg>