<svg xmlns="http://www.w3.org/2000/svg" id="Layer_1" data-name="Layer 1" viewBox="0 0 1200 640"><defs><style>.cls-1{fill:#7b7979;}.cls-2{fill:#231f20;}.cls-3{fill:#ed1c24;}</style></defs><title>Watchguard</title><path id="path4192" class="cls-1" d="M450.68,334.09c-14.06-.28-30,2-30,14.77,0,7.86,5.56,11.39,12,11.39,9.37,0,15.37-5.43,17.42-11a11.46,11.46,0,0,0,.59-3.8Zm12.58,17.75a101.09,101.09,0,0,0,1,15.73H452.72l-1.17-8.27h-.43c-3.81,5.15-11.57,9.75-21.67,9.75-14.34,0-21.66-9.35-21.66-18.84,0-15.85,15.22-24.53,42.59-24.4v-1.35c0-5.42-1.61-15.33-16.1-15.18-6.73,0-13.61,1.76-18.59,4.88l-2.92-8c5.85-3.39,14.49-5.69,23.42-5.69,21.8,0,27.07,13.69,27.07,26.83"></path><path id="path4194" class="cls-1" d="M494.66,286.23V302H513.1V311H494.66v35.38c0,8.13,2.49,12.74,9.66,12.74a25.92,25.92,0,0,0,7.46-.81l.59,9.08A37.83,37.83,0,0,1,501,369.05c-6,0-10.83-1.89-13.9-5-3.51-3.66-5-9.49-5-17.21V311h-11V302h11V289.89"></path><path id="path4196" class="cls-1" d="M573,365.26a53.23,53.23,0,0,1-20.34,3.79c-21.37,0-35.28-13.41-35.28-33.61s14.93-35,38.05-35c7.62,0,14.35,1.76,17.86,3.52l-2.92,9.08A33.69,33.69,0,0,0,555.47,310c-16.24,0-25,11.25-25,24.94,0,15.18,10.54,24.53,24.59,24.53a39.34,39.34,0,0,0,15.8-3.11"></path><path id="path4198" class="cls-1" d="M584.85,271.32h12.88v40.94H598a22.23,22.23,0,0,1,9.22-8.41,26.6,26.6,0,0,1,13.18-3.38c9.51,0,24.73,5.42,24.73,28.06v39H632.28V329.88c0-10.71-4.25-19.52-16.4-19.52a18.52,18.52,0,0,0-17.27,11.93,13.52,13.52,0,0,0-.88,5.7v39.58H584.85"></path><path id="path4200" class="cls-1" d="M735.89,363.5a95.49,95.49,0,0,1-30.44,5c-14.93,0-27.22-3.53-36.88-12.07-8.49-7.59-13.76-19.79-13.76-34,0-27.25,20.34-47.17,53.42-47.17,11.41,0,20.49,2.3,24.73,4.2l-3.22,9.62c-5.26-2.3-11.85-3.93-21.8-3.93-24,0-39.66,13.83-39.66,36.75,0,23.17,14.92,36.86,38.05,36.86,8.34,0,14-1.08,17-2.43V329.07H703.4v-9.49h32.49"></path><path id="path4202" class="cls-1" d="M808.48,349.67c0,6.78.14,12.75.58,17.9H797.65l-.73-10.71h-.3c-3.22,5.28-10.83,12.19-23.41,12.19-11.12,0-24.44-5.82-24.44-28.73V302h12.87v36.2c0,12.47,4.25,21,15.81,21a18.48,18.48,0,0,0,17-11,15.32,15.32,0,0,0,1.17-6.1V302h12.88"></path><path id="path4204" class="cls-1" d="M863,334.09c-14.06-.28-30,2-30,14.77,0,7.86,5.56,11.39,12,11.39,9.37,0,15.37-5.43,17.42-11a11.46,11.46,0,0,0,.59-3.8Zm12.58,17.75a102.33,102.33,0,0,0,1,15.73H865l-1.16-8.27h-.44c-3.81,5.15-11.57,9.75-21.67,9.75-14.34,0-21.66-9.35-21.66-18.84,0-15.85,15.22-24.53,42.59-24.4v-1.35c0-5.42-1.6-15.33-16.1-15.18-6.73,0-13.61,1.76-18.58,4.88l-2.93-8c5.85-3.39,14.49-5.69,23.42-5.69,21.8,0,27.07,13.69,27.07,26.83"></path><path id="path4206" class="cls-1" d="M890.5,322.42c0-7.72-.15-14.37-.58-20.47h11.27l.58,12.88h.44c3.22-8.81,11.12-14.36,19.76-14.36a14.63,14.63,0,0,1,3.51.4V312a43.52,43.52,0,0,0-4.54-.28c-9.07,0-15.51,6.38-17.27,15.18a35.3,35.3,0,0,0-.43,5.7v35H890.35"></path><path id="path4208" class="cls-1" d="M978.88,328.66a20.57,20.57,0,0,0-.59-5.15c-1.9-7.46-8.93-13.69-18.58-13.69-13.32,0-21.23,10.84-21.23,25.21,0,13.42,7.17,24.4,20.93,24.4a18.95,18.95,0,0,0,19.47-19.38Zm12.88-57.34v79.3c0,5.83.14,12.47.58,16.95H980.78l-.58-11.39h-.3c-3.95,7.32-12.44,12.87-24,12.87-17.12,0-30.44-13.41-30.44-33.34-.15-22,14.63-35.24,31.76-35.24,11,0,18.29,4.74,21.37,9.89h.29v-39"></path><path id="path4210" class="cls-1" d="M1002.83,273.38H999v-2.06h10.2v2.06h-3.89v11.45h-2.47"></path><path id="path4212" class="cls-1" d="M1023.33,279.32c-.08-1.74-.18-3.85-.16-5.69h-.06c-.44,1.66-1,3.49-1.6,5.19l-2,5.86h-1.9l-1.81-5.78c-.52-1.73-1-3.57-1.36-5.27h0c-.06,1.78-.14,3.93-.24,5.77l-.3,5.43h-2.31l.91-13.51h3.24l1.77,5.43c.48,1.59.9,3.19,1.24,4.69h.06c.36-1.46.82-3.12,1.34-4.71l1.86-5.41h3.21l.79,13.51h-2.41"></path><path id="path4214" class="cls-2" d="M351.66,264.07a92,92,0,0,1,23,55.1c0,.17,0,.06,0,.06-4.76,21-11.86,45.41-22.31,68.18,0,0-13,.53-36,.88-5.42-33.14-14.55-68.45-20.85-92.69h-.31c-6.3,24.24-15.43,59.55-20.85,92.69-23-.35-36.05-.88-36.05-.88C212.53,331.54,207,265.58,207,265.58c11.77-.85,21.69-1.19,31.77-1.45,2.51,24.76,11.16,73.7,16.06,87.68h.42c4.37-29.39,12-59.85,24.11-88.6,11.52-.25,19.43-.42,31.28,0h.4c12.1,28.75,19.75,59.21,24.12,88.6h.42c4.9-14,13.55-62.92,16.06-87.68"></path><path id="path4216" class="cls-1" d="M282.22,431.5a106.29,106.29,0,1,1,0-212.57,108.59,108.59,0,0,1,11.32.59,106.29,106.29,0,0,1-11.32,212ZM294.5,209.87A116,116,0,1,0,398.2,325.21,116,116,0,0,0,294.5,209.87"></path><path id="path4218" class="cls-3" d="M508.77,211.25a24.21,24.21,0,0,1-10.72,32.51l-67.19,33.85a24.2,24.2,0,1,1-21.78-43.23l67.18-33.86a24.21,24.21,0,0,1,32.51,10.73"></path></svg>