<svg xmlns="http://www.w3.org/2000/svg" id="Layer_1" data-name="Layer 1" viewBox="0 0 1200 640"><defs><style>      .cls-1 {        fill: #fff;      }    </style></defs><path class="cls-1" d="M599.99,454.77c-1.34,0-2.68-.03-4.01-.06l27.54-75.7h37.91c6.65,0,13.96-5.12,16.23-11.36l29.88-82.09c4.88-13.44-2.81-24.43-17.11-24.43h-52.59l-44.12,121.26h-.02l-25.02,68.74c-59.34-14.11-103.48-67.46-103.48-131.12s41.63-113.93,98.39-129.81l-25.81,70.94h0l-42.91,117.88h28.57l36.49-100.17h21.47l-36.49,100.17h28.55l34.01-93.45c4.89-13.44-2.81-24.43-17.09-24.43h-24.01l27.57-75.76c2.01-.09,4.03-.14,6.06-.14,74.44,0,134.79,60.35,134.79,134.79s-60.35,134.79-134.79,134.79v-.02ZM681.55,278.76h-21.46l-30.06,82.47h21.47l30.06-82.47h0Z"></path></svg>