<svg xmlns="http://www.w3.org/2000/svg" id="Layer_1" data-name="Layer 1" viewBox="0 0 1200 640"><defs><style>      .cls-1 {        fill: #fff;      }    </style></defs><path class="cls-1" d="M809.47,305.18c-12.06,0-20.82,9.16-20.82,22.15s9.27,22.15,21.14,22.15,20.82-9.39,20.82-22.15c0-12.41-9.29-22.15-21.15-22.15Z"></path><path class="cls-1" d="M643.16,305.18c-12.06,0-20.82,9.16-20.82,22.15s9.27,22.15,21.14,22.15,20.82-9.39,20.82-22.15c0-12.41-9.3-22.15-21.15-22.15Z"></path><path class="cls-1" d="M465.42,303.86c-7.05,0-12.94,2.9-16.62,7.84-3.36,4.52-5.41,10.81-4.38,18.82l37.74-15.65c-3.05-6.56-8.96-11.01-16.74-11.01Z"></path><path class="cls-1" d="M293.41,217.8v204.39h613.18v-204.39H293.41ZM421.31,366.67h-71v-102.18h21.89v82.35h49.1v19.83ZM467.7,350.83c8.29,0,13.49-1.61,22.55-8.34l13.65,10.52c-6.99,8.1-21.94,15.02-36.55,15.02-26.07,0-44.04-16.91-44.04-40.68s17.91-40.67,41.66-40.67c13.08,0,23.82,4.45,31.07,12.89,5,5.8,8.23,13.39,9.44,21.96l-55.23,22.92c4.18,4.06,10.01,6.38,17.45,6.38ZM592.46,366.68h-21.57v-44.77c0-10.4-9.25-16.62-18.19-16.62-11.56,0-17.81,8.57-17.81,16.62v44.77h-21.61v-78.68h21.61v11.27c6.29-8.41,16.6-12.6,25.65-12.6,19.03,0,31.94,13.13,31.94,31.22l-.03,48.78ZM643.16,368.01c-23.62,0-42.13-17.62-42.13-40.66s18.64-40.66,42.43-40.66,42.13,17.62,42.13,40.66c0,22.8-18.62,40.66-42.42,40.66ZM714.65,366.65l-32.37-78.64h24.66l19.53,53.59,19.57-53.59h24.66l-32.37,78.64h-23.69ZM809.47,368.01h0c-23.62,0-42.13-17.62-42.13-40.66s18.64-40.66,42.43-40.66,42.13,17.62,42.13,40.66-18.63,40.66-42.42,40.66h0ZM860.52,357.33h-3.52v9.34h-2.17v-9.34h-3.49v-1.99h9.16l.02,1.99ZM874.33,366.67h-2.11v-8.05l-3.52,5.45h-.23l-3.49-5.45v8.05h-2.11v-11.33h2.3l3.49,5.36,3.42-5.36h2.25v11.32Z"></path></svg>