<svg xmlns="http://www.w3.org/2000/svg" id="Layer_1" data-name="Layer 1" viewBox="0 0 1200 640"><defs><style>      .cls-1 {        fill: #fff;      }    </style></defs><path class="cls-1" d="M474.54,333.86l-5.1,14.41h-.43c-1.31-4.83-2.96-9.55-4.95-14.14l-27.27-68.57h-26.72v109.24h17.71v-67.38c0-4.24,0-9.05-.15-14.99-.14-2.97-.42-5.23-.56-6.92h.43c.62,3.17,1.47,6.29,2.55,9.33l32.8,79.73h12.44l32.47-80.4c.86-2.83,1.57-5.71,2.12-8.62h.43c-.43,8.05-.7,15.27-.84,19.64v69.27h18.8v-109.18h-25.74l-27.98,68.57ZM546.07,296.11h18.38v78.32h-18.38v-78.32ZM555.4,263.03c-2.9-.03-5.7,1.09-7.78,3.11-4.18,3.96-4.35,10.56-.39,14.74.13.13.26.26.39.39,2.1,1.97,4.89,3.04,7.78,2.96,2.87.04,5.66-1.02,7.78-2.96,2.11-1.92,3.29-4.65,3.25-7.5.01-2.88-1.16-5.64-3.25-7.63-2.04-2.09-4.86-3.22-7.78-3.11M629.61,295.43c-3.39-.73-6.85-1.11-10.31-1.13-8.33,0-15.98,1.85-22.34,5.51-6.27,3.51-11.38,8.76-14.71,15.13-3.39,6.48-5.08,14-5.08,22.62-.08,7.04,1.62,13.99,4.94,20.21,3.14,5.94,7.97,10.81,13.89,14,6.2,3.37,13.16,5.08,20.22,4.95,8.76,0,16.26-1.85,22.22-5.23l.14-.14v-17.01l-.7.56c-2.7,2.01-5.71,3.57-8.91,4.63-2.81,1.04-5.77,1.61-8.77,1.69-7.35,0-13.15-2.12-17.25-6.79-4.24-4.52-6.36-10.74-6.36-18.51s2.12-14.42,6.48-19.09c4.36-4.67,10.18-7.07,17.25-7.07,6.32.09,12.46,2.17,17.53,5.94l.7.56v-17.96l-.14-.14c-2.81-1.26-5.75-2.2-8.77-2.82M690.31,294.79c-4.53-.04-8.93,1.51-12.44,4.38-3.11,2.55-5.23,6.22-7.07,10.6h-.14v-13.66h-18.41v78.32h18.38v-40c0-6.79,1.42-12.44,4.53-16.54,3.09-4.24,7.04-6.36,11.88-6.36,1.86.12,3.72.35,5.55.7,1.56.37,3.04.99,4.39,1.85l.7.56v-18.39l-.43-.14c-1.27-.85-3.81-1.27-6.92-1.27M740.36,294.41c-12.87,0-23.19,3.81-30.39,11.31-7.36,7.49-10.89,17.81-10.89,30.82,0,12.15,3.7,22.05,10.74,29.26,7.07,7.07,16.66,10.75,28.7,10.75s22.62-3.82,29.84-11.45c7.21-7.63,10.89-17.82,10.89-30.4s-3.4-22.34-10.32-29.55c-6.65-7.2-16.4-10.74-28.56-10.74M755.06,354.63c-3.39,4.39-8.77,6.48-15.4,6.48s-12.03-2.12-15.84-6.79c-3.81-4.38-5.66-10.75-5.66-18.8s1.98-14.7,5.66-19.23c3.68-4.53,9.05-6.79,15.74-6.79s11.6,2.12,15.27,6.48c3.68,4.36,5.65,10.75,5.65,19.09-.28,8.48-1.85,15.13-5.37,19.51M820.28,328.58c-5.8-2.41-9.47-4.25-11.16-5.8-1.49-1.6-2.26-3.75-2.12-5.93-.06-2.27,1.06-4.41,2.96-5.66,2.4-1.53,5.22-2.27,8.06-2.12,3.21.05,6.39.53,9.47,1.42,2.95.75,5.73,2.04,8.2,3.81l.7.56v-17.2l-.43-.14c-2.7-1.04-5.49-1.84-8.33-2.41-2.99-.52-6.01-.8-9.04-.84-8.77,0-15.98,2.12-21.63,6.79-5.4,4.06-8.51,10.49-8.33,17.25-.1,3.3.54,6.58,1.85,9.61,1.32,2.83,3.26,5.34,5.66,7.35,3.44,2.6,7.2,4.74,11.19,6.37,4.24,1.85,7.49,3.25,9.47,4.38,1.57.92,2.99,2.07,4.24,3.39.78,1.33,1.16,2.85,1.1,4.39,0,5.23-3.96,7.78-12.03,7.78-3.47-.05-6.91-.68-10.18-1.85-3.68-1.22-7.15-2.99-10.31-5.23l-.71-.56v18.01l.43.14c3.19,1.34,6.51,2.39,9.9,3.11,3.49.72,7.04,1.14,10.6,1.27,9.48,0,17.26-2.12,22.76-6.79,5.58-4.2,8.79-10.83,8.63-17.81,0-5.23-1.42-9.9-4.53-13.43-4.93-4.16-10.52-7.45-16.54-9.75M889.7,294.42c-12.87,0-23.14,3.81-30.4,11.31-7.26,7.5-10.88,17.81-10.88,30.82,0,12.15,3.7,22.05,10.74,29.26,7.07,7.07,16.66,10.75,28.7,10.75s22.62-3.82,29.84-11.45c7.35-7.64,10.88-17.82,10.88-30.4s-3.39-22.34-10.31-29.55c-6.65-7.2-16.4-10.74-28.56-10.74M904.26,354.64c-3.4,4.39-8.77,6.48-15.41,6.48s-12.03-2.12-15.83-6.79c-3.82-4.38-5.66-10.75-5.66-18.8s1.98-14.7,5.66-19.23c3.68-4.53,9.04-6.79,15.74-6.79s11.59,2.12,15.27,6.48,5.66,10.75,5.66,19.09-1.85,15.13-5.37,19.51M1026.87,311.2v-15.09h-18.51v-23.14l-.56.14-17.53,5.23-.43.14v17.67h-27.71v-9.93c0-4.53,1.13-8.05,3.11-10.32s4.94-3.39,8.62-3.39c2.83.05,5.62.68,8.2,1.85l.7.43v-16l-.42-.14c-8.29-2.42-17.19-1.72-24.99,1.98-4.26,2.28-7.76,5.77-10.04,10.03-2.49,4.44-3.77,9.47-3.7,14.56v10.89h-12.86v14.99h12.86v63.33h18.51v-63.19h27.71v40.33c0,16.53,7.78,24.87,23.33,24.87,2.61-.07,5.21-.36,7.78-.84,2-.38,3.94-1,5.8-1.85l.14-.14v-15.15l-.7.56c-1.17.78-2.46,1.36-3.82,1.69-1.2.37-2.45.56-3.7.56-3.7,0-6.22-.84-8.05-2.96-1.69-1.98-2.55-5.24-2.55-10.04v-37.03l18.84-.05Z"></path><path class="cls-1" d="M173.13,228.82h86.66v86.65h-86.66v-86.65Z"></path><path class="cls-1" d="M268.84,228.82h86.66v86.65h-86.66v-86.65Z"></path><path class="cls-1" d="M173.13,324.53h86.66v86.66h-86.66v-86.66Z"></path><path class="cls-1" d="M268.84,324.53h86.66v86.66h-86.66v-86.66Z"></path></svg>