<svg xmlns="http://www.w3.org/2000/svg" id="Layer_1" data-name="Layer 1" viewBox="0 0 1200 640"><defs><style>      .cls-1 {        fill: #fff;      }    </style></defs><path class="cls-1" d="M762.84,330.84v41.48h131.96v31.9h-165.65v-105.29h165.65v31.9h-131.96ZM628.86,235.77h-104.41v168.46h33.69v-42.82h70.2c44.35,0,69.83-25.26,69.83-62.46s-25.48-63.17-69.31-63.17ZM626.66,329.12h-68.52v-61.44h68.52c26.53,0,36.59,12.26,36.59,31.27s-10.06,30.18-36.59,30.18ZM762.84,283.3h-33.69v-47.53h165.65v31.9h-131.96v15.63ZM482.08,235.77v168.46h-33.69v-69.04h-109.5v69.04h-33.69v-168.46h33.69v67.13h109.5v-67.13h33.69Z"></path></svg>