<svg xmlns="http://www.w3.org/2000/svg" id="Layer_1" data-name="Layer 1" viewBox="0 0 1200 640"><defs><style>      .cls-1 {        fill: none;        stroke: #fff;        stroke-miterlimit: 10;        stroke-width: 3.83px;      }      .cls-2 {        fill: #fff;      }    </style></defs><rect class="cls-1" x="254.7" y="220.56" width="690.61" height="198.88"></rect><path class="cls-2" d="M890,313.64c0-7.03-3.91-10.16-11.73-11.73-7.82-1.56-12.5-2.35-12.5-7.82,0-3.91,3.13-6.25,8.6-6.25,7.03,0,9.38,3.13,9.38,7.03l.78.78h3.13l.78-.78c0-7.82-6.26-10.95-14.07-10.95-8.6,0-13.29,4.69-13.29,10.16,0,6.25,4.69,9.38,12.5,10.94,7.82,1.57,11.73,2.35,11.73,8.6,0,3.91-2.34,7.03-10.16,7.03-7.03,0-10.16-3.91-10.16-8.6l-.78-.78h-3.13l-.78.78c0,7.03,5.47,12.51,14.85,12.51,10.16,0,14.85-4.69,14.85-10.94M856.39,305.82l.78-.78v-2.34c0-10.95-6.25-18.76-17.2-18.76s-17.2,7.82-17.2,18.76v1.56c0,10.94,5.47,20.32,17.98,20.32,10.94,0,14.85-7.03,15.63-11.73l-.78-.78h-3.13l-.78.78c-1.57,4.69-4.69,7.82-10.94,7.82-10.16,0-13.29-9.38-13.29-14.07l.78-.78h28.14ZM851.69,301.91h-23.45l-.78-.78c0-5.47,3.13-13.29,12.51-13.29s12.51,7.82,12.51,13.29l-.78.78ZM817.3,323.02v-37.52l-.78-.78h-3.13l-.78.78v37.52l.78.78h3.13l.78-.78ZM817.3,277.68v-4.69l-.78-.78h-3.13l-.78.78v4.69l.78.78h3.13l.78-.78ZM787.6,320.67c-7.82,0-12.51-5.47-12.51-16.41s4.69-16.41,12.51-16.41,12.5,5.47,12.5,16.41-4.69,16.41-12.5,16.41M800.1,318.33c0,10.16-2.35,17.98-11.73,17.98-7.03,0-9.38-3.13-10.16-7.03l-.78-.78h-3.13l-.78.78c.78,6.25,5.47,10.94,14.85,10.94,10.16,0,16.41-6.25,16.41-21.89v-32.83l-.78-.78h-2.35l-.78.78-.78,4.7h-.78c-1.56-3.13-5.47-6.26-12.51-6.26-10.94,0-16.41,8.6-16.41,20.33s5.47,20.32,16.41,20.32c7.04,0,10.95-3.12,12.51-6.25h.78ZM749.3,287.84c7.82,0,13.28,6.25,13.28,16.41s-5.47,16.41-13.28,16.41-13.29-6.25-13.29-16.41,5.47-16.41,13.29-16.41M749.3,324.58c10.16,0,17.98-7.03,17.98-20.32s-7.82-20.33-17.98-20.33-17.98,7.04-17.98,20.33,7.82,20.32,17.98,20.32M725.85,323.02v-53.15l-.78-.78h-3.13l-.78.78v53.15l.78.78h3.13l.78-.78ZM697.71,287.84c7.82,0,13.29,6.25,13.29,16.41s-5.47,16.41-13.29,16.41-13.29-6.25-13.29-16.41,5.47-16.41,13.29-16.41M697.71,324.58c10.16,0,17.98-7.03,17.98-20.32s-7.82-20.33-17.98-20.33-17.98,7.04-17.98,20.33,7.82,20.32,17.98,20.32M675.04,323.02v-23.45c0-10.16-5.47-15.63-14.07-15.63-5.47,0-10.16,2.35-12.51,6.26h-.78l-.78-4.7-.78-.78h-2.35l-.78.78v37.52l.78.78h3.13l.78-.78v-21.11c0-8.6,3.91-14.07,12.51-14.07,6.25,0,10.16,3.91,10.16,11.72v23.45l.78.78h3.13l.78-.78ZM635.17,323.02v-23.45c0-10.16-5.47-15.63-14.07-15.63-5.47,0-10.16,2.35-12.51,6.26h-.78v-20.33l-.78-.78h-3.13l-.78.78v53.15l.78.78h3.13l.78-.78v-21.11c0-8.6,3.91-14.07,12.51-14.07,6.25,0,10.16,3.91,10.16,11.72v23.45l.78.78h3.13l.78-.78ZM567.95,304.26c0-10.95,5.47-16.41,13.29-16.41s10.94,4.69,11.72,9.38l.78.78h3.13l.78-.78c-.78-7.82-7.04-13.29-16.41-13.29-10.16,0-17.98,6.26-17.98,20.33s7.82,20.32,17.98,20.32c9.38,0,15.63-5.47,16.41-13.29l-.78-.78h-3.13l-.78.78c-.78,4.69-3.91,9.38-11.72,9.38s-13.29-5.47-13.29-16.41M559.35,305.82l.78-.78v-2.34c0-10.95-6.26-18.76-17.2-18.76s-17.2,7.82-17.2,18.76v1.56c0,10.94,5.47,20.32,17.98,20.32,10.94,0,14.85-7.03,15.63-11.73l-.78-.78h-3.12l-.78.78c-1.56,4.69-4.69,7.82-10.94,7.82-10.16,0-13.29-9.38-13.29-14.07l.78-.78h28.14ZM554.66,301.91h-23.45l-.78-.78c0-5.47,3.13-13.29,12.5-13.29s12.51,7.82,12.51,13.29l-.78.78ZM533.6,272.21v-2.35l-.78-.78h-40.65l-.78.78v2.35l.78.78h17.2l.78.78v49.25l.78.78h3.13l.78-.78v-49.25l.78-.78h17.2l.78-.78Z"></path><path class="cls-2" d="M491.39,312.93v10.87h-35.3v-54.72h12.43v43.84h22.87ZM328.18,323.8c12.46,0,23.35-8.42,26.48-20.47l30.96,24.18,30.94-24.17v20.46h35.3v-10.87h-22.87v-43.84h-12.43v20.46l-29.67,23.18-6.64-5.18,14.21-11.1,15.47-12.08-8.83-6.9-29.67,23.18-6.64-5.18,29.67-23.18-8.83-6.9-30.96,24.18c-3.14-12.06-14.03-20.47-26.48-20.47h-22.18v54.72h22.18ZM318.43,312.93v-32.97h9.75c8.25,0,14.93,7.38,14.93,16.48s-6.68,16.48-14.93,16.48h-9.75Z"></path><path class="cls-2" d="M538.14,361.24h-6.65l-.33.33v18.61l-.33.33h-3.99l-.33-.33v-18.61l-.33-.33h-6.64l-.33-.33v-3.32l.33-.33h18.61l.33.33v3.32l-.33.33Z"></path><path class="cls-2" d="M549.44,380.51h-3.99l-.33-.33v-22.59l.33-.33h3.99l.33.33v22.59l-.33.33Z"></path><path class="cls-2" d="M575.35,361.24h-6.65l-.33.33v18.61l-.33.33h-3.99l-.33-.33v-18.61l-.33-.33h-6.64l-.33-.33v-3.32l.33-.33h18.61l.33.33v3.32l-.33.33Z"></path><path class="cls-2" d="M598.27,380.51h-2.99l-.33-.33-1.66-4.32-.66-.33h-8.31l-.66.33-1.66,4.32-.33.33h-2.99l-.33-.33v-3.32l7.64-19.27.33-.33h4.32l.33.33,7.64,19.27v3.32l-.33.33ZM588.64,363.23h-.33l-2.99,7.97.33.33h5.65l.33-.33-2.99-7.97Z"></path><path class="cls-2" d="M605.58,357.25h4.65l.66.33,8.97,15.28h.33v-15.28l.33-.33h3.99l.33.33v22.59l-.33.33h-4.65l-.66-.33-8.97-15.28h-.33v15.28l-.33.33h-3.99l-.33-.33v-22.59l.33-.33Z"></path><path class="cls-2" d="M637.81,380.51h-3.99l-.33-.33v-22.59l.33-.33h3.99l.33.33v22.59l-.33.33Z"></path><path class="cls-2" d="M665.38,371.54c0,5.98-3.32,9.31-9.3,9.31s-9.3-3.32-9.3-9.31v-13.95l.33-.33h3.99l.33.33v13.95c0,3.32,1.33,5.32,4.65,5.32s4.65-1.99,4.65-5.32v-13.95l.33-.33h3.99l.33.33v13.95Z"></path><path class="cls-2" d="M698.61,380.51h-3.99l-.33-.33v-12.96h-.33l-5.32,12.96-.33.33h-3.66l-.33-.33-5.32-12.96h-.33v12.96l-.33.33h-3.99l-.33-.33v-22.59l.33-.33h4.98l.33.33,6.64,16.28h.33l6.65-16.28.33-.33h4.98l.33.33v22.59l-.33.33Z"></path><path class="cls-2" d="M732.16,371.21h-6.31l-.33.33v8.64l-.33.33h-3.99l-.33-.33v-22.59l.33-.33h10.96c4.65,0,7.97,2.33,7.97,6.98s-3.32,6.98-7.97,6.98ZM732.16,361.24h-6.31l-.33.33v5.32l.33.33h6.31c1.99,0,3.32-.66,3.32-2.99s-1.33-2.99-3.32-2.99Z"></path><path class="cls-2" d="M762.39,380.51h-2.99l-.33-.33-1.66-4.32-.66-.33h-8.31l-.66.33-1.66,4.32-.33.33h-2.99l-.33-.33v-3.32l7.64-19.27.33-.33h4.32l.33.33,7.64,19.27v3.32l-.33.33ZM752.75,363.23h-.33l-2.99,7.97.33.33h5.65l.33-.33-2.99-7.97Z"></path><path class="cls-2" d="M783.65,370.88v.33l4.32,5.65v3.32l-.33.33h-1.99l-.66-.33-6.64-8.64-.66-.33h-3.32l-.33.33v8.64l-.33.33h-3.99l-.33-.33v-22.59l.33-.33h10.96c4.65,0,7.97,2.33,7.97,6.98.12,3.12-1.96,5.89-4.98,6.65ZM780.66,361.24h-6.31l-.33.33v5.32l.33.33h6.31c1.99,0,3.32-.66,3.32-2.99s-1.33-2.99-3.32-2.99Z"></path><path class="cls-2" d="M811.89,361.24h-6.65l-.33.33v18.61l-.33.33h-3.99l-.33-.33v-18.61l-.33-.33h-6.64l-.33-.33v-3.32l.33-.33h18.61l.33.33v3.32l-.33.33Z"></path><path class="cls-2" d="M818.53,357.25h4.65l.66.33,8.97,15.28h.33v-15.28l.33-.33h3.99l.33.33v22.59l-.33.33h-4.65l-.66-.33-8.97-15.28h-.33v15.28l-.33.33h-3.99l-.33-.33v-22.59l.33-.33Z"></path><path class="cls-2" d="M861.72,380.51h-15.62l-.33-.33v-22.59l.33-.33h15.62l.33.33v3.32l-.33.33h-10.96l-.33.33v4.65l.33.33h10.3l.33.33v3.32l-.33.33h-10.3l-.33.33v5.32l.33.33h10.96l.33.33v3.32l-.33.33Z"></path><path class="cls-2" d="M884.31,370.88v.33l4.32,5.65v3.32l-.33.33h-1.99l-.66-.33-6.64-8.64-.66-.33h-3.32l-.33.33v8.64l-.33.33h-3.99l-.33-.33v-22.59l.33-.33h10.96c4.65,0,7.97,2.33,7.97,6.98.12,3.12-1.96,5.89-4.98,6.65ZM881.32,361.24h-6.31l-.33.33v5.32l.33.33h6.31c1.99,0,3.32-.66,3.32-2.99s-1.33-2.99-3.32-2.99Z"></path></svg>