<svg xmlns="http://www.w3.org/2000/svg" id="Layer_1" data-name="Layer 1" viewBox="0 0 1200 640"><defs><style>      .cls-1 {        fill: #fff;      }    </style></defs><g id="Layer_2" data-name="Layer 2"><g id="Layer_1-2" data-name="Layer 1-2"><path class="cls-1" d="M824.57,275.22c0-5.39-4.36-9.75-9.75-9.75s-9.75,4.36-9.75,9.75h0v20.52c0,5.39,4.36,9.75,9.75,9.75s9.75-4.36,9.75-9.75h0v-20.52h0ZM770.88,248.4c-.13-5.42-4.63-9.7-10.04-9.57-5.23.13-9.44,4.33-9.57,9.57v47.35c.13,5.42,4.63,9.7,10.04,9.57,5.23-.13,9.44-4.33,9.57-9.57h0v-47.35ZM717.18,211.59c.23-5.39-3.96-9.95-9.35-10.18s-9.95,3.96-10.18,9.35h0v104.44c-.23,5.39,3.95,9.95,9.33,10.19,5.39.23,9.95-3.95,10.19-9.33v-104.47h0ZM663.41,248.4c.23-5.38-3.95-9.92-9.32-10.15-5.38-.23-9.92,3.95-10.15,9.32v48.17c-.23,5.38,3.95,9.92,9.32,10.15s9.92-3.95,10.15-9.32v-48.17ZM609.61,275.22c.23-5.38-3.95-9.92-9.32-10.15-5.38-.23-9.92,3.95-10.15,9.32v21.35c-.23,5.38,3.95,9.92,9.32,10.15s9.92-3.95,10.15-9.32v-21.34h0ZM556.05,248.4c0-5.39-4.38-9.77-9.77-9.76-5.39,0-9.76,4.37-9.76,9.76h0v47.35c0,5.39,4.38,9.77,9.77,9.76,5.39,0,9.76-4.37,9.76-9.76v-47.35ZM502.38,211.59c-.23-5.4-4.79-9.59-10.19-9.37-5.09.21-9.16,4.28-9.37,9.37v103.61c-.23,5.4,3.95,9.97,9.35,10.2s9.97-3.95,10.2-9.35v-104.47h0ZM448.65,248.4c-.23-5.4-4.79-9.59-10.19-9.37-5.09.21-9.16,4.28-9.37,9.37v47.35c.23,5.4,4.79,9.59,10.19,9.37,5.09-.21,9.16-4.28,9.37-9.37v-47.35h0ZM394.94,295.74c0,5.39-4.36,9.75-9.75,9.75s-9.75-4.36-9.75-9.75v-20.52c0-5.39,4.36-9.75,9.75-9.75s9.75,4.36,9.75,9.75h0v20.52Z"></path><path class="cls-1" d="M596.77,360.19c-6.28-1.6-12.74-2.44-19.22-2.5-18.18,0-29.15,9.86-29.15,24.47,0,12.93,9.2,19.4,20.12,22.86,1.29.33,3.06.93,4.28,1.33,4.87,1.55,8.74,3.81,8.74,7.79,0,4.4-4.58,7.23-14.38,7.23-6.25-.17-12.45-1.13-18.46-2.86v17.96c7,1.36,14.12,2.07,21.25,2.12,15.1,0,32.3-6.57,32.3-26.22,0-9.44-5.78-18.18-18.56-22.28l-5.45-1.75c-3.24-1.08-9.04-2.65-9.04-7.5,0-3.74,4.32-6.4,12.23-6.4,5.2.21,10.35,1.03,15.36,2.43l-.02-16.69h0ZM763.18,398.13c-.15,11.19-9.35,20.14-20.53,19.99-11.19-.15-20.14-9.35-19.99-20.53.15-11.19,9.35-20.14,20.53-19.99,10.98.15,19.84,9.01,19.99,19.99v.54M742.83,357.71c-23.99,0-41.23,18.11-41.23,40.42s17.21,40.39,41.23,40.39,41.23-18.1,41.23-40.39-17.18-40.42-41.23-40.42M475.33,360.52c-5.8-1.84-11.85-2.79-17.94-2.82-24.01,0-41.54,17.11-41.54,40.42,0,25.12,19.42,40.39,41.54,40.39,6.08-.05,12.12-.99,17.94-2.78v-20.95c-5.07,2.72-10.74,4.13-16.5,4.12-13.17,0-21.58-9.28-21.58-20.83s8.73-20.78,21.58-20.78c5.76-.03,11.43,1.38,16.5,4.11v-20.88h0ZM680.91,360.52c-5.82-1.83-11.87-2.78-17.97-2.82-23.99,0-41.64,17.11-41.64,40.42,0,25.12,19.54,40.39,41.64,40.39,6.09-.06,12.15-1,17.98-2.78v-20.95c-5.11,2.72-10.82,4.14-16.61,4.12-13.08,0-21.55-9.28-21.55-20.83s8.83-20.78,21.55-20.78c5.79-.03,11.5,1.38,16.61,4.11v-20.88s-.01,0-.01,0ZM522.12,437.14h-19.73v-78.03h19.73v78.03Z"></path></g></g></svg>