<svg xmlns="http://www.w3.org/2000/svg" xmlns:xlink="http://www.w3.org/1999/xlink" id="Layer_1" data-name="Layer 1" viewBox="0 0 1200 640"><defs><style>      .cls-1 {        fill: #fff;      }      .cls-2 {        fill: none;      }      .cls-3 {        clip-path: url(#clippath);      }    </style><clipPath id="clippath"><rect class="cls-2" x="274.32" y="197.25" width="651.36" height="245.49"></rect></clipPath></defs><g class="cls-3"><path class="cls-1" d="M409.92,236.32c8.57-10.36,14.31-24.74,12.74-39.07-12.31.45-27.23,8.2-36.04,18.54-7.92,9.16-14.87,23.81-12.99,37.84,13.72,1.07,27.76-6.98,36.29-17.31h0ZM473.59,376.76c-.3.86-5.15,17.56-16.95,34.8-10.19,14.91-20.78,29.78-37.47,30.08-16.38.31-21.66-9.72-40.38-9.72s-24.6,9.42-40.09,10.03c-16.1.61-28.37-16.13-38.64-30.98-21.03-30.39-37.07-85.87-15.5-123.29,10.68-18.61,29.84-30.38,50.62-30.68,15.82-.29,30.72,10.62,40.39,10.62s27.78-13.14,46.83-11.21c7.98.34,30.37,3.21,44.76,24.27-1.14.73-26.73,15.61-26.45,46.56.33,37.05,32.49,49.37,32.86,49.52h0Z"></path></g><path class="cls-1" d="M555.41,293.9v22.77h14.91c9.69,0,14.9-3.91,14.9-11.34v-.1c0-7.48-5.3-11.34-15.63-11.34h-14.18ZM555.41,264.71v20.84h11.96c9.55,0,14.71-3.86,14.71-10.86v-.09c0-6.37-4.48-9.89-12.3-9.89h-14.37ZM544.6,255.89h27.79c12.35,0,20.45,6.9,20.45,17.41v.1c0,7.33-5.55,14.14-12.88,15.19v.19c9.89,1.01,16.3,7.82,16.3,16.98v.1c0,12.2-8.93,19.63-23.73,19.63h-27.93v-69.61h0Z"></path><path class="cls-1" d="M604.08,307.65v-32.9h10.42v30.87c0,7.67,3.57,11.91,10.81,11.91s12.06-5.26,12.06-13.17v-29.62h10.47v50.75h-10.47v-7.62h-.24c-2.65,5.11-7.81,8.64-15.53,8.64-11.14,0-17.51-7.19-17.51-18.86h0Z"></path><path class="cls-1" d="M656.93,310.98l-.05-.43h10.33l.09.48c.96,4.68,4.44,7.43,10.86,7.43s10.03-2.6,10.03-6.71v-.05c0-3.28-1.84-5.16-7.28-6.46l-8.3-1.88c-9.65-2.22-14.43-6.85-14.43-14.23v-.05c0-9.07,7.91-15.29,19.59-15.29s19.25,6.7,19.78,15.34l.05.58h-9.79l-.05-.34c-.63-4.44-4.1-7.53-9.98-7.53s-9.12,2.65-9.12,6.71v.05c0,3.14,2.07,5.26,7.52,6.56l8.25,1.88c10.38,2.41,14.33,6.51,14.33,13.8v.05c0,9.26-8.68,15.63-20.65,15.63-12.68,0-20.12-6.27-21.18-15.54h0Z"></path><path class="cls-1" d="M708.24,274.75h10.42v50.75h-10.42v-50.75h0ZM707.37,260.95c0-3.33,2.7-6.03,6.07-6.03s6.08,2.7,6.08,6.03-2.66,5.98-6.08,5.98-6.07-2.7-6.07-5.98h0Z"></path><path class="cls-1" d="M730.4,274.75h10.42v7.67h.24c2.66-5.16,7.87-8.63,15.54-8.63,11.14,0,17.56,7.19,17.56,18.86v32.85h-10.47v-30.87c0-7.62-3.57-11.91-10.81-11.91s-12.06,5.3-12.06,13.22v29.57h-10.42v-50.75h0Z"></path><path class="cls-1" d="M793.48,295.4h25.47c-.87-8.78-5.79-13.07-12.59-13.07s-11.96,4.58-12.88,13.07h0ZM782.91,300.32v-.05c0-15.87,9.16-26.49,23.39-26.49s22.96,10.23,22.96,25.47v3.52h-35.94c.19,9.6,5.45,15.19,13.74,15.19,6.18,0,10.28-3.18,11.58-7l.15-.39h9.88l-.09.53c-1.64,8.06-9.45,15.39-21.75,15.39-14.91,0-23.93-10.18-23.93-26.2h0Z"></path><path class="cls-1" d="M835.65,310.98l-.05-.43h10.32l.1.48c.96,4.68,4.44,7.43,10.86,7.43s10.03-2.6,10.03-6.71v-.05c0-3.28-1.84-5.16-7.29-6.46l-8.3-1.88c-9.65-2.22-14.42-6.85-14.42-14.23v-.05c0-9.07,7.91-15.29,19.59-15.29s19.25,6.7,19.78,15.34l.05.58h-9.79l-.05-.34c-.63-4.44-4.1-7.53-9.98-7.53s-9.12,2.65-9.12,6.71v.05c0,3.14,2.07,5.26,7.52,6.56l8.25,1.88c10.37,2.41,14.33,6.51,14.33,13.8v.05c0,9.26-8.68,15.63-20.65,15.63-12.68,0-20.12-6.27-21.18-15.54h0Z"></path><path class="cls-1" d="M883.86,310.98l-.05-.43h10.33l.1.48c.96,4.68,4.44,7.43,10.85,7.43s10.03-2.6,10.03-6.71v-.05c0-3.28-1.84-5.16-7.28-6.46l-8.3-1.88c-9.65-2.22-14.43-6.85-14.43-14.23v-.05c0-9.07,7.91-15.29,19.59-15.29s19.24,6.7,19.78,15.34l.05.58h-9.79l-.05-.34c-.63-4.44-4.1-7.53-9.98-7.53s-9.12,2.65-9.12,6.71v.05c0,3.14,2.07,5.26,7.53,6.56l8.24,1.88c10.38,2.41,14.33,6.51,14.33,13.8v.05c0,9.26-8.69,15.63-20.65,15.63-12.69,0-20.12-6.27-21.18-15.54h0Z"></path><path class="cls-1" d="M555.41,381.24v27.64h12.4c9.41,0,14.81-5.06,14.81-13.79v-.1c0-8.68-5.4-13.75-14.81-13.75h-12.4ZM544.6,372.12h25.9c13.65,0,23.11,9.16,23.11,22.82v.1c0,13.6-9.46,22.91-23.11,22.91h-15.1v23.78h-10.81v-69.61h0Z"></path><path class="cls-1" d="M616.55,434.3c7.33,0,12.88-4.97,12.88-11.58v-3.96l-12.4.77c-6.27.39-9.75,3.14-9.75,7.43v.1c0,4.44,3.67,7.24,9.26,7.24h0ZM596.78,427.31v-.1c0-8.83,6.85-14.23,18.86-14.95l13.8-.82v-3.81c0-5.6-3.62-8.97-10.08-8.97-6.03,0-9.75,2.85-10.61,6.9l-.1.43h-9.84l.05-.53c.72-8.73,8.3-15.44,20.79-15.44s20.26,6.56,20.26,16.74v34.98h-10.47v-8.01h-.19c-2.94,5.45-8.83,8.92-15.53,8.92-10.13,0-16.93-6.22-16.93-15.34h0Z"></path><path class="cls-1" d="M650.97,390.98h10.42v8.68h.24c1.64-5.93,5.88-9.65,11.67-9.65,1.5,0,2.8.24,3.62.39v9.7c-.82-.34-2.65-.58-4.68-.58-6.71,0-10.86,4.39-10.86,11.96v30.25h-10.42v-50.75h0Z"></path><path class="cls-1" d="M689.54,428.37v-29.09h-7.28v-8.3h7.28v-13.22h10.66v13.22h9.51v8.3h-9.51v28.46c0,5.16,2.32,6.71,6.71,6.71,1.11,0,2.03-.1,2.8-.19v8.06c-1.21.19-3.19.44-5.31.44-10.03,0-14.86-4.25-14.86-14.38h0Z"></path><path class="cls-1" d="M719.28,390.98h10.42v7.67h.24c2.65-5.16,7.86-8.63,15.54-8.63,11.14,0,17.56,7.19,17.56,18.86v32.85h-10.47v-30.87c0-7.62-3.57-11.91-10.81-11.91s-12.06,5.3-12.06,13.22v29.57h-10.42v-50.75h0Z"></path><path class="cls-1" d="M781.37,411.63h25.47c-.87-8.78-5.79-13.07-12.59-13.07s-11.96,4.58-12.88,13.07h0ZM770.8,416.55v-.05c0-15.87,9.17-26.49,23.4-26.49s22.96,10.23,22.96,25.47v3.52h-35.94c.19,9.6,5.45,15.19,13.75,15.19,6.18,0,10.28-3.18,11.58-7l.14-.39h9.89l-.09.53c-1.64,8.06-9.45,15.39-21.76,15.39-14.9,0-23.93-10.18-23.93-26.2h0Z"></path><path class="cls-1" d="M826.21,390.98h10.42v8.68h.24c1.64-5.93,5.89-9.65,11.68-9.65,1.49,0,2.79.24,3.61.39v9.7c-.82-.34-2.65-.58-4.68-.58-6.7,0-10.85,4.39-10.85,11.96v30.25h-10.42v-50.75h0Z"></path></svg>