<svg width="194" height="94" viewBox="0 0 194 94" fill="none" xmlns="http://www.w3.org/2000/svg">
<mask id="mask0_6191_7185" style="mask-type:luminance" maskUnits="userSpaceOnUse" x="29" y="8" width="16" height="26">
<path d="M29.6963 8.56055L44.4868 33.9604V16.9812L29.6963 8.56055Z" fill="white"/>
</mask>
<g mask="url(#mask0_6191_7185)">
<path d="M44.4637 8.56055H29.6963V33.9604H44.4637V8.56055Z" fill="url(#paint0_linear_6191_7185)"/>
</g>
<mask id="mask1_6191_7185" style="mask-type:luminance" maskUnits="userSpaceOnUse" x="29" y="0" width="31" height="9">
<path d="M29.6963 8.55866H59.4155L44.4868 0L29.6963 8.55866Z" fill="white"/>
</mask>
<g mask="url(#mask1_6191_7185)">
<path d="M59.3924 0H29.6963V8.58167H59.3924V0Z" fill="url(#paint1_linear_6191_7185)"/>
</g>
<mask id="mask2_6191_7185" style="mask-type:luminance" maskUnits="userSpaceOnUse" x="44" y="8" width="16" height="26">
<path d="M44.4863 33.9604L59.415 25.4018V8.56055L44.4863 33.9604Z" fill="white"/>
</mask>
<g mask="url(#mask2_6191_7185)">
<path d="M65.9115 15.0011L48.2643 -2.48438L37.9893 27.517L55.6365 45.0254L65.9115 15.0011Z" fill="url(#paint2_linear_6191_7185)"/>
</g>
<mask id="mask3_6191_7185" style="mask-type:luminance" maskUnits="userSpaceOnUse" x="29" y="8" width="16" height="26">
<path d="M29.6963 8.56055V25.4018L44.4868 33.9604L29.6963 8.56055Z" fill="white"/>
</mask>
<g mask="url(#mask3_6191_7185)">
<path d="M44.7391 33.9595L44.4857 8.14551L29.4648 8.58265L29.7183 34.3967L44.7391 33.9595Z" fill="url(#paint3_linear_6191_7185)"/>
</g>
<mask id="mask4_6191_7185" style="mask-type:luminance" maskUnits="userSpaceOnUse" x="44" y="8" width="16" height="26">
<path d="M44.4863 16.9812V33.9604L59.415 8.56055L44.4863 16.9812Z" fill="white"/>
</mask>
<g mask="url(#mask4_6191_7185)">
<path d="M59.415 8.56055H44.4863V33.9604H59.415V8.56055Z" fill="url(#paint4_linear_6191_7185)"/>
</g>
<mask id="mask5_6191_7185" style="mask-type:luminance" maskUnits="userSpaceOnUse" x="29" y="8" width="31" height="9">
<path d="M29.6963 8.56055L44.4868 16.9812L59.4155 8.56055H29.6963Z" fill="white"/>
</mask>
<g mask="url(#mask5_6191_7185)">
<path d="M14.8584 12.6086L43.9786 21.1903L74.2507 12.9307L45.1305 4.37207L14.8584 12.6086Z" fill="url(#paint5_linear_6191_7185)"/>
</g>
<mask id="mask6_6191_7185" style="mask-type:luminance" maskUnits="userSpaceOnUse" x="29" y="59" width="31" height="9">
<path d="M29.7193 59.3555H29.6963L44.4868 67.9371L59.4155 59.3555H29.7193Z" fill="white"/>
</mask>
<g mask="url(#mask6_6191_7185)">
<path d="M15.2051 62.7157L41.3534 72.1256L73.9062 64.5793L47.758 55.1924L15.2051 62.7157Z" fill="url(#paint6_linear_6191_7185)"/>
</g>
<mask id="mask7_6191_7185" style="mask-type:luminance" maskUnits="userSpaceOnUse" x="44" y="59" width="16" height="26">
<path d="M44.4863 84.9164L59.415 76.3578V59.3555L44.4863 84.9164Z" fill="white"/>
</mask>
<g mask="url(#mask7_6191_7185)">
<path d="M65.8908 65.7755L48.2436 48.29L38.0146 78.4984L55.6619 96.0069L65.8908 65.7755Z" fill="url(#paint7_linear_6191_7185)"/>
</g>
<mask id="mask8_6191_7185" style="mask-type:luminance" maskUnits="userSpaceOnUse" x="44" y="59" width="16" height="26">
<path d="M44.4863 67.9371V84.9164L59.415 59.3555L44.4863 67.9371Z" fill="white"/>
</mask>
<g mask="url(#mask8_6191_7185)">
<path d="M59.415 59.3555H44.4863V84.9164H59.415V59.3555Z" fill="url(#paint8_linear_6191_7185)"/>
</g>
<mask id="mask9_6191_7185" style="mask-type:luminance" maskUnits="userSpaceOnUse" x="29" y="59" width="16" height="26">
<path d="M29.6963 76.3578L44.4868 84.9164L29.6963 59.3555V76.3578Z" fill="white"/>
</mask>
<g mask="url(#mask9_6191_7185)">
<path d="M22.5527 75.2994L38.9328 97.2942L51.6269 68.9724L35.2698 46.9775L22.5527 75.2994Z" fill="url(#paint9_linear_6191_7185)"/>
</g>
<mask id="mask10_6191_7185" style="mask-type:luminance" maskUnits="userSpaceOnUse" x="29" y="59" width="16" height="26">
<path d="M44.4868 84.9164V67.9371L29.6963 59.3555L44.4868 84.9164Z" fill="white"/>
</mask>
<g mask="url(#mask10_6191_7185)">
<path d="M24.9043 81.8568L42.7128 93.2224L49.2786 62.4158L31.4702 51.0732L24.9043 81.8568Z" fill="url(#paint10_linear_6191_7185)"/>
</g>
<mask id="mask11_6191_7185" style="mask-type:luminance" maskUnits="userSpaceOnUse" x="29" y="50" width="31" height="10">
<path d="M29.6963 59.3566H59.4155L44.4868 50.959L29.6963 59.3566Z" fill="white"/>
</mask>
<g mask="url(#mask11_6191_7185)">
<path d="M26.2168 59.2426L59.0001 60.3469L62.9165 51.075L30.1333 49.9707L26.2168 59.2426Z" fill="url(#paint11_linear_6191_7185)"/>
</g>
<mask id="mask12_6191_7185" style="mask-type:luminance" maskUnits="userSpaceOnUse" x="14" y="25" width="31" height="9">
<path d="M14.7666 33.9581H44.4858L29.6953 25.3994L14.7666 33.9581Z" fill="white"/>
</mask>
<g mask="url(#mask12_6191_7185)">
<path d="M44.4628 25.3994H14.7666V33.9811H44.4628V25.3994Z" fill="url(#paint12_linear_6191_7185)"/>
</g>
<mask id="mask13_6191_7185" style="mask-type:luminance" maskUnits="userSpaceOnUse" x="29" y="33" width="16" height="27">
<path d="M29.6963 59.3608L44.4868 50.9632V33.9609L29.6963 59.3608Z" fill="white"/>
</mask>
<g mask="url(#mask13_6191_7185)">
<path d="M50.8681 40.3097L33.4052 22.9854L23.3145 53.0327L40.8004 70.3571L50.8681 40.3097Z" fill="url(#paint13_linear_6191_7185)"/>
</g>
<mask id="mask14_6191_7185" style="mask-type:luminance" maskUnits="userSpaceOnUse" x="14" y="33" width="16" height="27">
<path d="M14.7666 33.9609L29.6953 59.3608V42.3816L14.7666 33.9609Z" fill="white"/>
</mask>
<g mask="url(#mask14_6191_7185)">
<path d="M29.6953 33.9609H14.7666V59.3608H29.6953V33.9609Z" fill="url(#paint14_linear_6191_7185)"/>
</g>
<mask id="mask15_6191_7185" style="mask-type:luminance" maskUnits="userSpaceOnUse" x="14" y="33" width="16" height="27">
<path d="M14.7666 50.9632L29.6953 59.3608L14.7666 33.9609V50.9632Z" fill="white"/>
</mask>
<g mask="url(#mask15_6191_7185)">
<path d="M29.6953 33.9609H14.7666V59.3608H29.6953V33.9609Z" fill="url(#paint15_linear_6191_7185)"/>
</g>
<mask id="mask16_6191_7185" style="mask-type:luminance" maskUnits="userSpaceOnUse" x="29" y="33" width="16" height="27">
<path d="M29.6963 42.3816V59.3608L44.4868 33.9609L29.6963 42.3816Z" fill="white"/>
</mask>
<g mask="url(#mask16_6191_7185)">
<path d="M44.4637 33.9609H29.6963V59.3608H44.4637V33.9609Z" fill="url(#paint16_linear_6191_7185)"/>
</g>
<mask id="mask17_6191_7185" style="mask-type:luminance" maskUnits="userSpaceOnUse" x="14" y="33" width="31" height="10">
<path d="M14.7666 33.9609L29.6953 42.3816L44.4858 33.9609H14.7666Z" fill="white"/>
</mask>
<g mask="url(#mask17_6191_7185)">
<path d="M0.137695 38.9072L32.2068 46.5225L59.1153 37.4347L27.0462 29.8193L0.137695 38.9072Z" fill="url(#paint17_linear_6191_7185)"/>
</g>
<mask id="mask18_6191_7185" style="mask-type:luminance" maskUnits="userSpaceOnUse" x="0" y="59" width="30" height="9">
<path d="M0 59.3555L14.7674 67.9371L29.6962 59.3555H0Z" fill="white"/>
</mask>
<g mask="url(#mask18_6191_7185)">
<path d="M-8.10938 67.2474L27.3002 70.2613L37.8056 60.0692L2.39602 57.0322L-8.10938 67.2474Z" fill="url(#paint18_linear_6191_7185)"/>
</g>
<mask id="mask19_6191_7185" style="mask-type:luminance" maskUnits="userSpaceOnUse" x="0" y="33" width="15" height="27">
<path d="M0 42.3816V59.3608L14.7674 33.9609L0 42.3816Z" fill="white"/>
</mask>
<g mask="url(#mask19_6191_7185)">
<path d="M14.7674 33.9609H0V59.3608H14.7674V33.9609Z" fill="url(#paint19_linear_6191_7185)"/>
</g>
<mask id="mask20_6191_7185" style="mask-type:luminance" maskUnits="userSpaceOnUse" x="0" y="50" width="30" height="10">
<path d="M0 59.3566H29.6962L14.7674 50.959L0 59.3566Z" fill="white"/>
</mask>
<g mask="url(#mask20_6191_7185)">
<path d="M29.6962 50.959H0V59.3796H29.6962V50.959Z" fill="url(#paint20_linear_6191_7185)"/>
</g>
<mask id="mask21_6191_7185" style="mask-type:luminance" maskUnits="userSpaceOnUse" x="0" y="33" width="15" height="27">
<path d="M0 59.3608L14.7674 50.9632V33.9609L0 59.3608Z" fill="white"/>
</mask>
<g mask="url(#mask21_6191_7185)">
<path d="M21.1714 40.3097L3.68543 22.9854L-6.40527 53.0327L11.0807 70.3571L21.1714 40.3097Z" fill="url(#paint21_linear_6191_7185)"/>
</g>
<mask id="mask22_6191_7185" style="mask-type:luminance" maskUnits="userSpaceOnUse" x="14" y="59" width="16" height="26">
<path d="M14.7666 84.9164L29.6953 76.3578V59.3555L14.7666 84.9164Z" fill="white"/>
</mask>
<g mask="url(#mask22_6191_7185)">
<path d="M29.6953 59.3555H14.7666V84.9164H29.6953V59.3555Z" fill="url(#paint22_linear_6191_7185)"/>
</g>
<mask id="mask23_6191_7185" style="mask-type:luminance" maskUnits="userSpaceOnUse" x="14" y="84" width="31" height="10">
<path d="M14.7666 84.9189L29.6953 93.3396L44.4858 84.9189H14.7666Z" fill="white"/>
</mask>
<g mask="url(#mask23_6191_7185)">
<path d="M2.90137 86.5991L20.7098 96.6993L56.3498 91.6607L38.5414 81.5605L2.90137 86.5991Z" fill="url(#paint23_linear_6191_7185)"/>
</g>
<mask id="mask24_6191_7185" style="mask-type:luminance" maskUnits="userSpaceOnUse" x="14" y="76" width="31" height="9">
<path d="M14.7666 84.921H44.4858L29.6953 76.3623L14.7666 84.921Z" fill="white"/>
</mask>
<g mask="url(#mask24_6191_7185)">
<path d="M20.7335 72.9102L2.87891 83.1944L38.5189 88.348L56.3735 78.0638L20.7335 72.9102Z" fill="url(#paint24_linear_6191_7185)"/>
</g>
<mask id="mask25_6191_7185" style="mask-type:luminance" maskUnits="userSpaceOnUse" x="14" y="59" width="16" height="26">
<path d="M14.7666 67.9371V84.9164L29.6953 59.3555L14.7666 67.9371Z" fill="white"/>
</mask>
<g mask="url(#mask25_6191_7185)">
<path d="M36.1922 65.7755L18.5219 48.29L8.29297 78.4984L25.9632 96.0069L36.1922 65.7755Z" fill="url(#paint25_linear_6191_7185)"/>
</g>
<path d="M169.077 25.2617C167.464 25.2617 166.151 26.5731 166.151 28.1836C166.151 29.7941 167.464 31.1055 169.077 31.1055C170.689 31.1055 172.002 29.7941 172.002 28.1836C172.002 26.5731 170.689 25.2617 169.077 25.2617ZM87.3373 36.6733C89.7333 36.6733 91.0004 38.1227 91.2077 38.6979V45.8991C90.77 46.6124 89.572 48.2459 87.5216 48.2459C85.1487 48.2459 83.9277 46.8424 83.6282 46.1982C83.1904 45.2779 83.0983 43.7595 83.0983 42.4941C83.0983 41.1367 83.2596 39.7562 83.8125 38.8359C84.5958 37.5015 85.8398 36.6733 87.3373 36.6733ZM97.7966 49.0971C97.5202 49.0971 97.2898 49.0971 97.1285 49.0741C96.9673 49.0741 96.8521 49.0281 96.7829 48.9821C96.7138 48.9131 96.6678 48.821 96.6447 48.683C96.6217 48.545 96.6217 48.3379 96.6217 48.0848V25.3998H89.4338V27.2403H90.0328C90.3323 27.2403 90.5396 27.2403 90.7009 27.2633C90.8621 27.2863 90.9773 27.3094 91.0465 27.3784C91.1386 27.4474 91.1616 27.5394 91.1847 27.6775C91.2077 27.8155 91.2077 28.0226 91.2077 28.2757V35.1778C90.8161 34.7637 90.2171 34.3956 89.4107 34.0735C88.6044 33.7514 87.5677 33.6133 86.3006 33.6133C85.1717 33.6133 84.0659 33.7974 83.0061 34.1425C81.9464 34.4876 81.0018 35.0398 80.1725 35.776C79.3431 36.5122 78.675 37.4555 78.1912 38.5829C77.7074 39.7102 77.454 41.0906 77.454 42.7011C77.454 44.4267 77.7304 45.8301 78.2603 46.9575C78.8132 48.0848 79.5043 48.9591 80.3337 49.6263C81.1631 50.2935 82.1077 50.7536 83.1444 51.0067C84.1811 51.2828 85.1717 51.4209 86.1624 51.4209C87.1069 51.4209 87.9133 51.3058 88.5814 51.0988C89.2725 50.8917 89.8485 50.6616 90.3092 50.3855C90.7009 50.1555 91.0464 49.9254 91.2999 49.6953V50.9837H91.9449H98.3956V49.1431H97.7966V49.0971ZM186.516 48.0388C186.309 48.1999 186.079 48.3609 185.825 48.522C185.549 48.683 185.249 48.821 184.881 48.9131C184.512 49.0281 184.121 49.0741 183.683 49.0741C182.946 49.0741 182.301 48.8671 181.748 48.4529C181.218 48.0618 180.941 47.3256 180.941 46.3133C180.941 45.554 181.103 44.9558 181.425 44.4957C181.748 44.0586 182.185 43.7135 182.738 43.4834C183.176 43.2993 183.637 43.2763 184.167 43.2533H186.977V47.5787C186.862 47.7397 186.701 47.8547 186.516 48.0388ZM193.359 49.0971C193.082 49.0971 192.852 49.0971 192.714 49.0741C192.552 49.0741 192.437 49.0281 192.368 48.9821C192.299 48.9131 192.253 48.821 192.23 48.683C192.207 48.545 192.207 48.3379 192.207 48.0848V38.859C192.207 37.8006 192.023 36.9494 191.631 36.2821C191.262 35.6149 190.755 35.0628 190.087 34.6716C189.442 34.2805 188.636 34.0044 187.714 33.8434C186.793 33.6823 185.779 33.5903 184.696 33.5903C183.775 33.5903 182.853 33.6593 181.955 33.8204C181.056 33.9814 180.227 34.1425 179.513 34.3265C178.799 34.5106 178.177 34.6947 177.693 34.8787C177.209 35.0628 176.91 35.2008 176.817 35.2698V39.4801H180.158V38.0537C180.158 37.8006 180.181 37.5705 180.227 37.3175C180.273 37.0874 180.411 36.8803 180.619 36.6963C181.01 36.3512 181.517 36.0981 182.162 35.96C182.807 35.822 183.383 35.753 183.913 35.753C185.088 35.753 185.871 35.96 186.309 36.3742C186.747 36.7883 186.977 37.6166 186.977 38.882V40.9066H184.305C183.176 40.9066 182.093 40.9756 181.033 41.1367C179.997 41.2977 179.052 41.5738 178.246 41.9879C177.439 42.402 176.794 42.9772 176.311 43.6905C175.827 44.4037 175.596 45.324 175.596 46.4513C175.596 47.3716 175.781 48.1538 176.149 48.775C176.518 49.3962 177.025 49.9024 177.647 50.2935C178.269 50.6846 179.006 50.9607 179.812 51.1218C180.619 51.2828 181.448 51.3748 182.301 51.3748C183.13 51.3748 183.844 51.2828 184.489 51.1218C185.111 50.9607 185.664 50.7767 186.102 50.5696C186.447 50.4085 186.724 50.2245 186.954 50.0634V50.9377H187.53H193.958V49.0971H193.359ZM131.317 48.0388C131.11 48.1999 130.879 48.3609 130.626 48.522C130.35 48.683 130.05 48.821 129.681 48.9131C129.313 49.0281 128.921 49.0741 128.483 49.0741C127.746 49.0741 127.101 48.8671 126.548 48.4529C126.018 48.0618 125.742 47.3256 125.742 46.3133C125.742 45.554 125.903 44.9558 126.226 44.4957C126.548 44.0586 126.986 43.7135 127.539 43.4834C127.977 43.2993 128.437 43.2763 128.967 43.2533H131.778V47.5787C131.64 47.7397 131.501 47.8547 131.317 48.0388ZM138.136 49.0971C137.86 49.0971 137.63 49.0971 137.491 49.0741C137.33 49.0741 137.215 49.0281 137.146 48.9821C137.077 48.9131 137.031 48.821 137.008 48.683C136.984 48.545 136.984 48.3379 136.984 48.0848V38.859C136.984 37.8006 136.8 36.9494 136.409 36.2821C136.04 35.6149 135.533 35.0628 134.865 34.6716C134.22 34.2805 133.414 34.0044 132.492 33.8434C131.571 33.6823 130.557 33.5903 129.474 33.5903C128.553 33.5903 127.631 33.6593 126.733 33.8204C125.834 33.9814 125.005 34.1425 124.29 34.3265C123.576 34.5106 122.954 34.6947 122.47 34.8787C121.987 35.0628 121.687 35.2008 121.595 35.2698V39.4801H124.959V38.0537C124.959 37.8006 124.982 37.5705 125.028 37.3175C125.074 37.0874 125.212 36.8803 125.419 36.6963C125.811 36.3512 126.318 36.0981 126.963 35.96C127.608 35.822 128.184 35.753 128.691 35.753C129.866 35.753 130.649 35.96 131.087 36.3742C131.524 36.7883 131.755 37.6166 131.755 38.882V40.9066H129.082C127.954 40.9066 126.848 40.9756 125.811 41.1367C124.774 41.2977 123.83 41.5738 123.023 41.9879C122.217 42.402 121.572 42.9772 121.088 43.6905C120.604 44.4037 120.374 45.324 120.374 46.4513C120.374 47.3716 120.558 48.1538 120.95 48.775C121.319 49.3962 121.825 49.9024 122.447 50.2935C123.092 50.6846 123.807 50.9607 124.613 51.1218C125.419 51.2828 126.249 51.3748 127.101 51.3748C127.931 51.3748 128.645 51.2828 129.29 51.1218C129.912 50.9607 130.465 50.7767 130.902 50.5696C131.248 50.4085 131.524 50.2245 131.755 50.0634V50.9377H132.331H138.758V49.0971H138.136ZM68.9298 48.0388C68.7225 48.1999 68.4921 48.3609 68.2387 48.522C67.9622 48.683 67.6627 48.821 67.2941 48.9131C66.9255 49.0281 66.5339 49.0741 66.0961 49.0741C65.3589 49.0741 64.7139 48.8671 64.1609 48.4529C63.608 48.0618 63.3546 47.3256 63.3546 46.3133C63.3546 45.554 63.5159 44.9558 63.8384 44.4957C64.1609 44.0586 64.5987 43.7135 65.1516 43.4834C65.5893 43.2993 66.0501 43.2763 66.58 43.2533H69.3906V47.5787C69.2754 47.7397 69.1141 47.8547 68.9298 48.0388ZM75.7722 49.0971C75.4957 49.0971 75.2653 49.0971 75.1271 49.0741C74.9658 49.0741 74.8506 49.0281 74.7815 48.9821C74.7124 48.9131 74.6663 48.821 74.6433 48.683C74.6203 48.545 74.6203 48.3379 74.6203 48.0848V38.859C74.6203 37.8006 74.436 36.9494 74.0443 36.2821C73.6757 35.6149 73.1689 35.0628 72.5008 34.6716C71.8557 34.2805 71.0493 34.0044 70.1278 33.8434C69.2063 33.6823 68.1926 33.5903 67.1098 33.5903C66.1883 33.5903 65.2668 33.6593 64.3683 33.8204C63.4698 33.9814 62.6404 34.1425 61.9262 34.3265C61.2121 34.5106 60.59 34.6947 60.1062 34.8787C59.6224 35.0628 59.3229 35.2008 59.2308 35.2698V39.4801H62.5944V38.0537C62.5944 37.8006 62.6174 37.5705 62.6635 37.3175C62.7095 37.0874 62.8478 36.8803 63.0551 36.6963C63.4468 36.3512 63.9536 36.0981 64.5987 35.96C65.2437 35.822 65.8197 35.753 66.3265 35.753C67.5015 35.753 68.2848 35.96 68.7225 36.3742C69.1602 36.7883 69.3906 37.6166 69.3906 38.882V40.9066H66.7182C65.5893 40.9066 64.4835 40.9756 63.4468 41.1367C62.41 41.2977 61.4655 41.5738 60.6591 41.9879C59.8528 42.402 59.2077 42.9772 58.7239 43.6905C58.2401 44.4037 58.0098 45.324 58.0098 46.4513C58.0098 47.3716 58.1941 48.1538 58.5627 48.775C58.9313 49.3962 59.4381 49.9024 60.0602 50.2935C60.7052 50.6846 61.4194 50.9607 62.2257 51.1218C63.0321 51.2828 63.8614 51.3748 64.7139 51.3748C65.5432 51.3748 66.2574 51.2828 66.9025 51.1218C67.5245 50.9607 68.0774 50.7767 68.5152 50.5696C68.8607 50.4085 69.1372 50.2245 69.3676 50.0634V50.9377H69.9435H76.3712V49.0971H75.7722ZM171.772 48.1078C171.772 48.3609 171.772 48.568 171.795 48.706C171.818 48.8441 171.841 48.9361 171.933 49.0051C172.002 49.0511 172.118 49.0971 172.279 49.0971C172.44 49.1201 172.648 49.1201 172.924 49.1201H173.523V50.9607H164.584V49.1201H165.183C165.46 49.1201 165.69 49.1201 165.851 49.0971C166.013 49.0971 166.105 49.0511 166.197 49.0051C166.266 48.9361 166.312 48.8441 166.335 48.706C166.358 48.568 166.358 48.3609 166.358 48.1078V36.8113C166.358 36.5582 166.358 36.3512 166.335 36.2131C166.335 36.0751 166.289 35.9831 166.197 35.914C166.105 35.868 165.99 35.822 165.851 35.822C165.69 35.799 165.483 35.799 165.183 35.799H164.584V33.9584H171.772V48.1078ZM141.316 33.9584H148.043V35.5919C148.204 35.4539 148.434 35.2698 148.78 35.0628C149.126 34.8327 149.54 34.6256 150.047 34.3956C150.554 34.1655 151.153 33.9814 151.821 33.8434C152.512 33.6823 153.272 33.6133 154.125 33.6133C156.198 33.6133 157.719 34.0965 158.732 35.0628C159.746 36.0291 160.253 37.4095 160.253 39.2271V48.1078C160.253 48.3609 160.253 48.568 160.276 48.706C160.299 48.8441 160.322 48.9361 160.414 49.0051C160.483 49.0511 160.599 49.0971 160.76 49.0971C160.898 49.1201 161.128 49.1201 161.405 49.1201H162.004V50.9607H153.457V49.1201H153.664C153.941 49.1201 154.171 49.1201 154.332 49.0971C154.493 49.0971 154.609 49.0511 154.678 49.0051C154.747 48.9361 154.793 48.8441 154.816 48.706C154.839 48.568 154.839 48.3609 154.839 48.1078V40.5155C154.839 39.8252 154.816 39.2041 154.793 38.6749C154.77 38.1457 154.678 37.6856 154.517 37.3405C154.355 36.9724 154.125 36.6963 153.825 36.5352C153.526 36.3512 153.088 36.2591 152.512 36.2591C152.051 36.2591 151.591 36.3282 151.176 36.4432C150.761 36.5582 150.37 36.6963 150.024 36.8803C149.702 37.0644 149.402 37.2484 149.149 37.4555C148.895 37.6396 148.688 37.8236 148.527 37.9617V48.1768C148.527 48.4299 148.527 48.637 148.55 48.775C148.573 48.9131 148.596 49.0051 148.688 49.0741C148.757 49.1201 148.872 49.1662 149.033 49.1662C149.172 49.1892 149.402 49.1892 149.679 49.1892H149.886V51.0297H141.339V49.1892H141.938C142.214 49.1892 142.445 49.1892 142.583 49.1662C142.744 49.1662 142.859 49.1201 142.928 49.0741C142.997 49.0051 143.044 48.9131 143.067 48.775C143.09 48.637 143.09 48.4299 143.09 48.1768V36.8803C143.09 36.6273 143.09 36.4202 143.067 36.2821C143.067 36.1441 143.02 36.0521 142.928 35.9831C142.859 35.937 142.744 35.891 142.583 35.891C142.422 35.868 142.214 35.868 141.938 35.868H141.339V33.9584H141.316ZM112.011 50.9607H106.897L100.4 36.8113C100.262 36.5582 100.17 36.3512 100.077 36.2131C99.9852 36.0751 99.8931 35.9831 99.7779 35.914C99.6627 35.868 99.5245 35.822 99.3402 35.822C99.1789 35.799 98.9485 35.799 98.6951 35.799H98.6721V33.9584H107.38V35.799H106.966C106.62 35.799 106.367 35.799 106.183 35.822C105.998 35.845 105.86 35.914 105.837 36.0521C105.814 36.1901 105.814 36.3742 105.906 36.6503C105.998 36.9263 106.159 37.3175 106.39 37.8466L110.537 47.4636L114.453 37.9847C114.684 37.4325 114.845 36.9954 114.96 36.7193C115.052 36.4202 115.098 36.2131 115.052 36.0751C115.006 35.937 114.891 35.845 114.73 35.822C114.545 35.799 114.269 35.799 113.923 35.799H113.716V33.9584H119.844V35.799H119.245C119.038 35.799 118.877 35.799 118.738 35.822C118.6 35.822 118.508 35.868 118.439 35.937C118.37 36.0061 118.278 36.1211 118.208 36.2591C118.139 36.3972 118.047 36.5812 117.932 36.8113L112.011 50.9607Z" fill="white"/>
<defs>
<linearGradient id="paint0_linear_6191_7185" x1="37.0986" y1="42.2063" x2="37.0986" y2="2.48057" gradientUnits="userSpaceOnUse">
<stop stop-color="#BF007E"/>
<stop offset="1" stop-color="#471267"/>
</linearGradient>
<linearGradient id="paint1_linear_6191_7185" x1="29.6711" y1="4.28306" x2="59.3437" y2="4.28306" gradientUnits="userSpaceOnUse">
<stop stop-color="#FFE200"/>
<stop offset="0.017729" stop-color="#FFDF01"/>
<stop offset="0.3445" stop-color="#F3A412"/>
<stop offset="0.6233" stop-color="#EF7E1E"/>
<stop offset="0.8405" stop-color="#EC6425"/>
<stop offset="0.9693" stop-color="#EB5A28"/>
<stop offset="1" stop-color="#EB5A28"/>
</linearGradient>
<linearGradient id="paint2_linear_6191_7185" x1="63.7123" y1="32.9349" x2="45.8881" y2="26.8279" gradientUnits="userSpaceOnUse">
<stop stop-color="#0088A7"/>
<stop offset="1" stop-color="#3ABEDA"/>
</linearGradient>
<linearGradient id="paint3_linear_6191_7185" x1="37.2343" y1="35.0995" x2="36.4488" y2="8.07605" gradientUnits="userSpaceOnUse">
<stop stop-color="#BF007E"/>
<stop offset="1" stop-color="#471267"/>
</linearGradient>
<linearGradient id="paint4_linear_6191_7185" x1="51.9398" y1="42.1166" x2="51.9398" y2="13.0485" gradientUnits="userSpaceOnUse">
<stop stop-color="#0088A7"/>
<stop offset="1" stop-color="#3ABEDA"/>
</linearGradient>
<linearGradient id="paint5_linear_6191_7185" x1="21.9" y1="6.10878" x2="29.1279" y2="32.6418" gradientUnits="userSpaceOnUse">
<stop stop-color="#FFE200"/>
<stop offset="0.017729" stop-color="#FFDF01"/>
<stop offset="0.3445" stop-color="#F3A412"/>
<stop offset="0.6233" stop-color="#EF7E1E"/>
<stop offset="0.8405" stop-color="#EC6425"/>
<stop offset="0.9693" stop-color="#EB5A28"/>
<stop offset="1" stop-color="#EB5A28"/>
</linearGradient>
<linearGradient id="paint6_linear_6191_7185" x1="26.115" y1="57.0305" x2="30.082" y2="74.1571" gradientUnits="userSpaceOnUse">
<stop stop-color="#5F8F3D"/>
<stop offset="0.453" stop-color="#5F8F3D"/>
<stop offset="1" stop-color="#AACF75"/>
</linearGradient>
<linearGradient id="paint7_linear_6191_7185" x1="63.7334" y1="83.8329" x2="45.9125" y2="77.8012" gradientUnits="userSpaceOnUse">
<stop stop-color="#BF007E"/>
<stop offset="1" stop-color="#471267"/>
</linearGradient>
<linearGradient id="paint8_linear_6191_7185" x1="51.9432" y1="93.0657" x2="51.9432" y2="63.9911" gradientUnits="userSpaceOnUse">
<stop stop-color="#BF007E"/>
<stop offset="1" stop-color="#471267"/>
</linearGradient>
<linearGradient id="paint9_linear_6191_7185" x1="24.5579" y1="55.3038" x2="60.6145" y2="71.4903" gradientUnits="userSpaceOnUse">
<stop stop-color="#FFE200"/>
<stop offset="0.017729" stop-color="#FFDF01"/>
<stop offset="0.3445" stop-color="#F3A412"/>
<stop offset="0.6233" stop-color="#EF7E1E"/>
<stop offset="0.8405" stop-color="#EC6425"/>
<stop offset="0.9693" stop-color="#EB5A28"/>
<stop offset="1" stop-color="#EB5A28"/>
</linearGradient>
<linearGradient id="paint10_linear_6191_7185" x1="16.9226" y1="59.2626" x2="58.7498" y2="68.1834" gradientUnits="userSpaceOnUse">
<stop stop-color="#FFE200"/>
<stop offset="0.017729" stop-color="#FFDF01"/>
<stop offset="0.3445" stop-color="#F3A412"/>
<stop offset="0.6233" stop-color="#EF7E1E"/>
<stop offset="0.8405" stop-color="#EC6425"/>
<stop offset="0.9693" stop-color="#EB5A28"/>
<stop offset="1" stop-color="#EB5A28"/>
</linearGradient>
<linearGradient id="paint11_linear_6191_7185" x1="22.2059" y1="54.3999" x2="55.3212" y2="68.3699" gradientUnits="userSpaceOnUse">
<stop stop-color="#5F8F3D"/>
<stop offset="0.453" stop-color="#5F8F3D"/>
<stop offset="1" stop-color="#AACF75"/>
</linearGradient>
<linearGradient id="paint12_linear_6191_7185" x1="14.8338" y1="29.6845" x2="44.5041" y2="29.6845" gradientUnits="userSpaceOnUse">
<stop stop-color="#FFE200"/>
<stop offset="0.017729" stop-color="#FFDF01"/>
<stop offset="0.3445" stop-color="#F3A412"/>
<stop offset="0.6233" stop-color="#EF7E1E"/>
<stop offset="0.8405" stop-color="#EC6425"/>
<stop offset="0.9693" stop-color="#EB5A28"/>
<stop offset="1" stop-color="#EB5A28"/>
</linearGradient>
<linearGradient id="paint13_linear_6191_7185" x1="48.8987" y1="58.361" x2="31.0855" y2="52.3853" gradientUnits="userSpaceOnUse">
<stop stop-color="#0088A7"/>
<stop offset="1" stop-color="#3ABEDA"/>
</linearGradient>
<linearGradient id="paint14_linear_6191_7185" x1="22.2405" y1="67.6856" x2="22.2405" y2="27.9493" gradientUnits="userSpaceOnUse">
<stop stop-color="#BF007E"/>
<stop offset="1" stop-color="#471267"/>
</linearGradient>
<linearGradient id="paint15_linear_6191_7185" x1="22.2437" y1="56.4716" x2="22.2437" y2="25.5456" gradientUnits="userSpaceOnUse">
<stop stop-color="#BF007E"/>
<stop offset="1" stop-color="#471267"/>
</linearGradient>
<linearGradient id="paint16_linear_6191_7185" x1="37.094" y1="67.5961" x2="37.094" y2="38.5203" gradientUnits="userSpaceOnUse">
<stop stop-color="#0088A7"/>
<stop offset="1" stop-color="#3ABEDA"/>
</linearGradient>
<linearGradient id="paint17_linear_6191_7185" x1="7.02328" y1="32.7984" x2="16.0437" y2="59.5144" gradientUnits="userSpaceOnUse">
<stop stop-color="#FFE200"/>
<stop offset="0.017729" stop-color="#FFDF01"/>
<stop offset="0.3445" stop-color="#F3A412"/>
<stop offset="0.6233" stop-color="#EF7E1E"/>
<stop offset="0.8405" stop-color="#EC6425"/>
<stop offset="0.9693" stop-color="#EB5A28"/>
<stop offset="1" stop-color="#EB5A28"/>
</linearGradient>
<linearGradient id="paint18_linear_6191_7185" x1="-10.3379" y1="61.4933" x2="16.5843" y2="89.1951" gradientUnits="userSpaceOnUse">
<stop stop-color="#FFE200"/>
<stop offset="0.017729" stop-color="#FFDF01"/>
<stop offset="0.3445" stop-color="#F3A412"/>
<stop offset="0.6233" stop-color="#EF7E1E"/>
<stop offset="0.8405" stop-color="#EC6425"/>
<stop offset="0.9693" stop-color="#EB5A28"/>
<stop offset="1" stop-color="#EB5A28"/>
</linearGradient>
<linearGradient id="paint19_linear_6191_7185" x1="7.38681" y1="67.5961" x2="7.38681" y2="38.5203" gradientUnits="userSpaceOnUse">
<stop stop-color="#0088A7"/>
<stop offset="1" stop-color="#3ABEDA"/>
</linearGradient>
<linearGradient id="paint20_linear_6191_7185" x1="-5.0131e-05" y1="55.164" x2="29.6705" y2="55.164" gradientUnits="userSpaceOnUse">
<stop stop-color="#FFE200"/>
<stop offset="0.017729" stop-color="#FFDF01"/>
<stop offset="0.3445" stop-color="#F3A412"/>
<stop offset="0.6233" stop-color="#EF7E1E"/>
<stop offset="0.8405" stop-color="#EC6425"/>
<stop offset="0.9693" stop-color="#EB5A28"/>
<stop offset="1" stop-color="#EB5A28"/>
</linearGradient>
<linearGradient id="paint21_linear_6191_7185" x1="19.2214" y1="58.3889" x2="1.40829" y2="52.4133" gradientUnits="userSpaceOnUse">
<stop stop-color="#0088A7"/>
<stop offset="1" stop-color="#3ABEDA"/>
</linearGradient>
<linearGradient id="paint22_linear_6191_7185" x1="22.2363" y1="83.6364" x2="22.2363" y2="56.4184" gradientUnits="userSpaceOnUse">
<stop stop-color="#BF007E"/>
<stop offset="1" stop-color="#471267"/>
</linearGradient>
<linearGradient id="paint23_linear_6191_7185" x1="4.12347" y1="74.6667" x2="7.37132" y2="97.6201" gradientUnits="userSpaceOnUse">
<stop stop-color="#0088A7"/>
<stop offset="1" stop-color="#3ABEDA"/>
</linearGradient>
<linearGradient id="paint24_linear_6191_7185" x1="39.0436" y1="75.217" x2="35.6608" y2="98.6133" gradientUnits="userSpaceOnUse">
<stop stop-color="#0088A7"/>
<stop offset="1" stop-color="#3ABEDA"/>
</linearGradient>
<linearGradient id="paint25_linear_6191_7185" x1="28.7198" y1="78.5712" x2="7.84109" y2="71.5044" gradientUnits="userSpaceOnUse">
<stop stop-color="#BF007E"/>
<stop offset="1" stop-color="#471267"/>
</linearGradient>
</defs>
</svg>
