<svg xmlns="http://www.w3.org/2000/svg" xmlns:cc="http://creativecommons.org/ns#" xmlns:dc="http://purl.org/dc/elements/1.1/" xmlns:rdf="http://www.w3.org/1999/02/22-rdf-syntax-ns#" id="SVGRoot" width="500" height="101.36" viewBox="0 0 499.99997 101.35415"><metadata></metadata><g><path d="m60.521 16.011c0 0.52354-0.42575 0.949-0.9493 0.949h-14.637c-0.52354 0-0.949-0.42546-0.949-0.949v-14.64c0-0.52073 0.42546-0.94649 0.949-0.94649h14.637c0.52355 0 0.9493 0.42576 0.9493 0.94649z" fill="#ec008c"></path><path d="m43.985 32.547c0 0.52354-0.42546 0.94929-0.949 0.94929h-14.637c-0.52355 0-0.94929-0.42575-0.94929-0.94929v-14.637c0-0.52384 0.42574-0.94929 0.94929-0.94929h14.637c0.52354 0 0.949 0.42545 0.949 0.94929z" fill="#ec008c"></path><path d="m16.538 40.815c0 0.52355-0.42546 0.949-0.949 0.949h-14.637c-0.52636 0-0.95182-0.42545-0.95182-0.949v-14.64c0-0.52354 0.42546-0.94929 0.95182-0.94929h14.637c0.52354 0 0.949 0.42575 0.949 0.94929z" fill="#00aeef"></path><path d="m33.076 57.351c0 0.52355-0.42546 0.94929-0.949 0.94929h-14.637c-0.52636 0-0.9521-0.42574-0.9521-0.94929v-14.637c0-0.52356 0.42575-0.949 0.9521-0.949h14.637c0.52354 0 0.949 0.42544 0.949 0.949z" fill="#00aeef"></path><path d="m54.621 57.351c0 0.52355-0.42546 0.94929-0.949 0.94929h-14.637c-0.52636 0-0.95181-0.42574-0.95181-0.94929v-14.637c0-0.52356 0.42546-0.949 0.95181-0.949h14.637c0.52354 0 0.949 0.42544 0.949 0.949z" fill="#fff200"></path><path d="m71.157 40.815c0 0.52355-0.42556 0.949-0.949 0.949h-14.638c-0.52345 0-0.94929-0.42545-0.94929-0.949v-14.64c0-0.52354 0.42584-0.94929 0.94929-0.94929h14.638c0.52345 0 0.949 0.42575 0.949 0.94929z" fill="#fff200"></path></g><g fill="#464646"><path d="m132.51 44.826h-4.4683c-0.32494-4.2082-1.96-7.2992-4.9053-9.2787-2.9482-1.9737-7.5933-2.9622-13.938-2.9622-10.813 0-16.219 3.3039-16.219 9.9086 0 4.7261 3.3345 7.5454 10.004 8.4499l15.833 2.1333c10.424 1.4308 15.634 5.9608 15.634 13.602 0 9.9084-7.9291 14.859-23.796 14.859-15.539 0-23.633-5.6947-24.28-17.093h4.4656c0.45379 3.8891 1.6185 6.7364 3.4972 8.5506 3.2364 3.1023 9.0658 4.6591 17.485 4.6591 12.106 0 18.162-3.6566 18.162-10.975 0-5.1154-3.3345-8.1252-10.004-9.035l-17.485-2.3294c-9.3235-1.2264-13.985-5.4067-13.985-12.532 0-3.6257 1.3581-6.6636 4.0793-9.1274 3.6257-3.3036 9.2254-4.9498 16.805-4.9498 14.632 0 22.337 5.37 23.115 16.121"></path><path d="m143.48 55.119c0 6.1541 1.974 11.334 5.9244 15.545 4.3369 4.6616 10.231 6.9912 17.678 6.9912 7.4447 0 13.338-2.3297 17.678-6.9912 3.9477-4.211 5.9215-9.3905 5.9215-15.545 0-6.1484-1.9739-11.328-5.9215-15.542-4.3397-4.6591-10.233-6.9913-17.678-6.9913-7.4476 0-13.341 2.3322-17.678 6.9913-3.9504 4.2137-5.9244 9.3933-5.9244 15.542m-4.4684 0c0-7.3159 2.4608-13.464 7.3829-18.451 5.2443-5.3112 12.14-7.9652 20.688-7.9652 8.545 0 15.444 2.654 20.688 7.9652 4.9221 4.9866 7.3832 11.135 7.3832 18.451 0 7.316-2.4611 13.467-7.3832 18.453-5.2442 5.3112-12.143 7.9656-20.688 7.9656-8.5479 0-15.444-2.6543-20.688-7.9656-4.9221-4.9862-7.3829-11.138-7.3829-18.453"></path><path d="m208.36 79.985v-45.844h-11.656v-3.8863h11.656v-7.4784c0-4.2753 0.80618-7.3801 2.4275-9.326 1.9428-2.265 5.342-3.3991 10.2-3.3991 1.3608 0 3.9168 0.19609 7.6742 0.58535v3.8832c-2.1389-0.38907-4.502-0.58234-7.0918-0.58234-5.8294 0-8.7412 2.4919-8.7412 7.4784v8.8389h14.374v3.8863h-14.374v45.844z"></path><path d="m233.42 55.119c0 6.1541 1.974 11.334 5.9244 15.545 4.3369 4.6616 10.231 6.9912 17.681 6.9912 7.4448 0 13.336-2.3297 17.675-6.9912 3.9476-4.211 5.9243-9.3905 5.9243-15.545 0-6.1484-1.9768-11.328-5.9243-15.542-4.3398-4.6591-10.231-6.9913-17.675-6.9913-7.4504 0-13.344 2.3322-17.681 6.9913-3.9505 4.2137-5.9244 9.3933-5.9244 15.542m-4.4683 0c0-7.3159 2.461-13.464 7.3829-18.451 5.2442-5.3112 12.14-7.9652 20.691-7.9652 8.5451 0 15.441 2.654 20.685 7.9652 4.9221 4.9866 7.3831 11.135 7.3831 18.451 0 7.316-2.461 13.467-7.3831 18.453-5.244 5.3112-12.14 7.9656-20.685 7.9656-8.5507 0-15.446-2.6543-20.691-7.9656-4.9219-4.9862-7.3829-11.138-7.3829-18.453"></path><path d="m293.45 10.637h4.4683v69.351h-4.4683z"></path><path d="m310.73 55.119c0 6.1541 1.974 11.334 5.9244 15.545 4.3369 4.6616 10.231 6.9912 17.675 6.9912 7.4504 0 13.344-2.3297 17.681-6.9912 3.9504-4.211 5.9215-9.3905 5.9215-15.545 0-6.1484-1.9712-11.328-5.9215-15.542-4.337-4.6591-10.231-6.9913-17.681-6.9913-7.4447 0-13.338 2.3322-17.675 6.9913-3.9505 4.2137-5.9244 9.3933-5.9244 15.542m-4.4683 0c0-7.3159 2.4608-13.464 7.3857-18.451 5.2414-5.3112 12.137-7.9652 20.682-7.9652 8.5507 0 15.446 2.654 20.691 7.9652 4.9221 4.9866 7.3831 11.135 7.3831 18.451 0 7.316-2.461 13.467-7.3831 18.453-5.2443 5.3112-12.14 7.9656-20.691 7.9656-8.5451 0-15.441-2.6543-20.682-7.9656-4.925-4.9862-7.3857-11.138-7.3857-18.453"></path><path d="m394.65 32.587c-6.3443 0-11.591 1.6854-15.735 5.0481-4.5944 3.8216-6.893 9.1302-6.893 15.928 0 7.0613 2.0044 12.485 6.0224 16.273 4.0149 3.7854 9.7126 5.6809 17.096 5.6809 6.7952 0 12.235-1.7835 16.317-5.342 4.3985-3.8835 6.6019-9.4521 6.6019-16.706 0-6.5377-2.0717-11.653-6.2126-15.346-4.1465-3.6902-9.8806-5.5353-17.197-5.5353m23.409 7.7722v-10.104h4.4687v47.3c0 15.866-9.0658 23.801-27.192 23.801-7.9656 0-13.991-1.2655-18.067-3.788-4.3397-2.6571-6.896-6.9633-7.677-12.918h4.4684c1.1619 8.5451 8.2568 12.82 21.276 12.82 15.153 0 22.723-6.5739 22.723-19.716v-10.298h-0.19299c-4.2081 7.9655-11.98 11.947-23.311 11.947-9.0658 0-15.992-2.6207-20.783-7.8675-4.1438-4.533-6.2213-10.457-6.2213-17.773 0-7.0583 2.142-12.854 6.4171-17.387 4.8493-5.1154 11.748-7.6743 20.682-7.6743 11.462 0 19.198 3.8524 23.216 11.56z"></path><path d="m451.77 79.985-25.159-49.73h5.0509l22.34 44.778 20.498-44.778h5.0509l-27.391 58.471c-1.4896 3.1078-2.9819 5.3112-4.4687 6.6048-2.0072 1.6826-4.7904 2.5283-8.3546 2.5283h-6.2128v-3.886h5.3395c2.8501 0 4.8717-0.52093 6.0728-1.554 1.1927-1.0387 2.7661-3.4997 4.7064-7.3831z"></path></g><g><path d="m226.2 95.68c0 1.1787-1.0471 2.1361-2.3378 2.1361h-58.368c-1.2935 0-2.3378-0.95744-2.3378-2.1361 0-1.1788 1.0443-2.1364 2.3378-2.1364h58.368c1.2907 0 2.3378 0.95764 2.3378 2.1364" fill="#00aeef"></path><path d="m292.54 95.68c0 1.1787-1.0471 2.1361-2.3351 2.1361h-58.37c-1.2935 0-2.3378-0.95744-2.3378-2.1361 0-1.1788 1.0443-2.1364 2.3378-2.1364h58.37c1.288 0 2.3351 0.95764 2.3351 2.1364" fill="#ec008c"></path><path d="m358.88 95.68c0 1.1787-1.0415 2.1361-2.3378 2.1361h-58.37c-1.2908 0-2.335-0.95744-2.335-2.1361 0-1.1788 1.0442-2.1364 2.335-2.1364h58.37c1.2964 0 2.3378 0.95764 2.3378 2.1364" fill="#fff200"></path><path d="m489.29 0.88288c-5.4205 0-9.8331 4.4071-9.8331 9.8275 0 5.4177 4.4126 9.833 9.8331 9.833 5.4204 0 9.8246-4.4153 9.8246-9.833 0-5.4204-4.4042-9.8275-9.8246-9.8275m0 20.54c-5.9048 0-10.712-4.8045-10.712-10.712 0-5.9048 4.8073-10.712 10.712-10.712 5.9019 0 10.706 4.8073 10.706 10.712 0 5.9076-4.8045 10.712-10.706 10.712" fill="#464646"></path><path d="m486.83 5.8991v3.5196h4.1717c1.3661 0 2.0522-0.61883 2.0522-1.8563 0-1.109-0.65521-1.6633-1.9628-1.6633zm-0.98286 8.6067v-9.5138h5.1826c2.0577 0 3.0879 0.85664 3.0879 2.5704 0 0.53189-0.15378 1.0106-0.46465 1.4277-0.3359 0.45349-0.80618 0.74476-1.3997 0.87924v0.0252c0.62989 0.0951 1.0722 0.36948 1.3213 0.81453 0.21007 0.36976 0.3361 0.98015 0.36967 1.8255 0.0563 1.1534 0.16503 1.8086 0.33309 1.9712h-1.0639c-0.15408-0.17931-0.2381-0.82607-0.25489-1.9459-0.01-0.83703-0.18736-1.4138-0.53752-1.7443-0.34987-0.32746-0.94065-0.49551-1.7666-0.49551h-3.8244v4.1858z" fill="#464646"></path></g></svg>