<svg xmlns="http://www.w3.org/2000/svg" width="93" height="19" viewBox="0 0 93 19" fill="none"><path fill-rule="evenodd" clip-rule="evenodd" d="M37.6062 14.1347H40.0117V4.60999H37.6062V14.1347ZM32.1939 8.26342H25.846V4.60999H23.44V14.1347H25.846V10.0246H32.1939V14.1347H34.5993V4.60999H32.1939V8.26342ZM52.2059 4.60999H41.582V6.63229H45.6915V14.1347H48.0974V6.63229H52.2059V4.60999ZM57.92 4.60999H55.5474L51.0377 14.1347H53.4427L54.3444 12.243H59.124L60.0247 14.1347H62.4297L57.92 4.60999ZM55.18 10.4813L56.717 7.187L58.2849 10.4813H55.18ZM85.7832 8.26342H79.4358V4.60999H77.0298V14.1347H79.4358V10.0246H85.7832V14.1347H88.1891V4.60999H85.7832V8.26342ZM90.5951 4.60999V14.1347H93V4.60999H90.5951ZM69.1454 13.3539C66.9736 13.3563 66.0048 11.5563 66.0048 9.33839C66.0048 7.12099 66.9408 5.55635 69.1454 5.55635C71.0831 5.55635 71.8213 6.51387 72.2861 7.99262L75.026 7.98679C74.4365 5.23604 72.1006 4.12176 69.1454 4.12176C65.7532 4.12176 63.1987 5.68738 63.1987 9.34082C63.1987 13.1568 65.7199 14.755 69.1121 14.755C72.1926 14.755 74.6483 13.3825 75.0917 10.3182L72.386 10.3192C72.0241 12.0625 71.1159 13.3519 69.1454 13.3539ZM17.7274 7.25203C16.934 4.58863 14.7796 2.47558 12.0476 1.70684C10.5106 1.38071 9.9762 0.467356 9.74207 0C9.50793 0.467356 8.92285 1.41129 7.41914 1.7049C6.07024 2.08776 4.84267 2.79801 3.85101 3.76939C2.85936 4.74077 2.13594 5.9416 1.74828 7.2598C1.41424 8.76038 0.478702 9.28209 0 9.51068C0.478702 9.73926 1.44754 10.2935 1.74828 11.7616C2.53866 14.424 4.72489 16.5196 7.45344 17.2932C8.99046 17.6193 9.52484 18.5326 9.75847 19C9.9926 18.5326 10.5603 17.5868 12.064 17.2932C14.7891 16.5205 16.9355 14.4114 17.7274 11.7533C18.0614 10.2527 18.997 9.73052 19.4757 9.50243C18.9965 9.27433 18.0276 8.7201 17.7274 7.25203ZM14.5604 4.61921L10.4773 4.62649L10.4763 2.75949C12.012 2.91746 13.4495 3.57205 14.5604 4.61921ZM9.74207 5.89849C11.6852 5.89849 13.261 7.60582 13.261 9.50291C13.25 10.4071 12.8744 11.2705 12.2156 11.9061C11.5568 12.5417 10.668 12.8981 9.74182 12.8981C8.81565 12.8981 7.92681 12.5417 7.26804 11.9061C6.60926 11.2705 6.23364 10.4071 6.22263 9.50291C6.22313 7.60534 7.79843 5.89849 9.74207 5.89849ZM8.97306 2.76289L8.97356 4.61872H4.92373C6.02609 3.57986 7.45018 2.9272 8.97306 2.76289ZM3.74561 12.9316C3.12201 11.8919 2.79422 10.7083 2.79616 9.5034C2.79616 8.25129 3.14363 7.07829 3.74959 6.07175L6.35039 6.07854C5.41983 6.94386 4.87501 8.15034 4.87501 9.50388C4.87419 10.1449 5.0069 10.7793 5.26506 11.3687C5.52322 11.958 5.90144 12.4899 6.37673 12.9321L3.74561 12.9316ZM9.74207 16.2842C8.00323 16.2842 6.07251 15.4713 4.91478 14.3788L9.74207 14.3793H14.5863C13.2842 15.6014 11.5482 16.284 9.74207 16.2842ZM15.7455 12.9316H13.1074C13.5826 12.4894 13.9608 11.9574 14.2189 11.3681C14.4771 10.7788 14.6098 10.1444 14.6091 9.5034C14.6091 8.14986 14.029 6.94386 13.0985 6.07806L15.7385 6.07854C16.3621 7.11693 16.6899 8.29922 16.688 9.50291C16.6895 10.707 16.3643 11.8901 15.7455 12.9316Z" fill="black"></path></svg>