<svg xmlns="http://www.w3.org/2000/svg" id="Layer_1" data-name="Layer 1" viewBox="0 0 200 200"><defs><style>      .cls-1 {        fill: none;        stroke: #2abad9;        stroke-linecap: round;        stroke-linejoin: round;        stroke-width: 6px;      }    </style></defs><g><line class="cls-1" x1="99.85" y1="119.69" x2="99.85" y2="130.81"></line><line class="cls-1" x1="99.85" y1="108.55" x2="99.85" y2="119.67"></line><g><path class="cls-1" d="m100.49,46.37c6.92,0,12.53,5.61,12.53,12.53s-5.61,12.53-12.53,12.53-12.53-5.61-12.53-12.53"></path><path class="cls-1" d="m86.36,83.11l-5.4,5.4-9.6-9.6,5.4-5.4c-1.35-2.26-2.38-4.72-3.04-7.33h-7.63v-13.57h7.63c.66-2.61,1.7-5.08,3.04-7.33l-5.4-5.4,9.6-9.6,5.4,5.4c2.26-1.35,4.72-2.38,7.34-3.04v-7.63h13.57v7.63c2.61.66,5.08,1.7,7.33,3.04l5.4-5.4,9.6,9.6-5.4,5.4c1.35,2.26,2.38,4.72,3.05,7.33h7.63v13.57h-7.63c-.66,2.61-1.7,5.08-3.05,7.33l5.4,5.4-9.6,9.6-5.4-5.4c-2.26,1.35-4.72,2.38-7.33,3.04v7.63h-13.57v-7.63c-2.61-.66-5.08-1.7-7.34-3.04Z"></path></g><g><polygon class="cls-1" points="62.85 166.43 45.02 166.43 27.19 166.43 27.19 141.69 62.85 141.69 62.85 166.43"></polygon><line class="cls-1" x1="45.02" y1="176.43" x2="45.02" y2="166.43"></line></g><g><polygon class="cls-1" points="117.83 166.43 100 166.43 82.17 166.43 82.17 141.69 117.83 141.69 117.83 166.43"></polygon><line class="cls-1" x1="100" y1="176.43" x2="100" y2="166.43"></line></g><g><polygon class="cls-1" points="172.81 166.43 154.98 166.43 137.15 166.43 137.15 141.69 172.81 141.69 172.81 166.43"></polygon><line class="cls-1" x1="154.98" y1="176.43" x2="154.98" y2="166.43"></line></g><polyline class="cls-1" points="116.99 119.69 154.83 119.69 154.83 130.81"></polyline><line class="cls-1" x1="44.88" y1="130.81" x2="44.88" y2="119.69"></line><line class="cls-1" x1="44.88" y1="119.69" x2="82.71" y2="119.69"></line></g><line class="cls-1" x1="37.75" y1="176.43" x2="52.3" y2="176.43"></line><line class="cls-1" x1="92.73" y1="176.43" x2="107.27" y2="176.43"></line><line class="cls-1" x1="147.7" y1="176.43" x2="162.25" y2="176.43"></line></svg>