<svg xmlns="http://www.w3.org/2000/svg" id="Layer_1" data-name="Layer 1" viewBox="0 0 200 200"><defs><style>      .cls-1 {        fill: none;        stroke: #2abad9;        stroke-linecap: round;        stroke-linejoin: round;        stroke-width: 6px;      }    </style></defs><path class="cls-1" d="m133.44,67.04h21.79l17.07-17.06h-22.11v-22.11l-17.07,17.07v21.79l-33.88,33.88m69.18-18.32c1.54,5.84,2.36,11.97,2.36,18.31,0,39.51-32.03,71.54-71.54,71.54S27.7,140.1,27.7,100.59,59.73,29.05,99.25,29.05c6.52,0,12.83.87,18.82,2.5m27.22,55.59c1.25,4.27,1.91,8.78,1.91,13.45,0,26.48-21.47,47.95-47.95,47.95s-47.96-21.48-47.96-47.95,21.47-47.96,47.96-47.96c4.78,0,9.41.7,13.77,2.01m10.6,50.03c-1.95,11.71-12.12,20.62-24.37,20.62-13.65,0-24.71-11.06-24.71-24.7,0-11.94,8.47-21.9,19.73-24.21"></path></svg>