<svg xmlns="http://www.w3.org/2000/svg" id="Layer_1" data-name="Layer 1" viewBox="0 0 200 200"><defs><style>      .cls-1 {        fill: none;        stroke: #2abad9;        stroke-linecap: round;        stroke-linejoin: round;        stroke-width: 6px;      }    </style></defs><g><path class="cls-1" d="m99.08,43.46c5.98,0,10.82,4.85,10.82,10.82s-4.85,10.82-10.82,10.82-10.82-4.85-10.82-10.82"></path><path class="cls-1" d="m86.88,75.2l-4.66,4.66-8.29-8.29,4.66-4.66c-1.16-1.95-2.06-4.08-2.63-6.34h-6.59v-11.73h6.59c.57-2.26,1.46-4.39,2.63-6.34l-4.66-4.66,8.29-8.29,4.66,4.66c1.95-1.16,4.08-2.06,6.34-2.63v-6.59h11.73v6.59c2.26.57,4.39,1.46,6.34,2.63l4.66-4.66,8.29,8.29-4.66,4.66c1.16,1.95,2.06,4.08,2.63,6.34h6.59v11.73h-6.59c-.57,2.26-1.47,4.39-2.63,6.34l4.66,4.66-8.29,8.29-4.66-4.66c-1.95,1.16-4.08,2.06-6.34,2.63v6.59h-11.73v-6.59c-2.26-.57-4.39-1.46-6.34-2.63Z"></path></g><line class="cls-1" x1="80.9" y1="102.35" x2="170.58" y2="102.35"></line><line class="cls-1" x1="28.66" y1="102.35" x2="51.28" y2="102.35"></line><path class="cls-1" d="m92.51,161.44c3.1,3.1,3.1,8.13,0,11.23h0c-3.1,3.1-8.13,3.1-11.23,0l-26.29-26.29h-25.46"></path><path class="cls-1" d="m110.2,156.68c3.1,3.1,3.1,8.13,0,11.23h0c-3.1,3.1-8.13,3.1-11.23,0l-11.26-11.26"></path><path class="cls-1" d="m126.84,150.86c3.1,3.1,3.1,8.13,0,11.23h0c-3.1,3.1-8.13,3.1-11.23,0l-16.64-16.64"></path><path class="cls-1" d="m110.83,134.87l21.07,21.07c3.1,3.1,8.13,3.1,11.23,0h0c3.1-3.1,3.1-8.13,0-11.23l-26.29-26.29h-29.71"></path><path class="cls-1" d="m87.13,118.41l-9,9.18c-3.1,3.1-8.13,3.1-11.23,0h0c-3.1-3.1-3.1-8.13,0-11.23l14.01-14.01"></path><polyline class="cls-1" points="141.03 142.6 148.02 135.61 170.58 135.61"></polyline></svg>