<svg xmlns="http://www.w3.org/2000/svg" width="21" height="20" viewBox="0 0 21 20" fill="none"><path id="Vector" d="M4.47768 20H0.330357V6.64732H4.47768V20ZM2.40179 4.82589C1.07589 4.82589 0 3.72768 0 2.40179C0 1.07589 1.07589 0 2.40179 0C3.72768 0 4.80357 1.07589 4.80357 2.40179C4.80357 3.72768 3.72768 4.82589 2.40179 4.82589ZM20 20H15.8616V13.5C15.8616 11.9509 15.8304 9.96429 13.7054 9.96429C11.5491 9.96429 11.2188 11.6473 11.2188 13.3884V20H7.07589V6.64732H11.0536V8.46875H11.1116C11.6652 7.41964 13.0179 6.3125 15.0357 6.3125C19.2321 6.3125 20.0045 9.07589 20.0045 12.6652V20H20Z" fill="#30302F"></path></svg>