<svg xmlns="http://www.w3.org/2000/svg" width="2084" height="417"><path d="M0 0 C1.62925451 1.49537779 3.25454068 2.99509582 4.875 4.5 C5.83986328 5.36625 5.83986328 5.36625 6.82421875 6.25 C18.29798706 17.02620169 27.36804261 30.74501596 34.875 44.5 C35.21869629 45.12696777 35.56239258 45.75393555 35.91650391 46.39990234 C63.9289622 98.20520415 66.45575735 162.04097562 50.0625 217.875 C41.3223802 246.24642516 27.13580614 272.81143185 6.27587891 294.06835938 C4.95281515 295.42047611 3.65332477 296.79554397 2.35546875 298.171875 C-20.06800828 321.50098519 -51.76821613 336.63566807 -83.125 343.5 C-83.8483252 343.66516113 -84.57165039 343.83032227 -85.31689453 344.00048828 C-131.15648548 354.04055271 -186.03461142 344.3379607 -225.5 319.0625 C-267.87915387 291.04771304 -295.76904502 248.81738512 -306.21728516 199.12280273 C-317.71014674 141.27881228 -308.96831588 79.47363894 -276.1875 29.75 C-269.35649901 19.61826142 -261.42591645 10.45015014 -253.125 1.5 C-252.58746094 0.90832031 -252.04992188 0.31664062 -251.49609375 -0.29296875 C-225.71901171 -27.49134353 -186.67911857 -42.21709237 -150.125 -46.5 C-149.24070312 -46.61085938 -148.35640625 -46.72171875 -147.4453125 -46.8359375 C-93.97455969 -52.44052066 -40.15765915 -35.64830137 0 0 Z M-172.125 -13.5 C-173.03378906 -13.05914062 -173.94257812 -12.61828125 -174.87890625 -12.1640625 C-205.1039497 3.39990013 -224.89212214 32.9353598 -235.56640625 64.49609375 C-240.7933602 80.84632072 -244.24512444 97.4500529 -246.125 114.5 C-246.25648437 115.65628906 -246.38796875 116.81257812 -246.5234375 118.00390625 C-251.70250607 175.0436479 -240.49136899 237.61487004 -203.125 282.5 C-186.36516047 302.4361229 -161.83330969 320.0384818 -135.125 322.5 C-102.91165382 324.45216369 -77.56950476 316.9936778 -53.125 295.5 C-27.73344697 272.52467155 -15.10357132 239.7002963 -8.375 206.875 C-8.17624268 205.91134521 -7.97748535 204.94769043 -7.77270508 203.95483398 C-4.67241686 187.99891431 -3.74514764 172.16203715 -3.8125 155.9375 C-3.81432281 155.02068451 -3.81614563 154.10386902 -3.81802368 153.15927124 C-3.86712707 138.43737044 -4.50541476 124.01889147 -7.125 109.5 C-7.29660645 108.53690918 -7.46821289 107.57381836 -7.64501953 106.58154297 C-15.49093968 64.07053862 -35.28047663 20.15662083 -71.52612305 -5.44580078 C-100.63601151 -25.30849387 -140.26547415 -29.13265113 -172.125 -13.5 Z " fill="#0E929F" transform="translate(1982.125,57.5)"></path><path d="M0 0 C1.21453857 0.24943359 1.21453857 0.24943359 2.45361328 0.50390625 C29.49110342 6.23511122 55.14026019 16.96061307 77 34 C77.90234375 34.680625 78.8046875 35.36125 79.734375 36.0625 C105.9746758 56.55788287 124.51346839 83.90295758 136 115 C136.27537598 115.74362793 136.55075195 116.48725586 136.83447266 117.25341797 C154.30082826 165.60963935 153.61456489 222.82375917 136 271 C135.70222656 271.81662109 135.40445312 272.63324219 135.09765625 273.47460938 C125.90009419 298.30039412 112.81351345 319.42250772 95 339 C94.32710937 339.74507813 93.65421875 340.49015625 92.9609375 341.2578125 C83.18272428 351.53533874 71.14665151 359.78184059 59 367 C58.42733398 367.3412793 57.85466797 367.68255859 57.26464844 368.03417969 C14.37346896 393.17230787 -38.58747449 396.59528048 -86.19238281 384.74609375 C-120.45586237 375.64094649 -154.69836376 356.07328122 -177 328 C-177.41685059 327.484375 -177.83370117 326.96875 -178.26318359 326.4375 C-212.99453056 283.17119915 -226.6191026 225.98184247 -221.0480957 171.21313477 C-214.75144742 116.57350441 -190.93390276 65.64856117 -147.75 30.6875 C-106.13529903 0.26679082 -50.36427484 -10.57015146 0 0 Z M-105 45 C-105.79792969 45.65355469 -106.59585938 46.30710937 -107.41796875 46.98046875 C-140.30958524 74.8520611 -153.74096776 121.21250016 -157.48242188 162.63574219 C-161.76952431 219.2629544 -152.25024035 281.63602985 -114.52734375 326.1875 C-94.70408409 348.24738711 -70.48601526 365.0845728 -39.95947266 367.13720703 C-12.90840858 368.55844342 12.24701192 360.31488009 32.5625 342.25 C34.05246367 340.84469336 35.5335313 339.42980699 37 338 C37.845625 337.195625 38.69125 336.39125 39.5625 335.5625 C40.366875 334.716875 41.17125 333.87125 42 333 C42.65355469 332.3296875 43.30710937 331.659375 43.98046875 330.96875 C76.13026984 296.8822139 85.21811504 245.61254782 85.25 200.4375 C85.25067474 199.57584229 85.25134949 198.71418457 85.25204468 197.82641602 C85.18420858 143.04527703 69.95785812 90.32454528 31.5625 50.125 C11.93827 31.2370326 -13.0362874 21.48080214 -40.25 20.6875 C-64.30763339 21.18931567 -86.7515555 29.14087721 -105 45 Z " fill="#275D77" transform="translate(966,14)"></path><path d="M0 0 C108.17447338 0 108.17447338 0 158.625 7.4375 C159.6317981 7.58356186 159.6317981 7.58356186 160.65893555 7.73257446 C185.31154052 11.35973052 208.13528437 19.36760905 227 36 C227.6084375 36.46535156 228.216875 36.93070313 228.84375 37.41015625 C248.78985478 52.79311914 259.80511132 80.62465034 263.58984375 104.76171875 C267.02400629 134.97430313 260.78366106 166.95332279 242.0859375 191.41796875 C218.24820557 220.92497401 184.77761075 234.91544261 147.77319336 239.10083008 C128.81890643 241.06791139 109.97522116 241.12408818 90.9375 241.0625 C88.22070457 241.05689635 85.50390756 241.05284377 82.78710938 241.04882812 C76.19138627 241.03791192 69.59569745 241.02126136 63 241 C63.00368717 241.63499861 63.00737434 242.26999722 63.01117325 242.9242382 C63.09968808 258.40806039 63.16578894 273.891794 63.20724869 289.37580681 C63.22783361 296.86391182 63.25587575 304.35184747 63.30175781 311.83984375 C63.34175092 318.3698956 63.36746237 324.89982473 63.37635398 331.42999566 C63.38154779 334.88455477 63.39366866 338.33876295 63.42292023 341.79320908 C63.45538575 345.65891621 63.45595144 349.52428671 63.45410156 353.39013672 C63.47567322 355.08947105 63.47567322 355.08947105 63.49768066 356.82313538 C63.4561969 364.86175491 62.19381939 372.03788609 57.03515625 378.4375 C56.38417969 378.953125 55.73320312 379.46875 55.0625 380 C54.08990234 380.804375 54.08990234 380.804375 53.09765625 381.625 C37.91493668 391.57717372 15.53612718 385 0 385 C0 257.95 0 130.9 0 0 Z M63 28 C63 91.69 63 155.38 63 221 C72.68461731 221.05664832 72.68461731 221.05664832 82.14453125 220.30078125 C83.3869458 220.14625488 84.62936035 219.99172852 85.90942383 219.83251953 C87.19743896 219.66091309 88.4854541 219.48930664 89.8125 219.3125 C90.48542084 219.22385681 91.15834167 219.13521362 91.85165405 219.04388428 C121.43809804 215.11368804 156.40788487 209.19920858 177.125 185.5625 C193.76297142 163.67043234 197.39394111 135.05676888 193.8125 108.5 C190.0249378 83.11006767 179.5925545 61.11474642 159 45 C141.43871076 33.15879416 120.4209396 26.81175609 99.25 26.8671875 C98.43305664 26.86623077 97.61611328 26.86527405 96.77441406 26.86428833 C95.05663984 26.86361143 93.33886298 26.86543135 91.62109375 26.86962891 C89.00775346 26.87498411 86.39458501 26.86966722 83.78125 26.86328125 C82.10416629 26.86394212 80.42708269 26.86522346 78.75 26.8671875 C77.97688477 26.86516327 77.20376953 26.86313904 76.40722656 26.86105347 C75.30072754 26.86578171 75.30072754 26.86578171 74.171875 26.87060547 C73.5334668 26.87140106 72.89505859 26.87219666 72.23730469 26.87301636 C69.14035603 27.04879117 66.07075691 27.56132044 63 28 Z " fill="#304967" transform="translate(441,16)"></path><path d="M0 0 C1.12535156 0.08314453 1.12535156 0.08314453 2.2734375 0.16796875 C6.28661545 1.26792616 8.67028485 3.24283485 10.84130859 6.81225586 C12.17953138 9.4065674 13.41301449 12.03182586 14.625 14.6875 C15.09647461 15.69707764 15.56794922 16.70665527 16.05371094 17.74682617 C20.9639966 28.35500217 25.57680794 39.09520829 30.1875 49.8359375 C33.69213211 57.99968139 37.2790641 66.12615372 40.875 74.25 C47.07193177 88.2606037 53.22275139 102.2909246 59.31665039 116.34667969 C62.44786742 123.56328797 65.59148472 130.77185688 68.8351593 137.93878174 C70.18404553 140.91957688 71.52253541 143.90499231 72.86080933 146.89056396 C73.49012437 148.28544978 74.1250713 149.67780977 74.76589966 151.06744385 C75.64306536 152.96998771 76.50108834 154.88010971 77.35546875 156.79296875 C77.84426514 157.86442139 78.33306152 158.93587402 78.83666992 160.03979492 C79.625 162.8125 79.625 162.8125 78.85546875 165.08837891 C70.6461267 176.59123081 53.30521325 184.36561282 40.625 189.8125 C39.635 189.8125 38.645 189.8125 37.625 189.8125 C37.25963135 188.92095215 36.8942627 188.0294043 36.51782227 187.11083984 C28.15379443 166.73389787 19.47845402 146.52554694 10.40788269 126.45291138 C7.61214504 120.26291005 4.83100928 114.06749725 2.12890625 107.8359375 C1.64365479 106.71880371 1.15840332 105.60166992 0.65844727 104.45068359 C-0.375 101.8125 -0.375 101.8125 -0.375 99.8125 C-1.035 99.8125 -1.695 99.8125 -2.375 99.8125 C-2.72046875 100.9778125 -3.0659375 102.143125 -3.421875 103.34375 C-5.59526471 109.8487206 -8.62106224 115.96013767 -11.58059692 122.13311768 C-13.39239925 125.91385143 -15.18619629 129.70311047 -16.98046875 133.4921875 C-17.34885361 134.26944183 -17.71723846 135.04669617 -18.0967865 135.84750366 C-21.79705816 143.67182324 -25.37595791 151.54930533 -28.9375 159.4375 C-34.13162533 170.93160991 -39.42556979 182.37354378 -44.80371094 193.78265381 C-50.41261489 205.68642949 -55.87990704 217.65125802 -61.27734375 229.65234375 C-64.80019883 237.46704187 -68.47037256 245.17987665 -72.375 252.8125 C-51.6733995 248.48829699 -31.34102634 243.89854222 -11.375 236.8125 C-10.45058105 236.49265137 -9.52616211 236.17280273 -8.57373047 235.84326172 C46.59279868 216.66453646 96.68418823 186.9076261 142.77685547 151.27392578 C147.58777641 147.56524661 152.46765172 144.03033269 157.625 140.8125 C157.29373871 146.23690362 154.09652891 149.21877893 150.625 153.0625 C150.03702637 153.72709229 149.44905273 154.39168457 148.84326172 155.07641602 C144.90956399 159.48746254 140.83457189 163.72217689 136.59765625 167.84375 C134.69387918 169.74375722 132.93505662 171.70645351 131.1875 173.75 C125.86163244 179.93885536 120.09739888 185.77279474 113.875 191.0625 C109.91516392 194.44284787 106.28484008 198.11516254 102.625 201.8125 C97.78110526 206.69563706 92.87930719 211.37080974 87.625 215.8125 C86.53893387 216.76008144 85.45445776 217.70948667 84.37109375 218.66015625 C80.47916543 222.0718306 76.55653242 225.44660034 72.625 228.8125 C72.01156738 229.34149902 71.39813477 229.87049805 70.76611328 230.41552734 C52.73341013 245.88109159 32.52452643 258.59468798 11.625 269.8125 C10.74666504 270.28526367 9.86833008 270.75802734 8.96337891 271.24511719 C-14.28766386 283.62712981 -39.00801251 292.71497399 -64.9375 297.5625 C-65.94466064 297.76903198 -65.94466064 297.76903198 -66.97216797 297.97973633 C-71.01775063 298.71795683 -74.44498909 298.76113554 -78.53125 298.23828125 C-84.35612945 297.70394198 -89.32621681 297.52686288 -94.375 300.8125 C-101.01373882 309.3354585 -104.57870185 320.00871685 -108.45898438 329.98876953 C-111.20784949 337.00941916 -114.37220045 343.83897699 -117.52618408 350.68453979 C-118.47490644 352.75766613 -119.40509068 354.83809405 -120.32958984 356.92211914 C-130.4941189 379.72372075 -130.4941189 379.72372075 -139.26268005 383.65986633 C-145.44433983 385.89163536 -151.00273752 386.20851009 -157.53515625 386.10546875 C-158.56563583 386.10122391 -159.59611542 386.09697906 -160.65782166 386.09260559 C-163.91799115 386.07594216 -167.17752039 386.03831301 -170.4375 386 C-172.6607983 385.98493722 -174.88410639 385.97125162 -177.10742188 385.95898438 C-182.53016281 385.92607924 -187.95253564 385.87600457 -193.375 385.8125 C-188.80216543 375.3843793 -184.1218509 365.03399673 -179.10629272 354.81121826 C-173.96526314 344.32698089 -168.94040799 333.79716257 -164.0625 323.1875 C-158.61087285 311.34310474 -152.92828859 299.62146132 -147.19955444 287.90936279 C-142.31762394 277.92370568 -137.51578351 267.91302882 -132.875 257.8125 C-127.86184116 246.90150723 -122.65068266 236.09835837 -117.375 225.3125 C-111.49413076 213.28887965 -105.73078367 201.2268043 -100.13671875 189.06640625 C-96.15355776 180.42955214 -92.03743913 171.8637976 -87.875 163.3125 C-82.51115918 152.29193107 -77.28169843 141.22025587 -72.1484375 130.08984375 C-68.46838413 122.12541453 -64.69909973 114.20869036 -60.875 106.3125 C-55.97257912 96.18425247 -51.18570952 86.00820145 -46.46533203 75.79394531 C-43.46080625 69.29626535 -40.43904909 62.80741057 -37.38671875 56.33203125 C-37.04700043 55.61113815 -36.7072821 54.89024506 -36.35726929 54.14750671 C-34.6403024 50.50583732 -32.92017662 46.8656932 -31.19628906 43.22729492 C-28.10598355 36.69413028 -25.05823258 30.15228901 -22.16015625 23.53125 C-21.67369629 22.42942383 -21.18723633 21.32759766 -20.68603516 20.19238281 C-19.80418207 18.1828989 -18.93666526 16.16702768 -18.08740234 14.14355469 C-15.54102353 8.36252985 -12.77751214 4.24850092 -7.375 0.8125 C-4.44395546 -0.16451485 -3.00146 -0.27146311 0 0 Z " fill="#3B3256" transform="translate(210.375,15.1875)"></path><path d="M0 0 C7.58044988 -0.10152851 15.160724 -0.17151993 22.74169922 -0.21972656 C25.31989088 -0.23982563 27.89803704 -0.26710941 30.47607422 -0.30175781 C34.18468461 -0.35034847 37.89269156 -0.37298658 41.6015625 -0.390625 C42.75177887 -0.41127014 43.90199524 -0.43191528 45.08706665 -0.45318604 C49.75916105 -0.45449222 53.20358501 -0.34442549 57.52490234 1.52441406 C63.30152562 7.30217693 64.45506546 12.76640653 64.52851206 20.80999136 C64.51870528 21.9430592 64.50889851 23.07612704 64.49879456 24.24353027 C64.50417911 25.46414233 64.50956366 26.68475438 64.51511139 27.94235468 C64.52605775 31.31418394 64.51922871 34.68511824 64.50482833 38.05687714 C64.4936812 41.69990928 64.50571863 45.34287386 64.51501465 48.98590088 C64.5280906 55.29583486 64.52695075 61.60563629 64.51642036 67.91557312 C64.50145142 77.05601129 64.51141842 86.1962947 64.52793955 95.3367241 C64.55439058 110.19063274 64.56526 125.0445066 64.56420898 139.8984375 C64.5641215 141.23113268 64.5641215 141.23113268 64.56403225 142.59075099 C64.56376644 146.18984357 64.56344918 149.78893614 64.56306899 153.38802871 C64.56210401 163.27821753 64.56342882 173.16840529 64.56616211 183.05859375 C64.566402 183.94354418 64.56664189 184.82849462 64.56688906 185.74026173 C64.57130567 200.5302116 64.58758061 215.32012932 64.6113829 230.11006021 C64.62540674 239.21901195 64.62837565 248.32784088 64.61676001 257.43679672 C64.60940062 263.68822726 64.61254823 269.93959623 64.62371845 276.19102091 C64.62975227 279.78999368 64.6309876 283.38879368 64.61884117 286.98775482 C63.74688176 317.90607196 63.74688176 317.90607196 77.52734375 344.55859375 C89.89684341 355.80614332 106.35685257 357.1254353 122.36108398 357.20532227 C123.59105606 357.21522186 124.82102814 357.22512146 126.08827209 357.23532104 C129.44311718 357.26140351 132.7979398 357.28330853 136.15282321 357.30332303 C139.66555183 357.32527805 143.17823852 357.35261992 146.69093323 357.37937927 C153.33471257 357.42917808 159.97851534 357.47416411 166.62234026 357.51740164 C174.18949633 357.56688392 181.7566103 357.62176109 189.32372558 357.67708123 C204.88244622 357.79070445 220.4412057 357.89687379 236 358 C236 366.25 236 374.5 236 383 C215.9537372 383.0464513 195.90748979 383.08206741 175.86118412 383.10362434 C166.55172446 383.11390308 157.24229902 383.12789773 147.93286133 383.15087891 C139.81145577 383.17091763 131.69007501 383.18374111 123.56864542 383.18817699 C119.27505732 383.19076676 114.98154013 383.19678144 110.68797493 383.21146011 C106.63244259 383.2252104 102.5770092 383.2291881 98.52145576 383.22621536 C97.04665079 383.22675784 95.57184189 383.23063002 94.09705734 383.23841095 C66.85162353 383.37489496 41.1604269 378.38405177 20.8984375 358.98828125 C5.07090326 342.45798004 0.82652743 321.45009412 0.38110352 299.33154297 C0.35333507 298.14044816 0.35333507 298.14044816 0.32500565 296.92529082 C-0.2702276 271.10807207 -0.12891548 245.27659679 -0.10353968 219.45404769 C-0.09623695 211.82583793 -0.09487474 204.19762997 -0.09374207 196.56941722 C-0.0915742 182.97498594 -0.08497688 169.38056078 -0.07543945 155.78613281 C-0.0662058 142.61067739 -0.05915442 129.43522365 -0.05493164 116.25976562 C-0.05466892 115.44235134 -0.05440619 114.62493706 -0.05413551 113.78275265 C-0.05283011 109.68044903 -0.05156649 105.5781454 -0.05032361 101.47584176 C-0.04002184 67.65055673 -0.02246681 33.82527913 0 0 Z " fill="#1A7D90" transform="translate(1445,19)"></path><path d="M0 0 C7.41972114 -0.10163607 14.83926192 -0.17156495 22.25952148 -0.21972656 C24.78237619 -0.23980963 27.30518453 -0.26708157 29.82788086 -0.30175781 C33.45958923 -0.35041913 37.09068071 -0.37300265 40.72265625 -0.390625 C41.84583755 -0.41127014 42.96901886 -0.43191528 44.12623596 -0.45318604 C50.63565074 -0.45504037 54.80527932 -0.07030535 60 4 C64.2844872 8.55259878 63.41850088 14.58749626 63.38526917 20.46948242 C63.39312271 22.23001056 63.39312271 22.23001056 63.40113491 24.02610493 C63.41268834 27.28082864 63.41085477 30.53522949 63.40342176 33.78995514 C63.39868262 37.30225621 63.41124558 40.81449974 63.42178345 44.32678223 C63.43776756 50.41573627 63.44303334 56.50462377 63.44125557 62.59359741 C63.4388692 71.42008042 63.45488111 80.24645751 63.47570812 89.07291281 C63.5092535 103.4236008 63.53089855 117.7742793 63.54370117 132.125 C63.54447066 132.98394226 63.54524015 133.84288451 63.54603296 134.72785532 C63.54913424 138.2066472 63.55221707 141.68543909 63.555273 145.164231 C63.56377872 154.70584388 63.57468631 164.2474534 63.58666992 173.7890625 C63.58773794 174.64210413 63.58880596 175.49514577 63.58990634 176.37403715 C63.60806688 190.65201817 63.63410366 204.92997697 63.66480106 219.20793629 C63.68325659 227.99803419 63.69426469 236.78808193 63.69532298 245.57819951 C63.6964356 251.61990807 63.7044764 257.66158244 63.71770663 263.70327652 C63.72504712 267.1772428 63.72928783 270.65113422 63.72458839 274.12510681 C62.65523435 308.934899 62.65523435 308.934899 74 341 C74.556875 341.886875 75.11375 342.77375 75.6875 343.6875 C93.49636755 361.49636755 125.15658334 358.30600172 148.109375 358.4140625 C150.6591247 358.43281938 153.20886849 358.45239596 155.75860596 358.4727478 C161.72549966 358.51843375 167.69240752 358.55600902 173.65937924 358.58942068 C180.46750773 358.62801249 187.27554649 358.67732167 194.08359861 358.72740483 C208.05567185 358.82995627 222.02779154 358.9180457 236 359 C236 366.92 236 374.84 236 383 C215.31910154 383.06968604 194.63823173 383.12310567 173.95723915 383.15543652 C164.35296232 383.17085265 154.74876014 383.1918407 145.14453125 383.22631836 C136.76565317 383.25638266 128.38682921 383.27561309 120.00789869 383.28226548 C115.57842576 383.28614914 111.14910754 383.29516428 106.7196846 383.31719017 C102.53525672 383.33782566 98.3510446 383.3437803 94.16657066 383.33932304 C92.64541506 383.34013633 91.12425087 383.34593867 89.60313988 383.35761642 C81.43319985 383.41716575 73.55278841 382.97491765 65.47982788 381.65449524 C64.39621033 381.47755875 64.39621033 381.47755875 63.29070151 381.29704779 C46.75548336 378.34030266 32.93692263 370.72131319 21 359 C19.93072266 357.96746094 19.93072266 357.96746094 18.83984375 356.9140625 C6.2858027 343.90043228 1.26107267 325.61562742 0.44459534 307.97224426 C0.40244103 307.06213272 0.36028672 306.15202118 0.31685501 305.21433049 C-0.1905746 292.99360981 -0.13474421 280.76679213 -0.11606562 268.53789699 C-0.11167713 264.92064551 -0.11321339 261.30339537 -0.1139679 257.68614197 C-0.1144879 251.44464877 -0.11139642 245.20316617 -0.10573006 238.96167564 C-0.09754324 229.93794041 -0.09499254 220.91421022 -0.09374207 211.89047167 C-0.09156273 197.24395414 -0.08493321 182.59744222 -0.07543945 167.95092773 C-0.06623624 153.73771187 -0.0591697 139.52449754 -0.05493164 125.3112793 C-0.05466892 124.4326458 -0.05440619 123.5540123 -0.05413551 122.64875355 C-0.05283031 118.24015179 -0.05156664 113.83155002 -0.05032361 109.42294824 C-0.03998587 72.94862819 -0.02239828 36.47431454 0 0 Z " fill="#1F6C82" transform="translate(1175,19)"></path><path d="M0 0 C10.7383994 23.56201819 21.39398878 47.1606056 32.00317383 70.78106689 C32.91513466 72.81108993 33.82754937 74.84090794 34.74023438 76.87060547 C41.63312069 92.20155464 48.48084011 107.55248126 55.31304932 122.91055298 C56.22386512 124.95785611 57.13495391 127.00503781 58.04632568 129.05209351 C59.32743444 131.93012868 60.60726342 134.80872947 61.88671875 137.6875 C62.46550529 138.98709404 62.46550529 138.98709404 63.0559845 140.3129425 C68 151.44740187 68 151.44740187 68 155 C62.18336204 155.04972466 56.36684996 155.08587252 50.55004883 155.10986328 C48.57444094 155.1198729 46.59884769 155.13348469 44.62329102 155.15087891 C41.77095918 155.17535009 38.91882453 155.18653376 36.06640625 155.1953125 C35.19415909 155.20563507 34.32191193 155.21595764 33.42323303 155.22659302 C24.22160206 155.22824742 16.29202612 153.8478667 9 148 C3.88444026 142.39625359 0.80816777 135.88788112 -2.2265625 129.0078125 C-2.69712067 127.96078156 -3.16767883 126.91375061 -3.65249634 125.83499146 C-8.69102387 114.57191168 -13.54856045 103.23019045 -18.375 91.875 C-20.19653448 87.59576432 -22.01958655 83.31717812 -23.84375 79.0390625 C-24.28613007 78.00092407 -24.72851013 76.96278564 -25.18429565 75.89318848 C-27.83520414 69.68543116 -30.5315615 63.50052783 -33.28125 57.3359375 C-33.9045404 55.93118818 -34.52775353 54.52640457 -35.15087891 53.12158203 C-36.26428087 50.61303097 -37.39339003 48.11381733 -38.53271484 45.61669922 C-39.25515381 43.98885498 -39.25515381 43.98885498 -39.9921875 42.328125 C-40.61649658 40.94995605 -40.61649658 40.94995605 -41.25341797 39.54394531 C-42.13045333 36.55548605 -41.99030538 34.93642791 -41 32 C-39.07722075 30.05958058 -37.25474857 28.42636685 -35.125 26.75 C-34.53710693 26.27038818 -33.94921387 25.79077637 -33.34350586 25.29663086 C-31.57094994 23.85336304 -29.78634849 22.42613622 -28 21 C-26.18577278 19.52295232 -24.37314499 18.04393681 -22.5625 16.5625 C-21.68722656 15.85351562 -20.81195313 15.14453125 -19.91015625 14.4140625 C-17.67817966 12.56257051 -15.48651542 10.68687729 -13.30859375 8.7734375 C-12.36101196 7.94477173 -12.36101196 7.94477173 -11.39428711 7.09936523 C-10.15124741 6.00884181 -8.91356586 4.91217407 -7.68188477 3.80883789 C-3.33255759 0 -3.33255759 0 0 0 Z " fill="#3A3558" transform="translate(321,246)"></path></svg>